<ttFont>
<head>
    <!-- Most of this table will be recalculated by the compiler -->
    <tableVersion value="1.0"/>
    <fontRevision value="1.202"/>
    <checkSumAdjustment value="0x5bdc88db"/>
    <magicNumber value="0x5f0f3cf5"/>
    <flags value="00000000 00001001"/>
    <unitsPerEm value="2048"/>
    <created value="Fri Jan 18 10:11:00 2013"/>
    <modified value="Sat Jan 19 02:31:32 2013"/>
    <xMin value="-516"/>
    <yMin value="-838"/>
    <xMax value="3250"/>
    <yMax value="1797"/>
    <macStyle value="00000000 00000001"/>
    <lowestRecPPEM value="3"/>
    <fontDirectionHint value="2"/>
    <indexToLocFormat value="0"/>
    <glyphDataFormat value="0"/>
  </head>
    <TTGlyph name="A" xMin="-10" yMin="0" xMax="1238" yMax="1187">
      <contour>
        <pt x="390" y="982" on="1"/>
        <pt x="223" y="982" on="1"/>
        <pt x="206" y="982" on="0"/>
        <pt x="182" y="990" on="0"/>
        <pt x="167" y="1013" on="0"/>
        <pt x="160" y="1053" on="0"/>
        <pt x="160" y="1085" on="1"/>
        <pt x="160" y="1117" on="0"/>
        <pt x="167" y="1157" on="0"/>
        <pt x="182" y="1179" on="0"/>
        <pt x="206" y="1187" on="0"/>
        <pt x="223" y="1187" on="1"/>
        <pt x="697" y="1187" on="1"/>
        <pt x="737" y="1187" on="0"/>
        <pt x="787" y="1157" on="0"/>
        <pt x="798" y="1122" on="1"/>
        <pt x="1088" y="205" on="1"/>
        <pt x="1175" y="205" on="1"/>
        <pt x="1192" y="205" on="0"/>
        <pt x="1216" y="197" on="0"/>
        <pt x="1231" y="175" on="0"/>
        <pt x="1238" y="135" on="0"/>
        <pt x="1238" y="103" on="1"/>
        <pt x="1238" y="71" on="0"/>
        <pt x="1231" y="31" on="0"/>
        <pt x="1216" y="8" on="0"/>
        <pt x="1192" y="0" on="0"/>
        <pt x="1175" y="0" on="1"/>
        <pt x="751" y="0" on="1"/>
        <pt x="734" y="0" on="0"/>
        <pt x="710" y="8" on="0"/>
        <pt x="695" y="31" on="0"/>
        <pt x="688" y="71" on="0"/>
        <pt x="688" y="103" on="1"/>
        <pt x="688" y="135" on="0"/>
        <pt x="695" y="175" on="0"/>
        <pt x="710" y="197" on="0"/>
        <pt x="734" y="205" on="0"/>
        <pt x="751" y="205" on="1"/>
        <pt x="837" y="205" on="1"/>
        <pt x="792" y="350" on="1"/>
        <pt x="428" y="350" on="1"/>
        <pt x="383" y="205" on="1"/>
        <pt x="457" y="205" on="1"/>
        <pt x="474" y="205" on="0"/>
        <pt x="498" y="197" on="0"/>
        <pt x="513" y="175" on="0"/>
        <pt x="520" y="135" on="0"/>
        <pt x="520" y="103" on="1"/>
        <pt x="520" y="71" on="0"/>
        <pt x="513" y="31" on="0"/>
        <pt x="498" y="8" on="0"/>
        <pt x="474" y="0" on="0"/>
        <pt x="457" y="0" on="1"/>
        <pt x="53" y="0" on="1"/>
        <pt x="36" y="0" on="0"/>
        <pt x="12" y="8" on="0"/>
        <pt x="-3" y="31" on="0"/>
        <pt x="-10" y="71" on="0"/>
        <pt x="-10" y="103" on="1"/>
        <pt x="-10" y="135" on="0"/>
        <pt x="-3" y="175" on="0"/>
        <pt x="12" y="197" on="0"/>
        <pt x="36" y="205" on="0"/>
        <pt x="53" y="205" on="1"/>
        <pt x="137" y="205" on="1"/>
      </contour>
      <contour>
        <pt x="735" y="555" on="1"/>
        <pt x="615" y="982" on="1"/>
        <pt x="609" y="982" on="1"/>
        <pt x="486" y="555" on="1"/>
      </contour>
    </TTGlyph>
    <TTGlyph name="AE" xMin="-30" yMin="0" xMax="1180" yMax="1187">
      <contour>
        <pt x="285" y="982" on="1"/>
        <pt x="183" y="982" on="1"/>
        <pt x="166" y="982" on="0"/>
        <pt x="142" y="990" on="0"/>
        <pt x="127" y="1012" on="0"/>
        <pt x="120" y="1052" on="0"/>
        <pt x="120" y="1084" on="1"/>
        <pt x="120" y="1116" on="0"/>
        <pt x="127" y="1156" on="0"/>
        <pt x="142" y="1179" on="0"/>
        <pt x="166" y="1187" on="0"/>
        <pt x="183" y="1187" on="1"/>
        <pt x="1095" y="1187" on="1"/>
        <pt x="1130" y="1187" on="0"/>
        <pt x="1160" y="1157" on="0"/>
        <pt x="1160" y="1122" on="1"/>
        <pt x="1160" y="850" on="1"/>
        <pt x="1160" y="816" on="0"/>
        <pt x="1108" y="787" on="0"/>
        <pt x="1048" y="787" on="1"/>
        <pt x="1018" y="787" on="0"/>
        <pt x="980" y="794" on="0"/>
        <pt x="958" y="809" on="0"/>
        <pt x="950" y="833" on="0"/>
        <pt x="950" y="850" on="1"/>
        <pt x="950" y="982" on="1"/>
        <pt x="780" y="982" on="1"/>
        <pt x="780" y="729" on="1"/>
        <pt x="894" y="729" on="1"/>
        <pt x="911" y="729" on="0"/>
        <pt x="935" y="719" on="0"/>
        <pt x="950" y="695" on="0"/>
        <pt x="957" y="653" on="0"/>
        <pt x="957" y="621" on="1"/>
        <pt x="957" y="589" on="0"/>
        <pt x="950" y="548" on="0"/>
        <pt x="935" y="524" on="0"/>
        <pt x="911" y="514" on="0"/>
        <pt x="894" y="514" on="1"/>
        <pt x="780" y="514" on="1"/>
        <pt x="780" y="205" on="1"/>
        <pt x="960" y="205" on="1"/>
        <pt x="960" y="387" on="1"/>
        <pt x="960" y="421" on="0"/>
        <pt x="1012" y="450" on="0"/>
        <pt x="1076" y="450" on="1"/>
        <pt x="1108" y="450" on="0"/>
        <pt x="1148" y="443" on="0"/>
        <pt x="1171" y="428" on="0"/>
        <pt x="1180" y="404" on="0"/>
        <pt x="1180" y="387" on="1"/>
        <pt x="1180" y="65" on="1"/>
        <pt x="1180" y="30" on="0"/>
        <pt x="1150" y="0" on="0"/>
        <pt x="1115" y="0" on="1"/>
        <pt x="615" y="0" on="1"/>
        <pt x="580" y="0" on="0"/>
        <pt x="550" y="30" on="0"/>
        <pt x="550" y="65" on="1"/>
        <pt x="550" y="330" on="1"/>
        <pt x="348" y="330" on="1"/>
        <pt x="316" y="205" on="1"/>
        <pt x="357" y="205" on="1"/>
        <pt x="374" y="205" on="0"/>
        <pt x="398" y="197" on="0"/>
        <pt x="413" y="174" on="0"/>
        <pt x="420" y="134" on="0"/>
        <pt x="420" y="102" on="1"/>
        <pt x="420" y="70" on="0"/>
        <pt x="413" y="30" on="0"/>
        <pt x="398" y="8" on="0"/>
        <pt x="374" y="0" on="0"/>
        <pt x="357" y="0" on="1"/>
        <pt x="33" y="0" on="1"/>
        <pt x="16" y="0" on="0"/>
        <pt x="-8" y="8" on="0"/>
        <pt x="-23" y="30" on="0"/>
        <pt x="-30" y="70" on="0"/>
        <pt x="-30" y="102" on="1"/>
        <pt x="-30" y="134" on="0"/>
        <pt x="-23" y="174" on="0"/>
        <pt x="-8" y="197" on="0"/>
        <pt x="16" y="205" on="0"/>
        <pt x="33" y="205" on="1"/>
        <pt x="86" y="205" on="1"/>
      </contour>
      <contour>
        <pt x="550" y="545" on="1"/>
        <pt x="550" y="982" on="1"/>
        <pt x="503" y="982" on="1"/>
        <pt x="400" y="545" on="1"/>
      </contour>
    </TTGlyph>
    <TTGlyph name="Aacute" xMin="-10" yMin="0" xMax="1238" yMax="1678">
      <component glyphName="A" x="0" y="0" flags="0x204"/>
      <component glyphName="acute" x="-62" y="270" flags="0x4"/>
    </TTGlyph>
    <TTGlyph name="Abreve" xMin="-10" yMin="0" xMax="1238" yMax="1655">
      <component glyphName="A" x="0" y="0" flags="0x204"/>
      <component glyphName="breve" x="-20" y="270" flags="0x4"/>
    </TTGlyph>
    <TTGlyph name="Acircumflex" xMin="-10" yMin="0" xMax="1238" yMax="1676">
      <component glyphName="A" x="0" y="0" flags="0x204"/>
      <component glyphName="circumflex" x="-20" y="270" flags="0x4"/>
    </TTGlyph>
    <TTGlyph name="Adieresis" xMin="-10" yMin="0" xMax="1238" yMax="1615">
      <component glyphName="A" x="0" y="0" flags="0x204"/>
      <component glyphName="dieresis" x="-20" y="270" flags="0x4"/>
    </TTGlyph>
    <TTGlyph name="Agrave" xMin="-10" yMin="0" xMax="1238" yMax="1678">
      <component glyphName="A" x="0" y="0" flags="0x204"/>
      <component glyphName="grave" x="-38" y="270" flags="0x4"/>
    </TTGlyph>
    <TTGlyph name="Amacron" xMin="-10" yMin="0" xMax="1238" yMax="1545">
      <component glyphName="macron" x="-50" y="270" flags="0x204"/>
      <component glyphName="A" x="0" y="0" flags="0x4"/>
    </TTGlyph>
    <TTGlyph name="Aogonek" xMin="-10" yMin="-472" xMax="1238" yMax="1187">
      <contour>
        <pt x="390" y="982" on="1"/>
        <pt x="223" y="982" on="1"/>
        <pt x="206" y="982" on="0"/>
        <pt x="182" y="990" on="0"/>
        <pt x="167" y="1013" on="0"/>
        <pt x="160" y="1053" on="0"/>
        <pt x="160" y="1085" on="1"/>
        <pt x="160" y="1117" on="0"/>
        <pt x="167" y="1157" on="0"/>
        <pt x="182" y="1179" on="0"/>
        <pt x="206" y="1187" on="0"/>
        <pt x="223" y="1187" on="1"/>
        <pt x="697" y="1187" on="1"/>
        <pt x="737" y="1187" on="0"/>
        <pt x="787" y="1157" on="0"/>
        <pt x="798" y="1122" on="1"/>
        <pt x="1088" y="205" on="1"/>
        <pt x="1175" y="205" on="1"/>
        <pt x="1192" y="205" on="0"/>
        <pt x="1216" y="197" on="0"/>
        <pt x="1231" y="175" on="0"/>
        <pt x="1238" y="135" on="0"/>
        <pt x="1238" y="103" on="1"/>
        <pt x="1238" y="71" on="0"/>
        <pt x="1231" y="31" on="0"/>
        <pt x="1216" y="8" on="0"/>
        <pt x="1192" y="0" on="0"/>
        <pt x="1175" y="0" on="1"/>
        <pt x="1091" y="0" on="1"/>
        <pt x="1017" y="-63" on="0"/>
        <pt x="932" y="-180" on="0"/>
        <pt x="932" y="-231" on="1"/>
        <pt x="932" y="-266" on="0"/>
        <pt x="977" y="-298" on="0"/>
        <pt x="1020" y="-298" on="1"/>
        <pt x="1049" y="-298" on="0"/>
        <pt x="1108" y="-290" on="0"/>
        <pt x="1140" y="-285" on="1"/>
        <pt x="1160" y="-282" on="0"/>
        <pt x="1185" y="-318" on="0"/>
        <pt x="1188" y="-353" on="1"/>
        <pt x="1194" y="-424" on="0"/>
        <pt x="1151" y="-438" on="1"/>
        <pt x="1100" y="-454" on="0"/>
        <pt x="990" y="-472" on="0"/>
        <pt x="935" y="-472" on="1"/>
        <pt x="817" y="-472" on="0"/>
        <pt x="689" y="-369" on="0"/>
        <pt x="689" y="-269" on="1"/>
        <pt x="689" y="-226" on="0"/>
        <pt x="717" y="-151" on="0"/>
        <pt x="766" y="-85" on="0"/>
        <pt x="834" y="-27" on="0"/>
        <pt x="874" y="0" on="1"/>
        <pt x="751" y="0" on="1"/>
        <pt x="734" y="0" on="0"/>
        <pt x="710" y="8" on="0"/>
        <pt x="695" y="31" on="0"/>
        <pt x="688" y="71" on="0"/>
        <pt x="688" y="103" on="1"/>
        <pt x="688" y="135" on="0"/>
        <pt x="695" y="175" on="0"/>
        <pt x="710" y="197" on="0"/>
        <pt x="734" y="205" on="0"/>
        <pt x="751" y="205" on="1"/>
        <pt x="837" y="205" on="1"/>
        <pt x="792" y="350" on="1"/>
        <pt x="428" y="350" on="1"/>
        <pt x="383" y="205" on="1"/>
        <pt x="457" y="205" on="1"/>
        <pt x="474" y="205" on="0"/>
        <pt x="498" y="197" on="0"/>
        <pt x="513" y="175" on="0"/>
        <pt x="520" y="135" on="0"/>
        <pt x="520" y="103" on="1"/>
        <pt x="520" y="71" on="0"/>
        <pt x="513" y="31" on="0"/>
        <pt x="498" y="8" on="0"/>
        <pt x="474" y="0" on="0"/>
        <pt x="457" y="0" on="1"/>
        <pt x="53" y="0" on="1"/>
        <pt x="36" y="0" on="0"/>
        <pt x="12" y="8" on="0"/>
        <pt x="-3" y="31" on="0"/>
        <pt x="-10" y="71" on="0"/>
        <pt x="-10" y="103" on="1"/>
        <pt x="-10" y="135" on="0"/>
        <pt x="-3" y="175" on="0"/>
        <pt x="12" y="197" on="0"/>
        <pt x="36" y="205" on="0"/>
        <pt x="53" y="205" on="1"/>
        <pt x="137" y="205" on="1"/>
      </contour>
      <contour>
        <pt x="735" y="555" on="1"/>
        <pt x="615" y="982" on="1"/>
        <pt x="609" y="982" on="1"/>
        <pt x="486" y="555" on="1"/>
      </contour>
    </TTGlyph>
    <TTGlyph name="Aring" xMin="-10" yMin="0" xMax="1238" yMax="1797">
      <component glyphName="A" x="0" y="0" flags="0x204"/>
      <component glyphName="ring" x="-20" y="240" flags="0x4"/>
    </TTGlyph>
    <TTGlyph name="Atilde" xMin="-10" yMin="0" xMax="1238" yMax="1584">
      <component glyphName="A" x="0" y="0" flags="0x204"/>
      <component glyphName="tilde" x="-40" y="260" flags="0x4"/>
    </TTGlyph>
    <TTGlyph name="B" xMin="70" yMin="0" xMax="1139" yMax="1187">
      <contour>
        <pt x="240" y="982" on="1"/>
        <pt x="133" y="982" on="1"/>
        <pt x="116" y="982" on="0"/>
        <pt x="92" y="990" on="0"/>
        <pt x="77" y="1012" on="0"/>
        <pt x="70" y="1052" on="0"/>
        <pt x="70" y="1084" on="1"/>
        <pt x="70" y="1116" on="0"/>
        <pt x="77" y="1156" on="0"/>
        <pt x="92" y="1179" on="0"/>
        <pt x="116" y="1187" on="0"/>
        <pt x="133" y="1187" on="1"/>
        <pt x="654" y="1187" on="1"/>
        <pt x="762" y="1187" on="0"/>
        <pt x="917" y="1141" on="0"/>
        <pt x="1017" y="1056" on="0"/>
        <pt x="1064" y="937" on="0"/>
        <pt x="1064" y="864" on="1"/>
        <pt x="1064" y="779" on="0"/>
        <pt x="980" y="664" on="0"/>
        <pt x="910" y="630" on="1"/>
        <pt x="1016" y="601" on="0"/>
        <pt x="1139" y="463" on="0"/>
        <pt x="1139" y="344" on="1"/>
        <pt x="1139" y="258" on="0"/>
        <pt x="1082" y="130" on="0"/>
        <pt x="972" y="43" on="0"/>
        <pt x="813" y="0" on="0"/>
        <pt x="710" y="0" on="1"/>
        <pt x="133" y="0" on="1"/>
        <pt x="116" y="0" on="0"/>
        <pt x="92" y="8" on="0"/>
        <pt x="77" y="30" on="0"/>
        <pt x="70" y="70" on="0"/>
        <pt x="70" y="102" on="1"/>
        <pt x="70" y="134" on="0"/>
        <pt x="77" y="174" on="0"/>
        <pt x="92" y="197" on="0"/>
        <pt x="116" y="205" on="0"/>
        <pt x="133" y="205" on="1"/>
        <pt x="240" y="205" on="1"/>
      </contour>
      <contour>
        <pt x="682" y="215" on="1"/>
        <pt x="782" y="215" on="0"/>
        <pt x="876" y="285" on="0"/>
        <pt x="876" y="354" on="1"/>
        <pt x="876" y="429" on="0"/>
        <pt x="781" y="499" on="0"/>
        <pt x="682" y="499" on="1"/>
        <pt x="490" y="499" on="1"/>
        <pt x="490" y="215" on="1"/>
      </contour>
      <contour>
        <pt x="632" y="714" on="1"/>
        <pt x="723" y="714" on="0"/>
        <pt x="810" y="777" on="0"/>
        <pt x="810" y="844" on="1"/>
        <pt x="810" y="912" on="0"/>
        <pt x="725" y="972" on="0"/>
        <pt x="632" y="972" on="1"/>
        <pt x="490" y="972" on="1"/>
        <pt x="490" y="714" on="1"/>
      </contour>
    </TTGlyph>
    <TTGlyph name="C" xMin="103" yMin="-22" xMax="1135" yMax="1209">
      <contour>
        <pt x="1081" y="84" on="1"/>
        <pt x="976" y="32" on="0"/>
        <pt x="761" y="-22" on="0"/>
        <pt x="654" y="-22" on="1"/>
        <pt x="530" y="-22" on="0"/>
        <pt x="327" y="64" on="0"/>
        <pt x="182" y="223" on="0"/>
        <pt x="103" y="451" on="0"/>
        <pt x="103" y="594" on="1"/>
        <pt x="103" y="736" on="0"/>
        <pt x="181" y="964" on="0"/>
        <pt x="321" y="1124" on="0"/>
        <pt x="511" y="1209" on="0"/>
        <pt x="624" y="1209" on="1"/>
        <pt x="718" y="1209" on="0"/>
        <pt x="845" y="1141" on="0"/>
        <pt x="884" y="1083" on="1"/>
        <pt x="884" y="1146" on="1"/>
        <pt x="884" y="1180" on="0"/>
        <pt x="942" y="1209" on="0"/>
        <pt x="1006" y="1209" on="1"/>
        <pt x="1038" y="1209" on="0"/>
        <pt x="1080" y="1202" on="0"/>
        <pt x="1104" y="1187" on="0"/>
        <pt x="1114" y="1163" on="0"/>
        <pt x="1114" y="1146" on="1"/>
        <pt x="1114" y="762" on="1"/>
        <pt x="1114" y="728" on="0"/>
        <pt x="1054" y="699" on="0"/>
        <pt x="982" y="699" on="1"/>
        <pt x="946" y="699" on="0"/>
        <pt x="901" y="706" on="0"/>
        <pt x="874" y="721" on="0"/>
        <pt x="864" y="745" on="0"/>
        <pt x="864" y="762" on="1"/>
        <pt x="864" y="810" on="0"/>
        <pt x="837" y="891" on="0"/>
        <pt x="784" y="950" on="0"/>
        <pt x="706" y="982" on="0"/>
        <pt x="654" y="982" on="1"/>
        <pt x="513" y="982" on="0"/>
        <pt x="371" y="781" on="0"/>
        <pt x="371" y="594" on="1"/>
        <pt x="371" y="407" on="0"/>
        <pt x="523" y="205" on="0"/>
        <pt x="664" y="205" on="1"/>
        <pt x="756" y="205" on="0"/>
        <pt x="918" y="256" on="0"/>
        <pt x="1005" y="300" on="1"/>
        <pt x="1035" y="315" on="0"/>
        <pt x="1091" y="285" on="0"/>
        <pt x="1113" y="225" on="1"/>
        <pt x="1135" y="164" on="0"/>
        <pt x="1113" y="100" on="0"/>
      </contour>
    </TTGlyph>
    <TTGlyph name="Cacute" xMin="103" yMin="-22" xMax="1135" yMax="1678">
      <component glyphName="acute" x="18" y="270" flags="0x204"/>
      <component glyphName="C" x="0" y="0" flags="0x4"/>
    </TTGlyph>
    <TTGlyph name="Ccaron" xMin="103" yMin="-22" xMax="1135" yMax="1663">
      <component glyphName="C" x="0" y="0" flags="0x204"/>
      <component glyphName="caron" x="10" y="270" flags="0x4"/>
    </TTGlyph>
    <TTGlyph name="Ccedilla" xMin="103" yMin="-472" xMax="1135" yMax="1209">
      <contour>
        <pt x="1081" y="84" on="1"/>
        <pt x="900" y="-6" on="0"/>
        <pt x="714" y="-20" on="1"/>
        <pt x="714" y="-93" on="1"/>
        <pt x="772" y="-91" on="0"/>
        <pt x="858" y="-117" on="0"/>
        <pt x="913" y="-167" on="0"/>
        <pt x="940" y="-238" on="0"/>
        <pt x="940" y="-281" on="1"/>
        <pt x="940" y="-372" on="0"/>
        <pt x="799" y="-472" on="0"/>
        <pt x="661" y="-472" on="1"/>
        <pt x="586" y="-472" on="0"/>
        <pt x="455" y="-450" on="0"/>
        <pt x="402" y="-430" on="1"/>
        <pt x="383" y="-422" on="0"/>
        <pt x="380" y="-380" on="0"/>
        <pt x="391" y="-348" on="1"/>
        <pt x="404" y="-313" on="0"/>
        <pt x="435" y="-282" on="0"/>
        <pt x="455" y="-288" on="1"/>
        <pt x="494" y="-303" on="0"/>
        <pt x="568" y="-322" on="0"/>
        <pt x="618" y="-322" on="1"/>
        <pt x="704" y="-322" on="0"/>
        <pt x="704" y="-269" on="1"/>
        <pt x="704" y="-248" on="0"/>
        <pt x="682" y="-225" on="0"/>
        <pt x="648" y="-214" on="0"/>
        <pt x="603" y="-216" on="0"/>
        <pt x="581" y="-221" on="1"/>
        <pt x="564" y="-225" on="0"/>
        <pt x="539" y="-206" on="0"/>
        <pt x="539" y="-180" on="1"/>
        <pt x="539" y="-11" on="1"/>
        <pt x="439" y="7" on="0"/>
        <pt x="278" y="107" on="0"/>
        <pt x="164" y="262" on="0"/>
        <pt x="103" y="469" on="0"/>
        <pt x="103" y="594" on="1"/>
        <pt x="103" y="736" on="0"/>
        <pt x="181" y="964" on="0"/>
        <pt x="321" y="1124" on="0"/>
        <pt x="511" y="1209" on="0"/>
        <pt x="624" y="1209" on="1"/>
        <pt x="718" y="1209" on="0"/>
        <pt x="845" y="1141" on="0"/>
        <pt x="884" y="1083" on="1"/>
        <pt x="884" y="1146" on="1"/>
        <pt x="884" y="1180" on="0"/>
        <pt x="942" y="1209" on="0"/>
        <pt x="1006" y="1209" on="1"/>
        <pt x="1038" y="1209" on="0"/>
        <pt x="1080" y="1202" on="0"/>
        <pt x="1104" y="1187" on="0"/>
        <pt x="1114" y="1163" on="0"/>
        <pt x="1114" y="1146" on="1"/>
        <pt x="1114" y="762" on="1"/>
        <pt x="1114" y="728" on="0"/>
        <pt x="1054" y="699" on="0"/>
        <pt x="982" y="699" on="1"/>
        <pt x="946" y="699" on="0"/>
        <pt x="901" y="706" on="0"/>
        <pt x="874" y="721" on="0"/>
        <pt x="864" y="745" on="0"/>
        <pt x="864" y="762" on="1"/>
        <pt x="864" y="810" on="0"/>
        <pt x="837" y="891" on="0"/>
        <pt x="784" y="950" on="0"/>
        <pt x="706" y="982" on="0"/>
        <pt x="654" y="982" on="1"/>
        <pt x="513" y="982" on="0"/>
        <pt x="371" y="781" on="0"/>
        <pt x="371" y="594" on="1"/>
        <pt x="371" y="407" on="0"/>
        <pt x="523" y="205" on="0"/>
        <pt x="664" y="205" on="1"/>
        <pt x="756" y="205" on="0"/>
        <pt x="918" y="256" on="0"/>
        <pt x="1005" y="300" on="1"/>
        <pt x="1035" y="315" on="0"/>
        <pt x="1091" y="285" on="0"/>
        <pt x="1113" y="225" on="1"/>
        <pt x="1135" y="164" on="0"/>
        <pt x="1113" y="100" on="0"/>
      </contour>
    </TTGlyph>
    <TTGlyph name="Ccircumflex" xMin="103" yMin="-22" xMax="1135" yMax="1676">
      <component glyphName="circumflex" x="40" y="270" flags="0x204"/>
      <component glyphName="C" x="0" y="0" flags="0x4"/>
    </TTGlyph>
    <TTGlyph name="Cdotaccent" xMin="103" yMin="-22" xMax="1135" yMax="1676">
      <component glyphName="dotaccent" x="20" y="270" flags="0x204"/>
      <component glyphName="C" x="0" y="0" flags="0x4"/>
    </TTGlyph>
    <TTGlyph name="D" xMin="60" yMin="0" xMax="1155" yMax="1187">
      <contour>
        <pt x="220" y="982" on="1"/>
        <pt x="123" y="982" on="1"/>
        <pt x="106" y="982" on="0"/>
        <pt x="82" y="990" on="0"/>
        <pt x="67" y="1012" on="0"/>
        <pt x="60" y="1052" on="0"/>
        <pt x="60" y="1084" on="1"/>
        <pt x="60" y="1116" on="0"/>
        <pt x="67" y="1156" on="0"/>
        <pt x="82" y="1179" on="0"/>
        <pt x="106" y="1187" on="0"/>
        <pt x="123" y="1187" on="1"/>
        <pt x="594" y="1187" on="1"/>
        <pt x="725" y="1187" on="0"/>
        <pt x="933" y="1109" on="0"/>
        <pt x="1078" y="957" on="0"/>
        <pt x="1155" y="736" on="0"/>
        <pt x="1155" y="594" on="1"/>
        <pt x="1155" y="451" on="0"/>
        <pt x="1078" y="230" on="0"/>
        <pt x="933" y="79" on="0"/>
        <pt x="725" y="0" on="0"/>
        <pt x="594" y="0" on="1"/>
        <pt x="123" y="0" on="1"/>
        <pt x="106" y="0" on="0"/>
        <pt x="82" y="8" on="0"/>
        <pt x="67" y="30" on="0"/>
        <pt x="60" y="70" on="0"/>
        <pt x="60" y="102" on="1"/>
        <pt x="60" y="134" on="0"/>
        <pt x="67" y="174" on="0"/>
        <pt x="82" y="197" on="0"/>
        <pt x="106" y="205" on="0"/>
        <pt x="123" y="205" on="1"/>
        <pt x="220" y="205" on="1"/>
      </contour>
      <contour>
        <pt x="574" y="215" on="1"/>
        <pt x="730" y="215" on="0"/>
        <pt x="887" y="407" on="0"/>
        <pt x="887" y="594" on="1"/>
        <pt x="887" y="781" on="0"/>
        <pt x="730" y="972" on="0"/>
        <pt x="574" y="972" on="1"/>
        <pt x="470" y="972" on="1"/>
        <pt x="470" y="215" on="1"/>
      </contour>
    </TTGlyph>
    <TTGlyph name="Dcaron" xMin="60" yMin="0" xMax="1155" yMax="1653">
      <component glyphName="D" x="0" y="0" flags="0x204"/>
      <component glyphName="caron" x="-30" y="260" flags="0x4"/>
    </TTGlyph>
    <TTGlyph name="Dcroat" xMin="60" yMin="0" xMax="1155" yMax="1545">
      <component glyphName="D" x="0" y="0" flags="0x204"/>
      <component glyphName="macron" x="-30" y="270" flags="0x4"/>
    </TTGlyph>
    <TTGlyph name="Delta" xMin="20" yMin="0" xMax="1208" yMax="1209">
      <contour>
        <pt x="163" y="205" on="1"/>
        <pt x="465" y="1144" on="1"/>
        <pt x="476" y="1180" on="0"/>
        <pt x="547" y="1209" on="0"/>
        <pt x="617" y="1209" on="1"/>
        <pt x="687" y="1209" on="0"/>
        <pt x="756" y="1179" on="0"/>
        <pt x="767" y="1144" on="1"/>
        <pt x="1064" y="205" on="1"/>
        <pt x="1145" y="205" on="1"/>
        <pt x="1162" y="205" on="0"/>
        <pt x="1186" y="197" on="0"/>
        <pt x="1201" y="174" on="0"/>
        <pt x="1208" y="134" on="0"/>
        <pt x="1208" y="102" on="1"/>
        <pt x="1208" y="70" on="0"/>
        <pt x="1201" y="30" on="0"/>
        <pt x="1186" y="8" on="0"/>
        <pt x="1162" y="0" on="0"/>
        <pt x="1145" y="0" on="1"/>
        <pt x="83" y="0" on="1"/>
        <pt x="66" y="0" on="0"/>
        <pt x="42" y="8" on="0"/>
        <pt x="27" y="30" on="0"/>
        <pt x="20" y="70" on="0"/>
        <pt x="20" y="102" on="1"/>
        <pt x="20" y="134" on="0"/>
        <pt x="27" y="174" on="0"/>
        <pt x="42" y="197" on="0"/>
        <pt x="66" y="205" on="0"/>
        <pt x="83" y="205" on="1"/>
      </contour>
      <contour>
        <pt x="422" y="205" on="1"/>
        <pt x="806" y="205" on="1"/>
        <pt x="618" y="852" on="1"/>
        <pt x="614" y="852" on="1"/>
      </contour>
    </TTGlyph>
    <TTGlyph name="E" xMin="60" yMin="0" xMax="1120" yMax="1187">
      <contour>
        <pt x="220" y="982" on="1"/>
        <pt x="123" y="982" on="1"/>
        <pt x="106" y="982" on="0"/>
        <pt x="82" y="990" on="0"/>
        <pt x="67" y="1012" on="0"/>
        <pt x="60" y="1052" on="0"/>
        <pt x="60" y="1084" on="1"/>
        <pt x="60" y="1116" on="0"/>
        <pt x="67" y="1156" on="0"/>
        <pt x="82" y="1179" on="0"/>
        <pt x="106" y="1187" on="0"/>
        <pt x="123" y="1187" on="1"/>
        <pt x="1035" y="1187" on="1"/>
        <pt x="1070" y="1187" on="0"/>
        <pt x="1100" y="1157" on="0"/>
        <pt x="1100" y="1122" on="1"/>
        <pt x="1100" y="820" on="1"/>
        <pt x="1100" y="786" on="0"/>
        <pt x="1042" y="757" on="0"/>
        <pt x="978" y="757" on="1"/>
        <pt x="946" y="757" on="0"/>
        <pt x="904" y="764" on="0"/>
        <pt x="880" y="779" on="0"/>
        <pt x="870" y="803" on="0"/>
        <pt x="870" y="820" on="1"/>
        <pt x="870" y="972" on="1"/>
        <pt x="470" y="972" on="1"/>
        <pt x="470" y="719" on="1"/>
        <pt x="714" y="719" on="1"/>
        <pt x="731" y="719" on="0"/>
        <pt x="755" y="709" on="0"/>
        <pt x="770" y="685" on="0"/>
        <pt x="777" y="643" on="0"/>
        <pt x="777" y="611" on="1"/>
        <pt x="777" y="579" on="0"/>
        <pt x="770" y="538" on="0"/>
        <pt x="755" y="514" on="0"/>
        <pt x="731" y="504" on="0"/>
        <pt x="714" y="504" on="1"/>
        <pt x="470" y="504" on="1"/>
        <pt x="470" y="215" on="1"/>
        <pt x="880" y="215" on="1"/>
        <pt x="880" y="417" on="1"/>
        <pt x="880" y="451" on="0"/>
        <pt x="938" y="480" on="0"/>
        <pt x="1006" y="480" on="1"/>
        <pt x="1040" y="480" on="0"/>
        <pt x="1084" y="473" on="0"/>
        <pt x="1110" y="458" on="0"/>
        <pt x="1120" y="434" on="0"/>
        <pt x="1120" y="417" on="1"/>
        <pt x="1120" y="65" on="1"/>
        <pt x="1120" y="30" on="0"/>
        <pt x="1090" y="0" on="0"/>
        <pt x="1055" y="0" on="1"/>
        <pt x="123" y="0" on="1"/>
        <pt x="106" y="0" on="0"/>
        <pt x="82" y="8" on="0"/>
        <pt x="67" y="30" on="0"/>
        <pt x="60" y="70" on="0"/>
        <pt x="60" y="102" on="1"/>
        <pt x="60" y="134" on="0"/>
        <pt x="67" y="174" on="0"/>
        <pt x="82" y="197" on="0"/>
        <pt x="106" y="205" on="0"/>
        <pt x="123" y="205" on="1"/>
        <pt x="220" y="205" on="1"/>
      </contour>
    </TTGlyph>
    <TTGlyph name="Eacute" xMin="60" yMin="0" xMax="1120" yMax="1678">
      <component glyphName="E" x="0" y="0" flags="0x204"/>
      <component glyphName="acute" x="-32" y="270" flags="0x4"/>
    </TTGlyph>
    <TTGlyph name="Ebreve" xMin="60" yMin="0" xMax="1120" yMax="1655">
      <component glyphName="E" x="0" y="0" flags="0x204"/>
      <component glyphName="breve" x="0" y="270" flags="0x4"/>
    </TTGlyph>
    <TTGlyph name="Ecaron" xMin="60" yMin="0" xMax="1120" yMax="1653">
      <component glyphName="E" x="0" y="0" flags="0x204"/>
      <component glyphName="caron" x="0" y="260" flags="0x4"/>
    </TTGlyph>
    <TTGlyph name="Ecircumflex" xMin="60" yMin="0" xMax="1120" yMax="1676">
      <component glyphName="E" x="0" y="0" flags="0x204"/>
      <component glyphName="circumflex" x="30" y="270" flags="0x4"/>
    </TTGlyph>
    <TTGlyph name="Edieresis" xMin="60" yMin="0" xMax="1120" yMax="1615">
      <component glyphName="E" x="0" y="0" flags="0x204"/>
      <component glyphName="dieresis" x="30" y="270" flags="0x4"/>
    </TTGlyph>
    <TTGlyph name="Edotaccent" xMin="60" yMin="0" xMax="1120" yMax="1676">
      <component glyphName="dotaccent" x="0" y="270" flags="0x204"/>
      <component glyphName="E" x="0" y="0" flags="0x4"/>
    </TTGlyph>
    <TTGlyph name="Egrave" xMin="60" yMin="0" xMax="1120" yMax="1678">
      <component glyphName="E" x="0" y="0" flags="0x204"/>
      <component glyphName="grave" x="32" y="270" flags="0x4"/>
    </TTGlyph>
    <TTGlyph name="Emacron" xMin="60" yMin="0" xMax="1120" yMax="1545">
      <component glyphName="macron" x="21" y="270" flags="0x204"/>
      <component glyphName="E" x="0" y="0" flags="0x4"/>
    </TTGlyph>
    <TTGlyph name="Eogonek" xMin="60" yMin="-472" xMax="1134" yMax="1187">
      <contour>
        <pt x="220" y="982" on="1"/>
        <pt x="123" y="982" on="1"/>
        <pt x="106" y="982" on="0"/>
        <pt x="82" y="990" on="0"/>
        <pt x="67" y="1012" on="0"/>
        <pt x="60" y="1052" on="0"/>
        <pt x="60" y="1084" on="1"/>
        <pt x="60" y="1116" on="0"/>
        <pt x="67" y="1156" on="0"/>
        <pt x="82" y="1179" on="0"/>
        <pt x="106" y="1187" on="0"/>
        <pt x="123" y="1187" on="1"/>
        <pt x="1035" y="1187" on="1"/>
        <pt x="1070" y="1187" on="0"/>
        <pt x="1100" y="1157" on="0"/>
        <pt x="1100" y="1122" on="1"/>
        <pt x="1100" y="820" on="1"/>
        <pt x="1100" y="786" on="0"/>
        <pt x="1042" y="757" on="0"/>
        <pt x="978" y="757" on="1"/>
        <pt x="946" y="757" on="0"/>
        <pt x="904" y="764" on="0"/>
        <pt x="880" y="779" on="0"/>
        <pt x="870" y="803" on="0"/>
        <pt x="870" y="820" on="1"/>
        <pt x="870" y="972" on="1"/>
        <pt x="470" y="972" on="1"/>
        <pt x="470" y="719" on="1"/>
        <pt x="714" y="719" on="1"/>
        <pt x="731" y="719" on="0"/>
        <pt x="755" y="709" on="0"/>
        <pt x="770" y="685" on="0"/>
        <pt x="777" y="643" on="0"/>
        <pt x="777" y="611" on="1"/>
        <pt x="777" y="579" on="0"/>
        <pt x="770" y="538" on="0"/>
        <pt x="755" y="514" on="0"/>
        <pt x="731" y="504" on="0"/>
        <pt x="714" y="504" on="1"/>
        <pt x="470" y="504" on="1"/>
        <pt x="470" y="215" on="1"/>
        <pt x="880" y="215" on="1"/>
        <pt x="880" y="417" on="1"/>
        <pt x="880" y="451" on="0"/>
        <pt x="938" y="480" on="0"/>
        <pt x="1006" y="480" on="1"/>
        <pt x="1040" y="480" on="0"/>
        <pt x="1084" y="473" on="0"/>
        <pt x="1110" y="458" on="0"/>
        <pt x="1120" y="434" on="0"/>
        <pt x="1120" y="417" on="1"/>
        <pt x="1120" y="65" on="1"/>
        <pt x="1120" y="30" on="0"/>
        <pt x="1090" y="0" on="0"/>
        <pt x="1055" y="0" on="1"/>
        <pt x="1031" y="0" on="1"/>
        <pt x="957" y="-63" on="0"/>
        <pt x="872" y="-180" on="0"/>
        <pt x="872" y="-231" on="1"/>
        <pt x="872" y="-266" on="0"/>
        <pt x="917" y="-298" on="0"/>
        <pt x="960" y="-298" on="1"/>
        <pt x="989" y="-298" on="0"/>
        <pt x="1048" y="-290" on="0"/>
        <pt x="1080" y="-285" on="1"/>
        <pt x="1100" y="-282" on="0"/>
        <pt x="1125" y="-318" on="0"/>
        <pt x="1128" y="-353" on="1"/>
        <pt x="1134" y="-424" on="0"/>
        <pt x="1091" y="-438" on="1"/>
        <pt x="1040" y="-454" on="0"/>
        <pt x="930" y="-472" on="0"/>
        <pt x="875" y="-472" on="1"/>
        <pt x="757" y="-472" on="0"/>
        <pt x="629" y="-369" on="0"/>
        <pt x="629" y="-269" on="1"/>
        <pt x="629" y="-226" on="0"/>
        <pt x="657" y="-151" on="0"/>
        <pt x="706" y="-85" on="0"/>
        <pt x="774" y="-27" on="0"/>
        <pt x="814" y="0" on="1"/>
        <pt x="123" y="0" on="1"/>
        <pt x="106" y="0" on="0"/>
        <pt x="82" y="8" on="0"/>
        <pt x="67" y="30" on="0"/>
        <pt x="60" y="70" on="0"/>
        <pt x="60" y="102" on="1"/>
        <pt x="60" y="134" on="0"/>
        <pt x="67" y="174" on="0"/>
        <pt x="82" y="197" on="0"/>
        <pt x="106" y="205" on="0"/>
        <pt x="123" y="205" on="1"/>
        <pt x="220" y="205" on="1"/>
      </contour>
    </TTGlyph>
    <TTGlyph name="Eth" xMin="40" yMin="0" xMax="1155" yMax="1187">
      <contour>
        <pt x="220" y="494" on="1"/>
        <pt x="103" y="494" on="1"/>
        <pt x="86" y="494" on="0"/>
        <pt x="62" y="502" on="0"/>
        <pt x="47" y="526" on="0"/>
        <pt x="40" y="570" on="0"/>
        <pt x="40" y="606" on="1"/>
        <pt x="40" y="642" on="0"/>
        <pt x="47" y="686" on="0"/>
        <pt x="62" y="710" on="0"/>
        <pt x="86" y="719" on="0"/>
        <pt x="103" y="719" on="1"/>
        <pt x="220" y="719" on="1"/>
        <pt x="220" y="982" on="1"/>
        <pt x="123" y="982" on="1"/>
        <pt x="106" y="982" on="0"/>
        <pt x="82" y="990" on="0"/>
        <pt x="67" y="1012" on="0"/>
        <pt x="60" y="1052" on="0"/>
        <pt x="60" y="1084" on="1"/>
        <pt x="60" y="1116" on="0"/>
        <pt x="67" y="1156" on="0"/>
        <pt x="82" y="1179" on="0"/>
        <pt x="106" y="1187" on="0"/>
        <pt x="123" y="1187" on="1"/>
        <pt x="594" y="1187" on="1"/>
        <pt x="725" y="1187" on="0"/>
        <pt x="933" y="1109" on="0"/>
        <pt x="1078" y="957" on="0"/>
        <pt x="1155" y="736" on="0"/>
        <pt x="1155" y="594" on="1"/>
        <pt x="1155" y="451" on="0"/>
        <pt x="1078" y="230" on="0"/>
        <pt x="933" y="79" on="0"/>
        <pt x="725" y="0" on="0"/>
        <pt x="594" y="0" on="1"/>
        <pt x="123" y="0" on="1"/>
        <pt x="106" y="0" on="0"/>
        <pt x="82" y="8" on="0"/>
        <pt x="67" y="30" on="0"/>
        <pt x="60" y="70" on="0"/>
        <pt x="60" y="102" on="1"/>
        <pt x="60" y="134" on="0"/>
        <pt x="67" y="174" on="0"/>
        <pt x="82" y="197" on="0"/>
        <pt x="106" y="205" on="0"/>
        <pt x="123" y="205" on="1"/>
        <pt x="220" y="205" on="1"/>
      </contour>
      <contour>
        <pt x="574" y="215" on="1"/>
        <pt x="730" y="215" on="0"/>
        <pt x="887" y="407" on="0"/>
        <pt x="887" y="594" on="1"/>
        <pt x="887" y="781" on="0"/>
        <pt x="730" y="972" on="0"/>
        <pt x="574" y="972" on="1"/>
        <pt x="470" y="972" on="1"/>
        <pt x="470" y="719" on="1"/>
        <pt x="605" y="719" on="1"/>
        <pt x="622" y="719" on="0"/>
        <pt x="646" y="710" on="0"/>
        <pt x="661" y="686" on="0"/>
        <pt x="668" y="642" on="0"/>
        <pt x="668" y="606" on="1"/>
        <pt x="668" y="570" on="0"/>
        <pt x="661" y="526" on="0"/>
        <pt x="646" y="502" on="0"/>
        <pt x="622" y="494" on="0"/>
        <pt x="605" y="494" on="1"/>
        <pt x="470" y="494" on="1"/>
        <pt x="470" y="215" on="1"/>
      </contour>
    </TTGlyph>
    <TTGlyph name="Euro" xMin="50" yMin="-22" xMax="1135" yMax="1209">
      <contour>
        <pt x="1081" y="84" on="1"/>
        <pt x="976" y="32" on="0"/>
        <pt x="764" y="-22" on="0"/>
        <pt x="664" y="-22" on="1"/>
        <pt x="488" y="-22" on="0"/>
        <pt x="255" y="166" on="0"/>
        <pt x="206" y="337" on="1"/>
        <pt x="113" y="337" on="1"/>
        <pt x="96" y="337" on="0"/>
        <pt x="72" y="345" on="0"/>
        <pt x="57" y="365" on="0"/>
        <pt x="50" y="401" on="0"/>
        <pt x="50" y="429" on="1"/>
        <pt x="50" y="485" on="0"/>
        <pt x="79" y="522" on="0"/>
        <pt x="113" y="522" on="1"/>
        <pt x="180" y="522" on="1"/>
        <pt x="174" y="592" on="0"/>
        <pt x="180" y="665" on="1"/>
        <pt x="113" y="665" on="1"/>
        <pt x="96" y="665" on="0"/>
        <pt x="72" y="673" on="0"/>
        <pt x="57" y="693" on="0"/>
        <pt x="50" y="729" on="0"/>
        <pt x="50" y="757" on="1"/>
        <pt x="50" y="813" on="0"/>
        <pt x="79" y="850" on="0"/>
        <pt x="113" y="850" on="1"/>
        <pt x="205" y="850" on="1"/>
        <pt x="229" y="935" on="0"/>
        <pt x="310" y="1068" on="0"/>
        <pt x="419" y="1160" on="0"/>
        <pt x="555" y="1209" on="0"/>
        <pt x="634" y="1209" on="1"/>
        <pt x="722" y="1209" on="0"/>
        <pt x="846" y="1142" on="0"/>
        <pt x="884" y="1084" on="1"/>
        <pt x="884" y="1146" on="1"/>
        <pt x="884" y="1180" on="0"/>
        <pt x="942" y="1209" on="0"/>
        <pt x="1006" y="1209" on="1"/>
        <pt x="1038" y="1209" on="0"/>
        <pt x="1080" y="1202" on="0"/>
        <pt x="1104" y="1187" on="0"/>
        <pt x="1114" y="1163" on="0"/>
        <pt x="1114" y="1146" on="1"/>
        <pt x="1114" y="762" on="1"/>
        <pt x="1114" y="728" on="0"/>
        <pt x="1054" y="699" on="0"/>
        <pt x="982" y="699" on="1"/>
        <pt x="946" y="699" on="0"/>
        <pt x="901" y="706" on="0"/>
        <pt x="874" y="721" on="0"/>
        <pt x="864" y="745" on="0"/>
        <pt x="864" y="762" on="1"/>
        <pt x="864" y="810" on="0"/>
        <pt x="837" y="891" on="0"/>
        <pt x="786" y="950" on="0"/>
        <pt x="712" y="982" on="0"/>
        <pt x="664" y="982" on="1"/>
        <pt x="592" y="982" on="0"/>
        <pt x="501" y="915" on="0"/>
        <pt x="476" y="850" on="1"/>
        <pt x="665" y="850" on="1"/>
        <pt x="699" y="850" on="0"/>
        <pt x="728" y="813" on="0"/>
        <pt x="728" y="757" on="1"/>
        <pt x="728" y="729" on="0"/>
        <pt x="721" y="693" on="0"/>
        <pt x="706" y="673" on="0"/>
        <pt x="682" y="665" on="0"/>
        <pt x="665" y="665" on="1"/>
        <pt x="447" y="665" on="1"/>
        <pt x="444" y="630" on="0"/>
        <pt x="444" y="559" on="0"/>
        <pt x="448" y="522" on="1"/>
        <pt x="665" y="522" on="1"/>
        <pt x="699" y="522" on="0"/>
        <pt x="728" y="485" on="0"/>
        <pt x="728" y="429" on="1"/>
        <pt x="728" y="401" on="0"/>
        <pt x="721" y="365" on="0"/>
        <pt x="706" y="345" on="0"/>
        <pt x="682" y="337" on="0"/>
        <pt x="665" y="337" on="1"/>
        <pt x="480" y="337" on="1"/>
        <pt x="507" y="272" on="0"/>
        <pt x="602" y="205" on="0"/>
        <pt x="674" y="205" on="1"/>
        <pt x="759" y="205" on="0"/>
        <pt x="918" y="256" on="0"/>
        <pt x="1005" y="300" on="1"/>
        <pt x="1035" y="315" on="0"/>
        <pt x="1091" y="285" on="0"/>
        <pt x="1113" y="225" on="1"/>
        <pt x="1135" y="164" on="0"/>
        <pt x="1113" y="100" on="0"/>
      </contour>
    </TTGlyph>
    <TTGlyph name="F" xMin="60" yMin="0" xMax="1120" yMax="1187">
      <contour>
        <pt x="250" y="982" on="1"/>
        <pt x="123" y="982" on="1"/>
        <pt x="106" y="982" on="0"/>
        <pt x="82" y="990" on="0"/>
        <pt x="67" y="1012" on="0"/>
        <pt x="60" y="1052" on="0"/>
        <pt x="60" y="1084" on="1"/>
        <pt x="60" y="1116" on="0"/>
        <pt x="67" y="1156" on="0"/>
        <pt x="82" y="1179" on="0"/>
        <pt x="106" y="1187" on="0"/>
        <pt x="123" y="1187" on="1"/>
        <pt x="1055" y="1187" on="1"/>
        <pt x="1090" y="1187" on="0"/>
        <pt x="1120" y="1157" on="0"/>
        <pt x="1120" y="1122" on="1"/>
        <pt x="1120" y="820" on="1"/>
        <pt x="1120" y="786" on="0"/>
        <pt x="1062" y="757" on="0"/>
        <pt x="998" y="757" on="1"/>
        <pt x="966" y="757" on="0"/>
        <pt x="924" y="764" on="0"/>
        <pt x="900" y="779" on="0"/>
        <pt x="890" y="803" on="0"/>
        <pt x="890" y="820" on="1"/>
        <pt x="890" y="972" on="1"/>
        <pt x="500" y="972" on="1"/>
        <pt x="500" y="667" on="1"/>
        <pt x="804" y="667" on="1"/>
        <pt x="821" y="667" on="0"/>
        <pt x="845" y="657" on="0"/>
        <pt x="860" y="633" on="0"/>
        <pt x="867" y="591" on="0"/>
        <pt x="867" y="559" on="1"/>
        <pt x="867" y="527" on="0"/>
        <pt x="860" y="486" on="0"/>
        <pt x="845" y="462" on="0"/>
        <pt x="821" y="452" on="0"/>
        <pt x="804" y="452" on="1"/>
        <pt x="500" y="452" on="1"/>
        <pt x="500" y="205" on="1"/>
        <pt x="717" y="205" on="1"/>
        <pt x="734" y="205" on="0"/>
        <pt x="758" y="197" on="0"/>
        <pt x="773" y="174" on="0"/>
        <pt x="780" y="134" on="0"/>
        <pt x="780" y="102" on="1"/>
        <pt x="780" y="70" on="0"/>
        <pt x="773" y="30" on="0"/>
        <pt x="758" y="8" on="0"/>
        <pt x="734" y="0" on="0"/>
        <pt x="717" y="0" on="1"/>
        <pt x="123" y="0" on="1"/>
        <pt x="106" y="0" on="0"/>
        <pt x="82" y="8" on="0"/>
        <pt x="67" y="30" on="0"/>
        <pt x="60" y="70" on="0"/>
        <pt x="60" y="102" on="1"/>
        <pt x="60" y="134" on="0"/>
        <pt x="67" y="174" on="0"/>
        <pt x="82" y="197" on="0"/>
        <pt x="106" y="205" on="0"/>
        <pt x="123" y="205" on="1"/>
        <pt x="250" y="205" on="1"/>
      </contour>
    </TTGlyph>
    <TTGlyph name="G" xMin="73" yMin="-22" xMax="1188" yMax="1209">
      <contour>
        <pt x="651" y="402" on="1"/>
        <pt x="634" y="402" on="0"/>
        <pt x="610" y="410" on="0"/>
        <pt x="595" y="432" on="0"/>
        <pt x="588" y="472" on="0"/>
        <pt x="588" y="504" on="1"/>
        <pt x="588" y="536" on="0"/>
        <pt x="595" y="576" on="0"/>
        <pt x="610" y="599" on="0"/>
        <pt x="634" y="607" on="0"/>
        <pt x="651" y="607" on="1"/>
        <pt x="1125" y="607" on="1"/>
        <pt x="1142" y="607" on="0"/>
        <pt x="1166" y="599" on="0"/>
        <pt x="1181" y="576" on="0"/>
        <pt x="1188" y="536" on="0"/>
        <pt x="1188" y="504" on="1"/>
        <pt x="1188" y="472" on="0"/>
        <pt x="1181" y="432" on="0"/>
        <pt x="1166" y="410" on="0"/>
        <pt x="1142" y="402" on="0"/>
        <pt x="1125" y="402" on="1"/>
        <pt x="1094" y="402" on="1"/>
        <pt x="1094" y="143" on="1"/>
        <pt x="1094" y="93" on="0"/>
        <pt x="1058" y="74" on="1"/>
        <pt x="963" y="25" on="0"/>
        <pt x="741" y="-22" on="0"/>
        <pt x="624" y="-22" on="1"/>
        <pt x="500" y="-22" on="0"/>
        <pt x="297" y="64" on="0"/>
        <pt x="152" y="223" on="0"/>
        <pt x="73" y="451" on="0"/>
        <pt x="73" y="594" on="1"/>
        <pt x="73" y="736" on="0"/>
        <pt x="151" y="964" on="0"/>
        <pt x="291" y="1124" on="0"/>
        <pt x="481" y="1209" on="0"/>
        <pt x="594" y="1209" on="1"/>
        <pt x="688" y="1209" on="0"/>
        <pt x="815" y="1146" on="0"/>
        <pt x="854" y="1091" on="1"/>
        <pt x="854" y="1146" on="1"/>
        <pt x="854" y="1180" on="0"/>
        <pt x="912" y="1209" on="0"/>
        <pt x="976" y="1209" on="1"/>
        <pt x="1008" y="1209" on="0"/>
        <pt x="1050" y="1202" on="0"/>
        <pt x="1074" y="1187" on="0"/>
        <pt x="1084" y="1163" on="0"/>
        <pt x="1084" y="1146" on="1"/>
        <pt x="1084" y="802" on="1"/>
        <pt x="1084" y="768" on="0"/>
        <pt x="1024" y="739" on="0"/>
        <pt x="952" y="739" on="1"/>
        <pt x="916" y="739" on="0"/>
        <pt x="871" y="746" on="0"/>
        <pt x="844" y="761" on="0"/>
        <pt x="834" y="785" on="0"/>
        <pt x="834" y="802" on="1"/>
        <pt x="834" y="886" on="0"/>
        <pt x="732" y="982" on="0"/>
        <pt x="624" y="982" on="1"/>
        <pt x="483" y="982" on="0"/>
        <pt x="341" y="781" on="0"/>
        <pt x="341" y="594" on="1"/>
        <pt x="341" y="407" on="0"/>
        <pt x="493" y="205" on="0"/>
        <pt x="634" y="205" on="1"/>
        <pt x="745" y="205" on="0"/>
        <pt x="844" y="235" on="1"/>
        <pt x="844" y="402" on="1"/>
      </contour>
    </TTGlyph>
    <TTGlyph name="Gbreve" xMin="73" yMin="-22" xMax="1188" yMax="1655">
      <component glyphName="G" x="0" y="0" flags="0x204"/>
      <component glyphName="breve" x="10" y="270" flags="0x4"/>
    </TTGlyph>
    <TTGlyph name="Gcircumflex" xMin="73" yMin="-22" xMax="1188" yMax="1676">
      <component glyphName="circumflex" x="30" y="270" flags="0x204"/>
      <component glyphName="G" x="0" y="0" flags="0x4"/>
    </TTGlyph>
    <TTGlyph name="Gcommaaccent" xMin="73" yMin="-545" xMax="1188" yMax="1209">
      <component glyphName="G" x="0" y="0" flags="0x204"/>
      <component glyphName="commaaccent" x="0" y="0" flags="0x4"/>
    </TTGlyph>
    <TTGlyph name="Gdotaccent" xMin="73" yMin="-22" xMax="1188" yMax="1676">
      <component glyphName="dotaccent" x="10" y="270" flags="0x204"/>
      <component glyphName="G" x="0" y="0" flags="0x4"/>
    </TTGlyph>
    <TTGlyph name="H" xMin="50" yMin="0" xMax="1178" yMax="1187">
      <contour>
        <pt x="170" y="982" on="1"/>
        <pt x="113" y="982" on="1"/>
        <pt x="96" y="982" on="0"/>
        <pt x="72" y="990" on="0"/>
        <pt x="57" y="1012" on="0"/>
        <pt x="50" y="1052" on="0"/>
        <pt x="50" y="1084" on="1"/>
        <pt x="50" y="1116" on="0"/>
        <pt x="57" y="1156" on="0"/>
        <pt x="72" y="1179" on="0"/>
        <pt x="96" y="1187" on="0"/>
        <pt x="113" y="1187" on="1"/>
        <pt x="487" y="1187" on="1"/>
        <pt x="504" y="1187" on="0"/>
        <pt x="528" y="1179" on="0"/>
        <pt x="543" y="1156" on="0"/>
        <pt x="550" y="1116" on="0"/>
        <pt x="550" y="1084" on="1"/>
        <pt x="550" y="1052" on="0"/>
        <pt x="543" y="1012" on="0"/>
        <pt x="528" y="990" on="0"/>
        <pt x="504" y="982" on="0"/>
        <pt x="487" y="982" on="1"/>
        <pt x="420" y="982" on="1"/>
        <pt x="420" y="719" on="1"/>
        <pt x="808" y="719" on="1"/>
        <pt x="808" y="982" on="1"/>
        <pt x="741" y="982" on="1"/>
        <pt x="724" y="982" on="0"/>
        <pt x="700" y="990" on="0"/>
        <pt x="685" y="1012" on="0"/>
        <pt x="678" y="1052" on="0"/>
        <pt x="678" y="1084" on="1"/>
        <pt x="678" y="1116" on="0"/>
        <pt x="685" y="1156" on="0"/>
        <pt x="700" y="1179" on="0"/>
        <pt x="724" y="1187" on="0"/>
        <pt x="741" y="1187" on="1"/>
        <pt x="1115" y="1187" on="1"/>
        <pt x="1132" y="1187" on="0"/>
        <pt x="1156" y="1179" on="0"/>
        <pt x="1171" y="1156" on="0"/>
        <pt x="1178" y="1116" on="0"/>
        <pt x="1178" y="1084" on="1"/>
        <pt x="1178" y="1052" on="0"/>
        <pt x="1171" y="1012" on="0"/>
        <pt x="1156" y="990" on="0"/>
        <pt x="1132" y="982" on="0"/>
        <pt x="1115" y="982" on="1"/>
        <pt x="1058" y="982" on="1"/>
        <pt x="1058" y="205" on="1"/>
        <pt x="1115" y="205" on="1"/>
        <pt x="1132" y="205" on="0"/>
        <pt x="1156" y="197" on="0"/>
        <pt x="1171" y="174" on="0"/>
        <pt x="1178" y="134" on="0"/>
        <pt x="1178" y="102" on="1"/>
        <pt x="1178" y="70" on="0"/>
        <pt x="1171" y="30" on="0"/>
        <pt x="1156" y="8" on="0"/>
        <pt x="1132" y="0" on="0"/>
        <pt x="1115" y="0" on="1"/>
        <pt x="741" y="0" on="1"/>
        <pt x="724" y="0" on="0"/>
        <pt x="700" y="8" on="0"/>
        <pt x="685" y="30" on="0"/>
        <pt x="678" y="70" on="0"/>
        <pt x="678" y="102" on="1"/>
        <pt x="678" y="134" on="0"/>
        <pt x="685" y="174" on="0"/>
        <pt x="700" y="197" on="0"/>
        <pt x="724" y="205" on="0"/>
        <pt x="741" y="205" on="1"/>
        <pt x="808" y="205" on="1"/>
        <pt x="808" y="504" on="1"/>
        <pt x="420" y="504" on="1"/>
        <pt x="420" y="205" on="1"/>
        <pt x="487" y="205" on="1"/>
        <pt x="504" y="205" on="0"/>
        <pt x="528" y="197" on="0"/>
        <pt x="543" y="174" on="0"/>
        <pt x="550" y="134" on="0"/>
        <pt x="550" y="102" on="1"/>
        <pt x="550" y="70" on="0"/>
        <pt x="543" y="30" on="0"/>
        <pt x="528" y="8" on="0"/>
        <pt x="504" y="0" on="0"/>
        <pt x="487" y="0" on="1"/>
        <pt x="113" y="0" on="1"/>
        <pt x="96" y="0" on="0"/>
        <pt x="72" y="8" on="0"/>
        <pt x="57" y="30" on="0"/>
        <pt x="50" y="70" on="0"/>
        <pt x="50" y="102" on="1"/>
        <pt x="50" y="134" on="0"/>
        <pt x="57" y="174" on="0"/>
        <pt x="72" y="197" on="0"/>
        <pt x="96" y="205" on="0"/>
        <pt x="113" y="205" on="1"/>
        <pt x="170" y="205" on="1"/>
      </contour>
    </TTGlyph>
    <TTGlyph name="Hbar" xMin="30" yMin="0" xMax="1198" yMax="1187">
      <contour>
        <pt x="170" y="768" on="1"/>
        <pt x="93" y="768" on="1"/>
        <pt x="59" y="768" on="0"/>
        <pt x="30" y="798" on="0"/>
        <pt x="30" y="836" on="1"/>
        <pt x="30" y="874" on="0"/>
        <pt x="59" y="904" on="0"/>
        <pt x="93" y="904" on="1"/>
        <pt x="170" y="904" on="1"/>
        <pt x="170" y="982" on="1"/>
        <pt x="113" y="982" on="1"/>
        <pt x="96" y="982" on="0"/>
        <pt x="72" y="990" on="0"/>
        <pt x="57" y="1012" on="0"/>
        <pt x="50" y="1052" on="0"/>
        <pt x="50" y="1084" on="1"/>
        <pt x="50" y="1116" on="0"/>
        <pt x="57" y="1156" on="0"/>
        <pt x="72" y="1179" on="0"/>
        <pt x="96" y="1187" on="0"/>
        <pt x="113" y="1187" on="1"/>
        <pt x="487" y="1187" on="1"/>
        <pt x="504" y="1187" on="0"/>
        <pt x="528" y="1179" on="0"/>
        <pt x="543" y="1156" on="0"/>
        <pt x="550" y="1116" on="0"/>
        <pt x="550" y="1084" on="1"/>
        <pt x="550" y="1052" on="0"/>
        <pt x="543" y="1012" on="0"/>
        <pt x="528" y="990" on="0"/>
        <pt x="504" y="982" on="0"/>
        <pt x="487" y="982" on="1"/>
        <pt x="420" y="982" on="1"/>
        <pt x="420" y="904" on="1"/>
        <pt x="808" y="904" on="1"/>
        <pt x="808" y="982" on="1"/>
        <pt x="741" y="982" on="1"/>
        <pt x="724" y="982" on="0"/>
        <pt x="700" y="990" on="0"/>
        <pt x="685" y="1012" on="0"/>
        <pt x="678" y="1052" on="0"/>
        <pt x="678" y="1084" on="1"/>
        <pt x="678" y="1116" on="0"/>
        <pt x="685" y="1156" on="0"/>
        <pt x="700" y="1179" on="0"/>
        <pt x="724" y="1187" on="0"/>
        <pt x="741" y="1187" on="1"/>
        <pt x="1115" y="1187" on="1"/>
        <pt x="1132" y="1187" on="0"/>
        <pt x="1156" y="1179" on="0"/>
        <pt x="1171" y="1156" on="0"/>
        <pt x="1178" y="1116" on="0"/>
        <pt x="1178" y="1084" on="1"/>
        <pt x="1178" y="1052" on="0"/>
        <pt x="1171" y="1012" on="0"/>
        <pt x="1156" y="990" on="0"/>
        <pt x="1132" y="982" on="0"/>
        <pt x="1115" y="982" on="1"/>
        <pt x="1058" y="982" on="1"/>
        <pt x="1058" y="904" on="1"/>
        <pt x="1135" y="904" on="1"/>
        <pt x="1169" y="904" on="0"/>
        <pt x="1198" y="874" on="0"/>
        <pt x="1198" y="836" on="1"/>
        <pt x="1198" y="798" on="0"/>
        <pt x="1169" y="768" on="0"/>
        <pt x="1135" y="768" on="1"/>
        <pt x="1058" y="768" on="1"/>
        <pt x="1058" y="205" on="1"/>
        <pt x="1115" y="205" on="1"/>
        <pt x="1132" y="205" on="0"/>
        <pt x="1156" y="197" on="0"/>
        <pt x="1171" y="174" on="0"/>
        <pt x="1178" y="134" on="0"/>
        <pt x="1178" y="102" on="1"/>
        <pt x="1178" y="70" on="0"/>
        <pt x="1171" y="30" on="0"/>
        <pt x="1156" y="8" on="0"/>
        <pt x="1132" y="0" on="0"/>
        <pt x="1115" y="0" on="1"/>
        <pt x="741" y="0" on="1"/>
        <pt x="724" y="0" on="0"/>
        <pt x="700" y="8" on="0"/>
        <pt x="685" y="30" on="0"/>
        <pt x="678" y="70" on="0"/>
        <pt x="678" y="102" on="1"/>
        <pt x="678" y="134" on="0"/>
        <pt x="685" y="174" on="0"/>
        <pt x="700" y="197" on="0"/>
        <pt x="724" y="205" on="0"/>
        <pt x="741" y="205" on="1"/>
        <pt x="808" y="205" on="1"/>
        <pt x="808" y="464" on="1"/>
        <pt x="420" y="464" on="1"/>
        <pt x="420" y="205" on="1"/>
        <pt x="487" y="205" on="1"/>
        <pt x="504" y="205" on="0"/>
        <pt x="528" y="197" on="0"/>
        <pt x="543" y="174" on="0"/>
        <pt x="550" y="134" on="0"/>
        <pt x="550" y="102" on="1"/>
        <pt x="550" y="70" on="0"/>
        <pt x="543" y="30" on="0"/>
        <pt x="528" y="8" on="0"/>
        <pt x="504" y="0" on="0"/>
        <pt x="487" y="0" on="1"/>
        <pt x="113" y="0" on="1"/>
        <pt x="96" y="0" on="0"/>
        <pt x="72" y="8" on="0"/>
        <pt x="57" y="30" on="0"/>
        <pt x="50" y="70" on="0"/>
        <pt x="50" y="102" on="1"/>
        <pt x="50" y="134" on="0"/>
        <pt x="57" y="174" on="0"/>
        <pt x="72" y="197" on="0"/>
        <pt x="96" y="205" on="0"/>
        <pt x="113" y="205" on="1"/>
        <pt x="170" y="205" on="1"/>
      </contour>
      <contour>
        <pt x="808" y="679" on="1"/>
        <pt x="808" y="768" on="1"/>
        <pt x="420" y="768" on="1"/>
        <pt x="420" y="679" on="1"/>
      </contour>
    </TTGlyph>
    <TTGlyph name="Hcircumflex" xMin="50" yMin="0" xMax="1178" yMax="1676">
      <component glyphName="H" x="0" y="0" flags="0x204"/>
      <component glyphName="circumflex" x="0" y="270" flags="0x4"/>
    </TTGlyph>
    <TTGlyph name="I" xMin="170" yMin="0" xMax="1058" yMax="1187">
      <contour>
        <pt x="489" y="982" on="1"/>
        <pt x="253" y="982" on="1"/>
        <pt x="236" y="982" on="0"/>
        <pt x="212" y="990" on="0"/>
        <pt x="197" y="1012" on="0"/>
        <pt x="190" y="1052" on="0"/>
        <pt x="190" y="1084" on="1"/>
        <pt x="190" y="1116" on="0"/>
        <pt x="197" y="1156" on="0"/>
        <pt x="212" y="1179" on="0"/>
        <pt x="236" y="1187" on="0"/>
        <pt x="253" y="1187" on="1"/>
        <pt x="975" y="1187" on="1"/>
        <pt x="992" y="1187" on="0"/>
        <pt x="1016" y="1179" on="0"/>
        <pt x="1031" y="1156" on="0"/>
        <pt x="1038" y="1116" on="0"/>
        <pt x="1038" y="1084" on="1"/>
        <pt x="1038" y="1052" on="0"/>
        <pt x="1031" y="1012" on="0"/>
        <pt x="1016" y="990" on="0"/>
        <pt x="992" y="982" on="0"/>
        <pt x="975" y="982" on="1"/>
        <pt x="739" y="982" on="1"/>
        <pt x="739" y="205" on="1"/>
        <pt x="995" y="205" on="1"/>
        <pt x="1012" y="205" on="0"/>
        <pt x="1036" y="197" on="0"/>
        <pt x="1051" y="174" on="0"/>
        <pt x="1058" y="134" on="0"/>
        <pt x="1058" y="102" on="1"/>
        <pt x="1058" y="70" on="0"/>
        <pt x="1051" y="30" on="0"/>
        <pt x="1036" y="8" on="0"/>
        <pt x="1012" y="0" on="0"/>
        <pt x="995" y="0" on="1"/>
        <pt x="233" y="0" on="1"/>
        <pt x="216" y="0" on="0"/>
        <pt x="192" y="8" on="0"/>
        <pt x="177" y="30" on="0"/>
        <pt x="170" y="70" on="0"/>
        <pt x="170" y="102" on="1"/>
        <pt x="170" y="134" on="0"/>
        <pt x="177" y="174" on="0"/>
        <pt x="192" y="197" on="0"/>
        <pt x="216" y="205" on="0"/>
        <pt x="233" y="205" on="1"/>
        <pt x="489" y="205" on="1"/>
      </contour>
    </TTGlyph>
    <TTGlyph name="IJ" xMin="-30" yMin="-22" xMax="1248" yMax="1187">
      <contour>
        <pt x="739" y="222" on="1"/>
        <pt x="757" y="214" on="0"/>
        <pt x="792" y="205" on="0"/>
        <pt x="815" y="205" on="1"/>
        <pt x="856" y="205" on="0"/>
        <pt x="889" y="257" on="0"/>
        <pt x="889" y="313" on="1"/>
        <pt x="889" y="982" on="1"/>
        <pt x="733" y="982" on="1"/>
        <pt x="716" y="982" on="0"/>
        <pt x="692" y="990" on="0"/>
        <pt x="677" y="1012" on="0"/>
        <pt x="670" y="1052" on="0"/>
        <pt x="670" y="1084" on="1"/>
        <pt x="670" y="1116" on="0"/>
        <pt x="677" y="1156" on="0"/>
        <pt x="692" y="1179" on="0"/>
        <pt x="716" y="1187" on="0"/>
        <pt x="733" y="1187" on="1"/>
        <pt x="1185" y="1187" on="1"/>
        <pt x="1202" y="1187" on="0"/>
        <pt x="1226" y="1179" on="0"/>
        <pt x="1241" y="1156" on="0"/>
        <pt x="1248" y="1116" on="0"/>
        <pt x="1248" y="1084" on="1"/>
        <pt x="1248" y="1052" on="0"/>
        <pt x="1241" y="1012" on="0"/>
        <pt x="1226" y="990" on="0"/>
        <pt x="1202" y="982" on="0"/>
        <pt x="1185" y="982" on="1"/>
        <pt x="1139" y="982" on="1"/>
        <pt x="1139" y="293" on="1"/>
        <pt x="1139" y="134" on="0"/>
        <pt x="981" y="-22" on="0"/>
        <pt x="818" y="-22" on="1"/>
        <pt x="780" y="-22" on="0"/>
        <pt x="700" y="-11" on="0"/>
        <pt x="622" y="10" on="0"/>
        <pt x="549" y="40" on="0"/>
        <pt x="518" y="59" on="1"/>
        <pt x="499" y="71" on="0"/>
        <pt x="499" y="108" on="1"/>
        <pt x="499" y="435" on="1"/>
        <pt x="499" y="469" on="0"/>
        <pt x="557" y="498" on="0"/>
        <pt x="625" y="498" on="1"/>
        <pt x="659" y="498" on="0"/>
        <pt x="703" y="491" on="0"/>
        <pt x="729" y="476" on="0"/>
        <pt x="739" y="452" on="0"/>
        <pt x="739" y="435" on="1"/>
      </contour>
      <contour>
        <pt x="89" y="982" on="1"/>
        <pt x="43" y="982" on="1"/>
        <pt x="26" y="982" on="0"/>
        <pt x="2" y="990" on="0"/>
        <pt x="-13" y="1012" on="0"/>
        <pt x="-20" y="1052" on="0"/>
        <pt x="-20" y="1084" on="1"/>
        <pt x="-20" y="1116" on="0"/>
        <pt x="-13" y="1156" on="0"/>
        <pt x="2" y="1179" on="0"/>
        <pt x="26" y="1187" on="0"/>
        <pt x="43" y="1187" on="1"/>
        <pt x="385" y="1187" on="1"/>
        <pt x="402" y="1187" on="0"/>
        <pt x="426" y="1179" on="0"/>
        <pt x="441" y="1156" on="0"/>
        <pt x="448" y="1116" on="0"/>
        <pt x="448" y="1084" on="1"/>
        <pt x="448" y="1052" on="0"/>
        <pt x="441" y="1012" on="0"/>
        <pt x="426" y="990" on="0"/>
        <pt x="402" y="982" on="0"/>
        <pt x="385" y="982" on="1"/>
        <pt x="339" y="982" on="1"/>
        <pt x="339" y="205" on="1"/>
        <pt x="395" y="205" on="1"/>
        <pt x="412" y="205" on="0"/>
        <pt x="436" y="197" on="0"/>
        <pt x="451" y="174" on="0"/>
        <pt x="458" y="134" on="0"/>
        <pt x="458" y="102" on="1"/>
        <pt x="458" y="70" on="0"/>
        <pt x="451" y="30" on="0"/>
        <pt x="436" y="8" on="0"/>
        <pt x="412" y="0" on="0"/>
        <pt x="395" y="0" on="1"/>
        <pt x="33" y="0" on="1"/>
        <pt x="16" y="0" on="0"/>
        <pt x="-8" y="8" on="0"/>
        <pt x="-23" y="30" on="0"/>
        <pt x="-30" y="70" on="0"/>
        <pt x="-30" y="102" on="1"/>
        <pt x="-30" y="134" on="0"/>
        <pt x="-23" y="174" on="0"/>
        <pt x="-8" y="197" on="0"/>
        <pt x="16" y="205" on="0"/>
        <pt x="33" y="205" on="1"/>
        <pt x="89" y="205" on="1"/>
      </contour>
    </TTGlyph>
    <TTGlyph name="Iacute" xMin="170" yMin="0" xMax="1058" yMax="1678">
      <component glyphName="I" x="0" y="0" flags="0x204"/>
      <component glyphName="acute" x="-2" y="270" flags="0x4"/>
    </TTGlyph>
    <TTGlyph name="Ibreve" xMin="170" yMin="0" xMax="1058" yMax="1655">
      <component glyphName="I" x="0" y="0" flags="0x204"/>
      <component glyphName="breve" x="0" y="270" flags="0x4"/>
    </TTGlyph>
    <TTGlyph name="Icircumflex" xMin="170" yMin="0" xMax="1058" yMax="1676">
      <component glyphName="I" x="0" y="0" flags="0x204"/>
      <component glyphName="circumflex" x="0" y="270" flags="0x4"/>
    </TTGlyph>
    <TTGlyph name="Idieresis" xMin="170" yMin="0" xMax="1058" yMax="1615">
      <component glyphName="I" x="0" y="0" flags="0x204"/>
      <component glyphName="dieresis" x="0" y="270" flags="0x4"/>
    </TTGlyph>
    <TTGlyph name="Idotaccent" xMin="170" yMin="0" xMax="1058" yMax="1676">
      <component glyphName="I" x="0" y="0" flags="0x204"/>
      <component glyphName="dotaccent" x="0" y="270" flags="0x4"/>
    </TTGlyph>
    <TTGlyph name="Igrave" xMin="170" yMin="0" xMax="1058" yMax="1678">
      <component glyphName="I" x="0" y="0" flags="0x204"/>
      <component glyphName="grave" x="22" y="270" flags="0x4"/>
    </TTGlyph>
    <TTGlyph name="Imacron" xMin="170" yMin="0" xMax="1058" yMax="1545">
      <component glyphName="I" x="0" y="0" flags="0x204"/>
      <component glyphName="macron" x="0" y="270" flags="0x4"/>
    </TTGlyph>
    <TTGlyph name="Iogonek" xMin="170" yMin="-472" xMax="1058" yMax="1187">
      <contour>
        <pt x="489" y="982" on="1"/>
        <pt x="253" y="982" on="1"/>
        <pt x="236" y="982" on="0"/>
        <pt x="212" y="990" on="0"/>
        <pt x="197" y="1012" on="0"/>
        <pt x="190" y="1052" on="0"/>
        <pt x="190" y="1084" on="1"/>
        <pt x="190" y="1116" on="0"/>
        <pt x="197" y="1156" on="0"/>
        <pt x="212" y="1179" on="0"/>
        <pt x="236" y="1187" on="0"/>
        <pt x="253" y="1187" on="1"/>
        <pt x="975" y="1187" on="1"/>
        <pt x="992" y="1187" on="0"/>
        <pt x="1016" y="1179" on="0"/>
        <pt x="1031" y="1156" on="0"/>
        <pt x="1038" y="1116" on="0"/>
        <pt x="1038" y="1084" on="1"/>
        <pt x="1038" y="1052" on="0"/>
        <pt x="1031" y="1012" on="0"/>
        <pt x="1016" y="990" on="0"/>
        <pt x="992" y="982" on="0"/>
        <pt x="975" y="982" on="1"/>
        <pt x="739" y="982" on="1"/>
        <pt x="739" y="205" on="1"/>
        <pt x="995" y="205" on="1"/>
        <pt x="1012" y="205" on="0"/>
        <pt x="1036" y="197" on="0"/>
        <pt x="1051" y="174" on="0"/>
        <pt x="1058" y="134" on="0"/>
        <pt x="1058" y="102" on="1"/>
        <pt x="1058" y="70" on="0"/>
        <pt x="1051" y="30" on="0"/>
        <pt x="1036" y="8" on="0"/>
        <pt x="1012" y="0" on="0"/>
        <pt x="995" y="0" on="1"/>
        <pt x="721" y="0" on="1"/>
        <pt x="647" y="-63" on="0"/>
        <pt x="562" y="-180" on="0"/>
        <pt x="562" y="-231" on="1"/>
        <pt x="562" y="-266" on="0"/>
        <pt x="607" y="-298" on="0"/>
        <pt x="650" y="-298" on="1"/>
        <pt x="679" y="-298" on="0"/>
        <pt x="738" y="-290" on="0"/>
        <pt x="770" y="-285" on="1"/>
        <pt x="790" y="-282" on="0"/>
        <pt x="815" y="-318" on="0"/>
        <pt x="818" y="-353" on="1"/>
        <pt x="824" y="-424" on="0"/>
        <pt x="781" y="-438" on="1"/>
        <pt x="730" y="-454" on="0"/>
        <pt x="620" y="-472" on="0"/>
        <pt x="565" y="-472" on="1"/>
        <pt x="447" y="-472" on="0"/>
        <pt x="319" y="-369" on="0"/>
        <pt x="319" y="-269" on="1"/>
        <pt x="319" y="-226" on="0"/>
        <pt x="347" y="-151" on="0"/>
        <pt x="396" y="-85" on="0"/>
        <pt x="464" y="-27" on="0"/>
        <pt x="504" y="0" on="1"/>
        <pt x="233" y="0" on="1"/>
        <pt x="216" y="0" on="0"/>
        <pt x="192" y="8" on="0"/>
        <pt x="177" y="30" on="0"/>
        <pt x="170" y="70" on="0"/>
        <pt x="170" y="102" on="1"/>
        <pt x="170" y="134" on="0"/>
        <pt x="177" y="174" on="0"/>
        <pt x="192" y="197" on="0"/>
        <pt x="216" y="205" on="0"/>
        <pt x="233" y="205" on="1"/>
        <pt x="489" y="205" on="1"/>
      </contour>
    </TTGlyph>
    <TTGlyph name="Itilde" xMin="170" yMin="0" xMax="1058" yMax="1584">
      <component glyphName="tilde" x="0" y="260" flags="0x204"/>
      <component glyphName="I" x="0" y="0" flags="0x4"/>
    </TTGlyph>
    <TTGlyph name="J" xMin="99" yMin="-22" xMax="1178" yMax="1187">
      <contour>
        <pt x="373" y="982" on="1"/>
        <pt x="356" y="982" on="0"/>
        <pt x="332" y="990" on="0"/>
        <pt x="317" y="1012" on="0"/>
        <pt x="310" y="1052" on="0"/>
        <pt x="310" y="1084" on="1"/>
        <pt x="310" y="1116" on="0"/>
        <pt x="317" y="1156" on="0"/>
        <pt x="332" y="1179" on="0"/>
        <pt x="356" y="1187" on="0"/>
        <pt x="373" y="1187" on="1"/>
        <pt x="1115" y="1187" on="1"/>
        <pt x="1132" y="1187" on="0"/>
        <pt x="1156" y="1179" on="0"/>
        <pt x="1171" y="1156" on="0"/>
        <pt x="1178" y="1116" on="0"/>
        <pt x="1178" y="1084" on="1"/>
        <pt x="1178" y="1052" on="0"/>
        <pt x="1171" y="1012" on="0"/>
        <pt x="1156" y="990" on="0"/>
        <pt x="1132" y="982" on="0"/>
        <pt x="1115" y="982" on="1"/>
        <pt x="929" y="982" on="1"/>
        <pt x="929" y="363" on="1"/>
        <pt x="929" y="169" on="0"/>
        <pt x="712" y="-22" on="0"/>
        <pt x="504" y="-22" on="1"/>
        <pt x="269" y="-22" on="0"/>
        <pt x="115" y="125" on="1"/>
        <pt x="99" y="141" on="0"/>
        <pt x="99" y="175" on="1"/>
        <pt x="99" y="499" on="1"/>
        <pt x="99" y="533" on="0"/>
        <pt x="159" y="562" on="0"/>
        <pt x="231" y="562" on="1"/>
        <pt x="267" y="562" on="0"/>
        <pt x="312" y="555" on="0"/>
        <pt x="339" y="540" on="0"/>
        <pt x="349" y="516" on="0"/>
        <pt x="349" y="499" on="1"/>
        <pt x="349" y="239" on="1"/>
        <pt x="418" y="205" on="0"/>
        <pt x="515" y="205" on="1"/>
        <pt x="596" y="205" on="0"/>
        <pt x="679" y="290" on="0"/>
        <pt x="679" y="383" on="1"/>
        <pt x="679" y="982" on="1"/>
      </contour>
    </TTGlyph>
    <TTGlyph name="Jcircumflex" xMin="99" yMin="-22" xMax="1178" yMax="1676">
      <component glyphName="circumflex" x="160" y="270" flags="0x204"/>
      <component glyphName="J" x="0" y="0" flags="0x4"/>
    </TTGlyph>
    <TTGlyph name="K" xMin="50" yMin="0" xMax="1228" yMax="1187">
      <contour>
        <pt x="220" y="982" on="1"/>
        <pt x="113" y="982" on="1"/>
        <pt x="96" y="982" on="0"/>
        <pt x="72" y="990" on="0"/>
        <pt x="57" y="1012" on="0"/>
        <pt x="50" y="1052" on="0"/>
        <pt x="50" y="1084" on="1"/>
        <pt x="50" y="1116" on="0"/>
        <pt x="57" y="1156" on="0"/>
        <pt x="72" y="1179" on="0"/>
        <pt x="96" y="1187" on="0"/>
        <pt x="113" y="1187" on="1"/>
        <pt x="517" y="1187" on="1"/>
        <pt x="534" y="1187" on="0"/>
        <pt x="558" y="1179" on="0"/>
        <pt x="573" y="1156" on="0"/>
        <pt x="580" y="1116" on="0"/>
        <pt x="580" y="1084" on="1"/>
        <pt x="580" y="1052" on="0"/>
        <pt x="573" y="1012" on="0"/>
        <pt x="558" y="990" on="0"/>
        <pt x="534" y="982" on="0"/>
        <pt x="517" y="982" on="1"/>
        <pt x="470" y="982" on="1"/>
        <pt x="470" y="662" on="1"/>
        <pt x="794" y="982" on="1"/>
        <pt x="741" y="982" on="1"/>
        <pt x="724" y="982" on="0"/>
        <pt x="700" y="990" on="0"/>
        <pt x="685" y="1012" on="0"/>
        <pt x="678" y="1052" on="0"/>
        <pt x="678" y="1084" on="1"/>
        <pt x="678" y="1116" on="0"/>
        <pt x="685" y="1156" on="0"/>
        <pt x="700" y="1179" on="0"/>
        <pt x="724" y="1187" on="0"/>
        <pt x="741" y="1187" on="1"/>
        <pt x="1130" y="1187" on="1"/>
        <pt x="1147" y="1187" on="0"/>
        <pt x="1171" y="1179" on="0"/>
        <pt x="1186" y="1156" on="0"/>
        <pt x="1193" y="1116" on="0"/>
        <pt x="1193" y="1084" on="1"/>
        <pt x="1193" y="1052" on="0"/>
        <pt x="1186" y="1012" on="0"/>
        <pt x="1171" y="990" on="0"/>
        <pt x="1147" y="982" on="0"/>
        <pt x="1130" y="982" on="1"/>
        <pt x="1087" y="982" on="1"/>
        <pt x="737" y="641" on="1"/>
        <pt x="794" y="638" on="0"/>
        <pt x="886" y="583" on="0"/>
        <pt x="919" y="535" on="1"/>
        <pt x="941" y="504" on="0"/>
        <pt x="976" y="438" on="0"/>
        <pt x="1008" y="372" on="0"/>
        <pt x="1038" y="309" on="0"/>
        <pt x="1054" y="282" on="1"/>
        <pt x="1074" y="247" on="0"/>
        <pt x="1123" y="205" on="0"/>
        <pt x="1155" y="205" on="1"/>
        <pt x="1165" y="205" on="1"/>
        <pt x="1182" y="205" on="0"/>
        <pt x="1206" y="197" on="0"/>
        <pt x="1221" y="174" on="0"/>
        <pt x="1228" y="134" on="0"/>
        <pt x="1228" y="102" on="1"/>
        <pt x="1228" y="70" on="0"/>
        <pt x="1221" y="30" on="0"/>
        <pt x="1206" y="8" on="0"/>
        <pt x="1182" y="0" on="0"/>
        <pt x="1165" y="0" on="1"/>
        <pt x="1026" y="0" on="1"/>
        <pt x="993" y="0" on="0"/>
        <pt x="939" y="23" on="0"/>
        <pt x="895" y="62" on="0"/>
        <pt x="859" y="113" on="0"/>
        <pt x="844" y="142" on="1"/>
        <pt x="828" y="172" on="0"/>
        <pt x="799" y="236" on="0"/>
        <pt x="769" y="299" on="0"/>
        <pt x="740" y="357" on="0"/>
        <pt x="724" y="381" on="1"/>
        <pt x="698" y="419" on="0"/>
        <pt x="635" y="465" on="0"/>
        <pt x="600" y="465" on="1"/>
        <pt x="556" y="465" on="0"/>
        <pt x="521" y="431" on="1"/>
        <pt x="470" y="381" on="1"/>
        <pt x="470" y="205" on="1"/>
        <pt x="585" y="205" on="1"/>
        <pt x="602" y="205" on="0"/>
        <pt x="626" y="197" on="0"/>
        <pt x="641" y="174" on="0"/>
        <pt x="648" y="134" on="0"/>
        <pt x="648" y="102" on="1"/>
        <pt x="648" y="70" on="0"/>
        <pt x="641" y="30" on="0"/>
        <pt x="626" y="8" on="0"/>
        <pt x="602" y="0" on="0"/>
        <pt x="585" y="0" on="1"/>
        <pt x="113" y="0" on="1"/>
        <pt x="96" y="0" on="0"/>
        <pt x="72" y="8" on="0"/>
        <pt x="57" y="30" on="0"/>
        <pt x="50" y="70" on="0"/>
        <pt x="50" y="102" on="1"/>
        <pt x="50" y="134" on="0"/>
        <pt x="57" y="174" on="0"/>
        <pt x="72" y="197" on="0"/>
        <pt x="96" y="205" on="0"/>
        <pt x="113" y="205" on="1"/>
        <pt x="220" y="205" on="1"/>
      </contour>
    </TTGlyph>
    <TTGlyph name="Kcommaaccent" xMin="50" yMin="-545" xMax="1228" yMax="1187">
      <component glyphName="K" x="0" y="0" flags="0x204"/>
      <component glyphName="commaaccent" x="20" y="0" flags="0x4"/>
    </TTGlyph>
    <TTGlyph name="L" xMin="60" yMin="0" xMax="1120" yMax="1187">
      <contour>
        <pt x="269" y="982" on="1"/>
        <pt x="123" y="982" on="1"/>
        <pt x="106" y="982" on="0"/>
        <pt x="82" y="990" on="0"/>
        <pt x="67" y="1012" on="0"/>
        <pt x="60" y="1052" on="0"/>
        <pt x="60" y="1084" on="1"/>
        <pt x="60" y="1116" on="0"/>
        <pt x="67" y="1156" on="0"/>
        <pt x="82" y="1179" on="0"/>
        <pt x="106" y="1187" on="0"/>
        <pt x="123" y="1187" on="1"/>
        <pt x="737" y="1187" on="1"/>
        <pt x="754" y="1187" on="0"/>
        <pt x="778" y="1179" on="0"/>
        <pt x="793" y="1156" on="0"/>
        <pt x="800" y="1116" on="0"/>
        <pt x="800" y="1084" on="1"/>
        <pt x="800" y="1052" on="0"/>
        <pt x="793" y="1012" on="0"/>
        <pt x="778" y="990" on="0"/>
        <pt x="754" y="982" on="0"/>
        <pt x="737" y="982" on="1"/>
        <pt x="519" y="982" on="1"/>
        <pt x="519" y="215" on="1"/>
        <pt x="870" y="215" on="1"/>
        <pt x="870" y="527" on="1"/>
        <pt x="870" y="561" on="0"/>
        <pt x="930" y="590" on="0"/>
        <pt x="1002" y="590" on="1"/>
        <pt x="1038" y="590" on="0"/>
        <pt x="1083" y="583" on="0"/>
        <pt x="1110" y="568" on="0"/>
        <pt x="1120" y="544" on="0"/>
        <pt x="1120" y="527" on="1"/>
        <pt x="1120" y="65" on="1"/>
        <pt x="1120" y="30" on="0"/>
        <pt x="1090" y="0" on="0"/>
        <pt x="1055" y="0" on="1"/>
        <pt x="123" y="0" on="1"/>
        <pt x="106" y="0" on="0"/>
        <pt x="82" y="8" on="0"/>
        <pt x="67" y="30" on="0"/>
        <pt x="60" y="70" on="0"/>
        <pt x="60" y="102" on="1"/>
        <pt x="60" y="134" on="0"/>
        <pt x="67" y="174" on="0"/>
        <pt x="82" y="197" on="0"/>
        <pt x="106" y="205" on="0"/>
        <pt x="123" y="205" on="1"/>
        <pt x="269" y="205" on="1"/>
      </contour>
    </TTGlyph>
    <TTGlyph name="Lacute" xMin="60" yMin="0" xMax="1120" yMax="1678">
      <component glyphName="acute" x="-202" y="270" flags="0x204"/>
      <component glyphName="L" x="0" y="0" flags="0x4"/>
    </TTGlyph>
    <TTGlyph name="Lcaron" xMin="60" yMin="0" xMax="1232" yMax="1208">
      <component glyphName="quoteright" x="530" y="208" scalex="0.827" scaley="0.82776" flags="0x4"/>
      <component glyphName="L" x="0" y="0" flags="0x4"/>
    </TTGlyph>
    <TTGlyph name="Lcommaaccent" xMin="60" yMin="-545" xMax="1120" yMax="1187">
      <component glyphName="L" x="0" y="0" flags="0x204"/>
      <component glyphName="commaaccent" x="0" y="0" flags="0x4"/>
    </TTGlyph>
    <TTGlyph name="Ldot" xMin="60" yMin="0" xMax="1120" yMax="1187">
      <contour>
        <pt x="269" y="982" on="1"/>
        <pt x="123" y="982" on="1"/>
        <pt x="106" y="982" on="0"/>
        <pt x="82" y="990" on="0"/>
        <pt x="67" y="1012" on="0"/>
        <pt x="60" y="1052" on="0"/>
        <pt x="60" y="1084" on="1"/>
        <pt x="60" y="1116" on="0"/>
        <pt x="67" y="1156" on="0"/>
        <pt x="82" y="1179" on="0"/>
        <pt x="106" y="1187" on="0"/>
        <pt x="123" y="1187" on="1"/>
        <pt x="737" y="1187" on="1"/>
        <pt x="754" y="1187" on="0"/>
        <pt x="778" y="1179" on="0"/>
        <pt x="793" y="1156" on="0"/>
        <pt x="800" y="1116" on="0"/>
        <pt x="800" y="1084" on="1"/>
        <pt x="800" y="1052" on="0"/>
        <pt x="793" y="1012" on="0"/>
        <pt x="778" y="990" on="0"/>
        <pt x="754" y="982" on="0"/>
        <pt x="737" y="982" on="1"/>
        <pt x="519" y="982" on="1"/>
        <pt x="519" y="215" on="1"/>
        <pt x="870" y="215" on="1"/>
        <pt x="870" y="397" on="1"/>
        <pt x="870" y="431" on="0"/>
        <pt x="930" y="460" on="0"/>
        <pt x="1002" y="460" on="1"/>
        <pt x="1038" y="460" on="0"/>
        <pt x="1083" y="453" on="0"/>
        <pt x="1110" y="438" on="0"/>
        <pt x="1120" y="414" on="0"/>
        <pt x="1120" y="397" on="1"/>
        <pt x="1120" y="65" on="1"/>
        <pt x="1120" y="30" on="0"/>
        <pt x="1090" y="0" on="0"/>
        <pt x="1055" y="0" on="1"/>
        <pt x="123" y="0" on="1"/>
        <pt x="106" y="0" on="0"/>
        <pt x="82" y="8" on="0"/>
        <pt x="67" y="30" on="0"/>
        <pt x="60" y="70" on="0"/>
        <pt x="60" y="102" on="1"/>
        <pt x="60" y="134" on="0"/>
        <pt x="67" y="174" on="0"/>
        <pt x="82" y="197" on="0"/>
        <pt x="106" y="205" on="0"/>
        <pt x="123" y="205" on="1"/>
        <pt x="269" y="205" on="1"/>
      </contour>
      <contour>
        <pt x="634" y="716" on="1"/>
        <pt x="634" y="753" on="0"/>
        <pt x="662" y="819" on="0"/>
        <pt x="711" y="868" on="0"/>
        <pt x="777" y="896" on="0"/>
        <pt x="814" y="896" on="1"/>
        <pt x="851" y="896" on="0"/>
        <pt x="917" y="868" on="0"/>
        <pt x="966" y="819" on="0"/>
        <pt x="994" y="753" on="0"/>
        <pt x="994" y="716" on="1"/>
        <pt x="994" y="679" on="0"/>
        <pt x="966" y="613" on="0"/>
        <pt x="917" y="564" on="0"/>
        <pt x="851" y="536" on="0"/>
        <pt x="814" y="536" on="1"/>
        <pt x="777" y="536" on="0"/>
        <pt x="711" y="564" on="0"/>
        <pt x="662" y="613" on="0"/>
        <pt x="634" y="679" on="0"/>
      </contour>
    </TTGlyph>
    <TTGlyph name="Lslash" xMin="2" yMin="0" xMax="1120" yMax="1187">
      <contour>
        <pt x="269" y="388" on="1"/>
        <pt x="139" y="311" on="1"/>
        <pt x="125" y="302" on="0"/>
        <pt x="100" y="297" on="0"/>
        <pt x="76" y="308" on="0"/>
        <pt x="49" y="339" on="0"/>
        <pt x="33" y="366" on="1"/>
        <pt x="17" y="393" on="0"/>
        <pt x="2" y="432" on="0"/>
        <pt x="4" y="459" on="0"/>
        <pt x="20" y="478" on="0"/>
        <pt x="35" y="487" on="1"/>
        <pt x="269" y="626" on="1"/>
        <pt x="269" y="982" on="1"/>
        <pt x="123" y="982" on="1"/>
        <pt x="106" y="982" on="0"/>
        <pt x="82" y="990" on="0"/>
        <pt x="67" y="1012" on="0"/>
        <pt x="60" y="1052" on="0"/>
        <pt x="60" y="1084" on="1"/>
        <pt x="60" y="1116" on="0"/>
        <pt x="67" y="1156" on="0"/>
        <pt x="82" y="1179" on="0"/>
        <pt x="106" y="1187" on="0"/>
        <pt x="123" y="1187" on="1"/>
        <pt x="737" y="1187" on="1"/>
        <pt x="754" y="1187" on="0"/>
        <pt x="778" y="1179" on="0"/>
        <pt x="793" y="1156" on="0"/>
        <pt x="800" y="1116" on="0"/>
        <pt x="800" y="1084" on="1"/>
        <pt x="800" y="1052" on="0"/>
        <pt x="793" y="1012" on="0"/>
        <pt x="778" y="990" on="0"/>
        <pt x="754" y="982" on="0"/>
        <pt x="737" y="982" on="1"/>
        <pt x="519" y="982" on="1"/>
        <pt x="519" y="774" on="1"/>
        <pt x="690" y="876" on="1"/>
        <pt x="705" y="885" on="0"/>
        <pt x="729" y="890" on="0"/>
        <pt x="754" y="878" on="0"/>
        <pt x="780" y="847" on="0"/>
        <pt x="797" y="820" on="1"/>
        <pt x="813" y="793" on="0"/>
        <pt x="827" y="755" on="0"/>
        <pt x="826" y="728" on="0"/>
        <pt x="809" y="709" on="0"/>
        <pt x="795" y="700" on="1"/>
        <pt x="519" y="536" on="1"/>
        <pt x="519" y="215" on="1"/>
        <pt x="870" y="215" on="1"/>
        <pt x="870" y="527" on="1"/>
        <pt x="870" y="561" on="0"/>
        <pt x="930" y="590" on="0"/>
        <pt x="1002" y="590" on="1"/>
        <pt x="1038" y="590" on="0"/>
        <pt x="1083" y="583" on="0"/>
        <pt x="1110" y="568" on="0"/>
        <pt x="1120" y="544" on="0"/>
        <pt x="1120" y="527" on="1"/>
        <pt x="1120" y="65" on="1"/>
        <pt x="1120" y="30" on="0"/>
        <pt x="1090" y="0" on="0"/>
        <pt x="1055" y="0" on="1"/>
        <pt x="123" y="0" on="1"/>
        <pt x="106" y="0" on="0"/>
        <pt x="82" y="8" on="0"/>
        <pt x="67" y="30" on="0"/>
        <pt x="60" y="70" on="0"/>
        <pt x="60" y="102" on="1"/>
        <pt x="60" y="134" on="0"/>
        <pt x="67" y="174" on="0"/>
        <pt x="82" y="197" on="0"/>
        <pt x="106" y="205" on="0"/>
        <pt x="123" y="205" on="1"/>
        <pt x="269" y="205" on="1"/>
      </contour>
    </TTGlyph>
    <TTGlyph name="M" xMin="10" yMin="0" xMax="1218" yMax="1187">
      <contour>
        <pt x="147" y="982" on="1"/>
        <pt x="93" y="982" on="1"/>
        <pt x="76" y="982" on="0"/>
        <pt x="52" y="990" on="0"/>
        <pt x="37" y="1012" on="0"/>
        <pt x="30" y="1052" on="0"/>
        <pt x="30" y="1084" on="1"/>
        <pt x="30" y="1116" on="0"/>
        <pt x="37" y="1156" on="0"/>
        <pt x="52" y="1179" on="0"/>
        <pt x="76" y="1187" on="0"/>
        <pt x="93" y="1187" on="1"/>
        <pt x="377" y="1187" on="1"/>
        <pt x="397" y="1187" on="0"/>
        <pt x="424" y="1174" on="0"/>
        <pt x="431" y="1156" on="1"/>
        <pt x="614" y="665" on="1"/>
        <pt x="796" y="1156" on="1"/>
        <pt x="803" y="1174" on="0"/>
        <pt x="830" y="1187" on="0"/>
        <pt x="850" y="1187" on="1"/>
        <pt x="1135" y="1187" on="1"/>
        <pt x="1152" y="1187" on="0"/>
        <pt x="1176" y="1179" on="0"/>
        <pt x="1191" y="1156" on="0"/>
        <pt x="1198" y="1116" on="0"/>
        <pt x="1198" y="1084" on="1"/>
        <pt x="1198" y="1052" on="0"/>
        <pt x="1191" y="1012" on="0"/>
        <pt x="1176" y="990" on="0"/>
        <pt x="1152" y="982" on="0"/>
        <pt x="1135" y="982" on="1"/>
        <pt x="1081" y="982" on="1"/>
        <pt x="1095" y="205" on="1"/>
        <pt x="1155" y="205" on="1"/>
        <pt x="1172" y="205" on="0"/>
        <pt x="1196" y="197" on="0"/>
        <pt x="1211" y="174" on="0"/>
        <pt x="1218" y="134" on="0"/>
        <pt x="1218" y="102" on="1"/>
        <pt x="1218" y="70" on="0"/>
        <pt x="1211" y="30" on="0"/>
        <pt x="1196" y="8" on="0"/>
        <pt x="1172" y="0" on="0"/>
        <pt x="1155" y="0" on="1"/>
        <pt x="781" y="0" on="1"/>
        <pt x="764" y="0" on="0"/>
        <pt x="740" y="8" on="0"/>
        <pt x="725" y="30" on="0"/>
        <pt x="718" y="70" on="0"/>
        <pt x="718" y="102" on="1"/>
        <pt x="718" y="134" on="0"/>
        <pt x="725" y="174" on="0"/>
        <pt x="740" y="197" on="0"/>
        <pt x="764" y="205" on="0"/>
        <pt x="781" y="205" on="1"/>
        <pt x="873" y="205" on="1"/>
        <pt x="867" y="797" on="1"/>
        <pt x="716" y="389" on="1"/>
        <pt x="703" y="354" on="0"/>
        <pt x="658" y="325" on="0"/>
        <pt x="615" y="325" on="1"/>
        <pt x="572" y="325" on="0"/>
        <pt x="526" y="354" on="0"/>
        <pt x="512" y="389" on="1"/>
        <pt x="360" y="794" on="1"/>
        <pt x="354" y="205" on="1"/>
        <pt x="447" y="205" on="1"/>
        <pt x="464" y="205" on="0"/>
        <pt x="488" y="197" on="0"/>
        <pt x="503" y="174" on="0"/>
        <pt x="510" y="134" on="0"/>
        <pt x="510" y="102" on="1"/>
        <pt x="510" y="70" on="0"/>
        <pt x="503" y="30" on="0"/>
        <pt x="488" y="8" on="0"/>
        <pt x="464" y="0" on="0"/>
        <pt x="447" y="0" on="1"/>
        <pt x="73" y="0" on="1"/>
        <pt x="56" y="0" on="0"/>
        <pt x="32" y="8" on="0"/>
        <pt x="17" y="30" on="0"/>
        <pt x="10" y="70" on="0"/>
        <pt x="10" y="102" on="1"/>
        <pt x="10" y="134" on="0"/>
        <pt x="17" y="174" on="0"/>
        <pt x="32" y="197" on="0"/>
        <pt x="56" y="205" on="0"/>
        <pt x="73" y="205" on="1"/>
        <pt x="132" y="205" on="1"/>
      </contour>
    </TTGlyph>
    <TTGlyph name="N" xMin="50" yMin="-22" xMax="1198" yMax="1187">
      <contour>
        <pt x="180" y="982" on="1"/>
        <pt x="113" y="982" on="1"/>
        <pt x="96" y="982" on="0"/>
        <pt x="72" y="990" on="0"/>
        <pt x="57" y="1012" on="0"/>
        <pt x="50" y="1052" on="0"/>
        <pt x="50" y="1084" on="1"/>
        <pt x="50" y="1116" on="0"/>
        <pt x="57" y="1156" on="0"/>
        <pt x="72" y="1179" on="0"/>
        <pt x="96" y="1187" on="0"/>
        <pt x="113" y="1187" on="1"/>
        <pt x="377" y="1187" on="1"/>
        <pt x="396" y="1187" on="0"/>
        <pt x="424" y="1175" on="0"/>
        <pt x="433" y="1160" on="1"/>
        <pt x="848" y="473" on="1"/>
        <pt x="848" y="982" on="1"/>
        <pt x="760" y="982" on="1"/>
        <pt x="743" y="982" on="0"/>
        <pt x="719" y="990" on="0"/>
        <pt x="704" y="1012" on="0"/>
        <pt x="697" y="1052" on="0"/>
        <pt x="697" y="1084" on="1"/>
        <pt x="697" y="1116" on="0"/>
        <pt x="704" y="1156" on="0"/>
        <pt x="719" y="1179" on="0"/>
        <pt x="743" y="1187" on="0"/>
        <pt x="760" y="1187" on="1"/>
        <pt x="1135" y="1187" on="1"/>
        <pt x="1152" y="1187" on="0"/>
        <pt x="1176" y="1179" on="0"/>
        <pt x="1191" y="1156" on="0"/>
        <pt x="1198" y="1116" on="0"/>
        <pt x="1198" y="1084" on="1"/>
        <pt x="1198" y="1052" on="0"/>
        <pt x="1191" y="1012" on="0"/>
        <pt x="1176" y="990" on="0"/>
        <pt x="1152" y="982" on="0"/>
        <pt x="1135" y="982" on="1"/>
        <pt x="1078" y="982" on="1"/>
        <pt x="1078" y="44" on="1"/>
        <pt x="1078" y="12" on="0"/>
        <pt x="1031" y="-22" on="0"/>
        <pt x="968" y="-22" on="1"/>
        <pt x="944" y="-22" on="0"/>
        <pt x="910" y="-15" on="0"/>
        <pt x="885" y="-2" on="0"/>
        <pt x="868" y="18" on="0"/>
        <pt x="860" y="31" on="1"/>
        <pt x="410" y="776" on="1"/>
        <pt x="410" y="205" on="1"/>
        <pt x="517" y="205" on="1"/>
        <pt x="534" y="205" on="0"/>
        <pt x="558" y="197" on="0"/>
        <pt x="573" y="174" on="0"/>
        <pt x="580" y="134" on="0"/>
        <pt x="580" y="102" on="1"/>
        <pt x="580" y="70" on="0"/>
        <pt x="573" y="30" on="0"/>
        <pt x="558" y="8" on="0"/>
        <pt x="534" y="0" on="0"/>
        <pt x="517" y="0" on="1"/>
        <pt x="113" y="0" on="1"/>
        <pt x="96" y="0" on="0"/>
        <pt x="72" y="8" on="0"/>
        <pt x="57" y="30" on="0"/>
        <pt x="50" y="70" on="0"/>
        <pt x="50" y="102" on="1"/>
        <pt x="50" y="134" on="0"/>
        <pt x="57" y="174" on="0"/>
        <pt x="72" y="197" on="0"/>
        <pt x="96" y="205" on="0"/>
        <pt x="113" y="205" on="1"/>
        <pt x="180" y="205" on="1"/>
      </contour>
    </TTGlyph>
    <TTGlyph name="Nacute" xMin="50" yMin="-22" xMax="1198" yMax="1678">
      <component glyphName="acute" x="-2" y="270" flags="0x204"/>
      <component glyphName="N" x="0" y="0" flags="0x4"/>
    </TTGlyph>
    <TTGlyph name="Ncaron" xMin="50" yMin="-22" xMax="1198" yMax="1653">
      <component glyphName="N" x="0" y="0" flags="0x204"/>
      <component glyphName="caron" x="0" y="260" flags="0x4"/>
    </TTGlyph>
    <TTGlyph name="Ncommaaccent" xMin="50" yMin="-545" xMax="1198" yMax="1187">
      <component glyphName="N" x="0" y="0" flags="0x204"/>
      <component glyphName="commaaccent" x="0" y="0" flags="0x4"/>
    </TTGlyph>
    <TTGlyph name="Ntilde" xMin="50" yMin="-22" xMax="1198" yMax="1584">
      <component glyphName="N" x="0" y="0" flags="0x204"/>
      <component glyphName="tilde" x="0" y="260" flags="0x4"/>
    </TTGlyph>
    <TTGlyph name="O" xMin="63" yMin="-22" xMax="1165" yMax="1209">
      <contour>
        <pt x="614" y="982" on="1"/>
        <pt x="473" y="982" on="0"/>
        <pt x="331" y="781" on="0"/>
        <pt x="331" y="594" on="1"/>
        <pt x="331" y="407" on="0"/>
        <pt x="473" y="205" on="0"/>
        <pt x="614" y="205" on="1"/>
        <pt x="755" y="205" on="0"/>
        <pt x="897" y="407" on="0"/>
        <pt x="897" y="594" on="1"/>
        <pt x="897" y="781" on="0"/>
        <pt x="755" y="982" on="0"/>
      </contour>
      <contour>
        <pt x="614" y="1209" on="1"/>
        <pt x="738" y="1209" on="0"/>
        <pt x="941" y="1124" on="0"/>
        <pt x="1086" y="964" on="0"/>
        <pt x="1165" y="736" on="0"/>
        <pt x="1165" y="594" on="1"/>
        <pt x="1165" y="451" on="0"/>
        <pt x="1086" y="223" on="0"/>
        <pt x="941" y="64" on="0"/>
        <pt x="738" y="-22" on="0"/>
        <pt x="614" y="-22" on="1"/>
        <pt x="490" y="-22" on="0"/>
        <pt x="287" y="64" on="0"/>
        <pt x="142" y="223" on="0"/>
        <pt x="63" y="451" on="0"/>
        <pt x="63" y="594" on="1"/>
        <pt x="63" y="736" on="0"/>
        <pt x="142" y="964" on="0"/>
        <pt x="287" y="1124" on="0"/>
        <pt x="490" y="1209" on="0"/>
      </contour>
    </TTGlyph>
    <TTGlyph name="OE" xMin="63" yMin="0" xMax="1170" yMax="1187">
      <contour>
        <pt x="1085" y="1187" on="1"/>
        <pt x="1120" y="1187" on="0"/>
        <pt x="1150" y="1157" on="0"/>
        <pt x="1150" y="1122" on="1"/>
        <pt x="1150" y="850" on="1"/>
        <pt x="1150" y="816" on="0"/>
        <pt x="1098" y="787" on="0"/>
        <pt x="1038" y="787" on="1"/>
        <pt x="1008" y="787" on="0"/>
        <pt x="970" y="794" on="0"/>
        <pt x="948" y="809" on="0"/>
        <pt x="940" y="833" on="0"/>
        <pt x="940" y="850" on="1"/>
        <pt x="940" y="982" on="1"/>
        <pt x="770" y="982" on="1"/>
        <pt x="770" y="729" on="1"/>
        <pt x="884" y="729" on="1"/>
        <pt x="901" y="729" on="0"/>
        <pt x="925" y="719" on="0"/>
        <pt x="940" y="695" on="0"/>
        <pt x="947" y="653" on="0"/>
        <pt x="947" y="621" on="1"/>
        <pt x="947" y="589" on="0"/>
        <pt x="940" y="548" on="0"/>
        <pt x="925" y="524" on="0"/>
        <pt x="901" y="514" on="0"/>
        <pt x="884" y="514" on="1"/>
        <pt x="770" y="514" on="1"/>
        <pt x="770" y="205" on="1"/>
        <pt x="950" y="205" on="1"/>
        <pt x="950" y="387" on="1"/>
        <pt x="950" y="421" on="0"/>
        <pt x="1002" y="450" on="0"/>
        <pt x="1066" y="450" on="1"/>
        <pt x="1098" y="450" on="0"/>
        <pt x="1138" y="443" on="0"/>
        <pt x="1161" y="428" on="0"/>
        <pt x="1170" y="404" on="0"/>
        <pt x="1170" y="387" on="1"/>
        <pt x="1170" y="65" on="1"/>
        <pt x="1170" y="30" on="0"/>
        <pt x="1140" y="0" on="0"/>
        <pt x="1105" y="0" on="1"/>
        <pt x="594" y="0" on="1"/>
        <pt x="470" y="0" on="0"/>
        <pt x="273" y="79" on="0"/>
        <pt x="136" y="230" on="0"/>
        <pt x="63" y="451" on="0"/>
        <pt x="63" y="594" on="1"/>
        <pt x="63" y="736" on="0"/>
        <pt x="136" y="957" on="0"/>
        <pt x="273" y="1109" on="0"/>
        <pt x="470" y="1187" on="0"/>
        <pt x="594" y="1187" on="1"/>
      </contour>
      <contour>
        <pt x="540" y="972" on="1"/>
        <pt x="489" y="968" on="0"/>
        <pt x="402" y="918" on="0"/>
        <pt x="339" y="824" on="0"/>
        <pt x="303" y="686" on="0"/>
        <pt x="303" y="594" on="1"/>
        <pt x="303" y="502" on="0"/>
        <pt x="339" y="363" on="0"/>
        <pt x="402" y="269" on="0"/>
        <pt x="489" y="219" on="0"/>
        <pt x="540" y="215" on="1"/>
      </contour>
    </TTGlyph>
    <TTGlyph name="Oacute" xMin="63" yMin="-22" xMax="1165" yMax="1678">
      <component glyphName="O" x="0" y="0" flags="0x204"/>
      <component glyphName="acute" x="-22" y="270" flags="0x4"/>
    </TTGlyph>
    <TTGlyph name="Obreve" xMin="63" yMin="-22" xMax="1165" yMax="1655">
      <component glyphName="O" x="0" y="0" flags="0x204"/>
      <component glyphName="breve" x="0" y="270" flags="0x4"/>
    </TTGlyph>
    <TTGlyph name="Ocircumflex" xMin="63" yMin="-22" xMax="1165" yMax="1676">
      <component glyphName="O" x="0" y="0" flags="0x204"/>
      <component glyphName="circumflex" x="0" y="270" flags="0x4"/>
    </TTGlyph>
    <TTGlyph name="Odieresis" xMin="63" yMin="-22" xMax="1165" yMax="1615">
      <component glyphName="O" x="0" y="0" flags="0x204"/>
      <component glyphName="dieresis" x="0" y="270" flags="0x4"/>
    </TTGlyph>
    <TTGlyph name="Ograve" xMin="63" yMin="-22" xMax="1165" yMax="1678">
      <component glyphName="O" x="0" y="0" flags="0x204"/>
      <component glyphName="grave" x="22" y="270" flags="0x4"/>
    </TTGlyph>
    <TTGlyph name="Ohungarumlaut" xMin="63" yMin="-22" xMax="1165" yMax="1653">
      <component glyphName="O" x="0" y="0" flags="0x204"/>
      <component glyphName="hungarumlaut" x="0" y="270" flags="0x4"/>
    </TTGlyph>
    <TTGlyph name="Omacron" xMin="63" yMin="-22" xMax="1165" yMax="1545">
      <component glyphName="O" x="0" y="0" flags="0x204"/>
      <component glyphName="macron" x="0" y="270" flags="0x4"/>
    </TTGlyph>
    <TTGlyph name="Oslash" xMin="63" yMin="-22" xMax="1165" yMax="1209">
      <contour>
        <pt x="614" y="1209" on="1"/>
        <pt x="691" y="1209" on="0"/>
        <pt x="827" y="1176" on="0"/>
        <pt x="886" y="1144" on="1"/>
        <pt x="911" y="1180" on="1"/>
        <pt x="921" y="1194" on="0"/>
        <pt x="941" y="1209" on="0"/>
        <pt x="966" y="1209" on="0"/>
        <pt x="1000" y="1194" on="0"/>
        <pt x="1023" y="1178" on="1"/>
        <pt x="1069" y="1146" on="0"/>
        <pt x="1083" y="1101" on="0"/>
        <pt x="1063" y="1073" on="1"/>
        <pt x="1029" y="1025" on="1"/>
        <pt x="1095" y="945" on="0"/>
        <pt x="1165" y="729" on="0"/>
        <pt x="1165" y="594" on="1"/>
        <pt x="1165" y="451" on="0"/>
        <pt x="1086" y="223" on="0"/>
        <pt x="941" y="64" on="0"/>
        <pt x="738" y="-22" on="0"/>
        <pt x="614" y="-22" on="1"/>
        <pt x="462" y="-22" on="0"/>
        <pt x="343" y="42" on="1"/>
        <pt x="318" y="7" on="1"/>
        <pt x="308" y="-7" on="0"/>
        <pt x="288" y="-22" on="0"/>
        <pt x="262" y="-22" on="0"/>
        <pt x="229" y="-7" on="0"/>
        <pt x="206" y="9" on="1"/>
        <pt x="183" y="25" on="0"/>
        <pt x="157" y="52" on="0"/>
        <pt x="148" y="76" on="0"/>
        <pt x="155" y="100" on="0"/>
        <pt x="165" y="114" on="1"/>
        <pt x="198" y="162" on="1"/>
        <pt x="133" y="241" on="0"/>
        <pt x="63" y="458" on="0"/>
        <pt x="63" y="594" on="1"/>
        <pt x="63" y="736" on="0"/>
        <pt x="142" y="964" on="0"/>
        <pt x="287" y="1124" on="0"/>
        <pt x="490" y="1209" on="0"/>
      </contour>
      <contour>
        <pt x="614" y="982" on="1"/>
        <pt x="473" y="982" on="0"/>
        <pt x="331" y="781" on="0"/>
        <pt x="331" y="594" on="1"/>
        <pt x="331" y="475" on="0"/>
        <pt x="359" y="392" on="1"/>
        <pt x="750" y="949" on="1"/>
        <pt x="693" y="982" on="0"/>
      </contour>
      <contour>
        <pt x="897" y="594" on="1"/>
        <pt x="897" y="710" on="0"/>
        <pt x="868" y="795" on="1"/>
        <pt x="479" y="237" on="1"/>
        <pt x="537" y="205" on="0"/>
        <pt x="614" y="205" on="1"/>
        <pt x="755" y="205" on="0"/>
        <pt x="897" y="407" on="0"/>
      </contour>
    </TTGlyph>
    <TTGlyph name="Otilde" xMin="63" yMin="-22" xMax="1165" yMax="1584">
      <component glyphName="O" x="0" y="0" flags="0x204"/>
      <component glyphName="tilde" x="0" y="260" flags="0x4"/>
    </TTGlyph>
    <TTGlyph name="P" xMin="60" yMin="0" xMax="1137" yMax="1187">
      <contour>
        <pt x="270" y="982" on="1"/>
        <pt x="123" y="982" on="1"/>
        <pt x="106" y="982" on="0"/>
        <pt x="82" y="990" on="0"/>
        <pt x="67" y="1012" on="0"/>
        <pt x="60" y="1052" on="0"/>
        <pt x="60" y="1084" on="1"/>
        <pt x="60" y="1116" on="0"/>
        <pt x="67" y="1156" on="0"/>
        <pt x="82" y="1179" on="0"/>
        <pt x="106" y="1187" on="0"/>
        <pt x="123" y="1187" on="1"/>
        <pt x="670" y="1187" on="1"/>
        <pt x="902" y="1187" on="0"/>
        <pt x="1137" y="978" on="0"/>
        <pt x="1137" y="785" on="1"/>
        <pt x="1137" y="592" on="0"/>
        <pt x="902" y="382" on="0"/>
        <pt x="670" y="382" on="1"/>
        <pt x="520" y="382" on="1"/>
        <pt x="520" y="205" on="1"/>
        <pt x="737" y="205" on="1"/>
        <pt x="754" y="205" on="0"/>
        <pt x="778" y="197" on="0"/>
        <pt x="793" y="174" on="0"/>
        <pt x="800" y="134" on="0"/>
        <pt x="800" y="102" on="1"/>
        <pt x="800" y="70" on="0"/>
        <pt x="793" y="30" on="0"/>
        <pt x="778" y="8" on="0"/>
        <pt x="754" y="0" on="0"/>
        <pt x="737" y="0" on="1"/>
        <pt x="123" y="0" on="1"/>
        <pt x="106" y="0" on="0"/>
        <pt x="82" y="8" on="0"/>
        <pt x="67" y="30" on="0"/>
        <pt x="60" y="70" on="0"/>
        <pt x="60" y="102" on="1"/>
        <pt x="60" y="134" on="0"/>
        <pt x="67" y="174" on="0"/>
        <pt x="82" y="197" on="0"/>
        <pt x="106" y="205" on="0"/>
        <pt x="123" y="205" on="1"/>
        <pt x="270" y="205" on="1"/>
      </contour>
      <contour>
        <pt x="639" y="597" on="1"/>
        <pt x="757" y="597" on="0"/>
        <pt x="879" y="688" on="0"/>
        <pt x="879" y="785" on="1"/>
        <pt x="879" y="882" on="0"/>
        <pt x="757" y="972" on="0"/>
        <pt x="639" y="972" on="1"/>
        <pt x="520" y="972" on="1"/>
        <pt x="520" y="597" on="1"/>
      </contour>
    </TTGlyph>
    <TTGlyph name="Q" xMin="63" yMin="-290" xMax="1165" yMax="1209">
      <contour>
        <pt x="614" y="982" on="1"/>
        <pt x="544" y="982" on="0"/>
        <pt x="438" y="935" on="0"/>
        <pt x="367" y="845" on="0"/>
        <pt x="331" y="716" on="0"/>
        <pt x="331" y="634" on="1"/>
        <pt x="331" y="552" on="0"/>
        <pt x="367" y="423" on="0"/>
        <pt x="438" y="333" on="0"/>
        <pt x="544" y="285" on="0"/>
        <pt x="614" y="285" on="1"/>
        <pt x="684" y="285" on="0"/>
        <pt x="790" y="333" on="0"/>
        <pt x="861" y="423" on="0"/>
        <pt x="897" y="552" on="0"/>
        <pt x="897" y="634" on="1"/>
        <pt x="897" y="716" on="0"/>
        <pt x="861" y="845" on="0"/>
        <pt x="790" y="935" on="0"/>
        <pt x="684" y="982" on="0"/>
      </contour>
      <contour>
        <pt x="390" y="98" on="1"/>
        <pt x="314" y="128" on="0"/>
        <pt x="193" y="229" on="0"/>
        <pt x="108" y="366" on="0"/>
        <pt x="63" y="535" on="0"/>
        <pt x="63" y="634" on="1"/>
        <pt x="63" y="765" on="0"/>
        <pt x="142" y="978" on="0"/>
        <pt x="287" y="1128" on="0"/>
        <pt x="490" y="1209" on="0"/>
        <pt x="614" y="1209" on="1"/>
        <pt x="738" y="1209" on="0"/>
        <pt x="941" y="1128" on="0"/>
        <pt x="1086" y="978" on="0"/>
        <pt x="1165" y="765" on="0"/>
        <pt x="1165" y="634" on="1"/>
        <pt x="1165" y="503" on="0"/>
        <pt x="1086" y="290" on="0"/>
        <pt x="941" y="140" on="0"/>
        <pt x="738" y="58" on="0"/>
        <pt x="614" y="58" on="1"/>
        <pt x="601" y="58" on="0"/>
        <pt x="577" y="59" on="0"/>
        <pt x="569" y="60" on="1"/>
        <pt x="463" y="-46" on="1"/>
        <pt x="508" y="-29" on="0"/>
        <pt x="584" y="-17" on="0"/>
        <pt x="619" y="-17" on="1"/>
        <pt x="653" y="-17" on="0"/>
        <pt x="716" y="-26" on="0"/>
        <pt x="775" y="-37" on="0"/>
        <pt x="833" y="-46" on="0"/>
        <pt x="863" y="-46" on="1"/>
        <pt x="898" y="-46" on="0"/>
        <pt x="972" y="-29" on="0"/>
        <pt x="1016" y="-6" on="1"/>
        <pt x="1045" y="9" on="0"/>
        <pt x="1102" y="-28" on="0"/>
        <pt x="1121" y="-67" on="1"/>
        <pt x="1141" y="-109" on="0"/>
        <pt x="1137" y="-180" on="0"/>
        <pt x="1105" y="-204" on="1"/>
        <pt x="1045" y="-249" on="0"/>
        <pt x="936" y="-281" on="0"/>
        <pt x="882" y="-281" on="1"/>
        <pt x="840" y="-281" on="0"/>
        <pt x="756" y="-267" on="0"/>
        <pt x="669" y="-251" on="0"/>
        <pt x="576" y="-237" on="0"/>
        <pt x="526" y="-237" on="1"/>
        <pt x="477" y="-237" on="0"/>
        <pt x="361" y="-257" on="0"/>
        <pt x="297" y="-284" on="1"/>
        <pt x="282" y="-290" on="0"/>
        <pt x="250" y="-276" on="0"/>
        <pt x="220" y="-245" on="0"/>
        <pt x="195" y="-202" on="0"/>
        <pt x="184" y="-158" on="0"/>
        <pt x="188" y="-116" on="0"/>
        <pt x="202" y="-102" on="1"/>
      </contour>
    </TTGlyph>
    <TTGlyph name="R" xMin="60" yMin="0" xMax="1228" yMax="1187">
      <contour>
        <pt x="230" y="982" on="1"/>
        <pt x="123" y="982" on="1"/>
        <pt x="106" y="982" on="0"/>
        <pt x="82" y="990" on="0"/>
        <pt x="67" y="1012" on="0"/>
        <pt x="60" y="1052" on="0"/>
        <pt x="60" y="1084" on="1"/>
        <pt x="60" y="1116" on="0"/>
        <pt x="67" y="1156" on="0"/>
        <pt x="82" y="1179" on="0"/>
        <pt x="106" y="1187" on="0"/>
        <pt x="123" y="1187" on="1"/>
        <pt x="650" y="1187" on="1"/>
        <pt x="861" y="1187" on="0"/>
        <pt x="1087" y="1003" on="0"/>
        <pt x="1087" y="824" on="1"/>
        <pt x="1087" y="704" on="0"/>
        <pt x="965" y="562" on="0"/>
        <pt x="849" y="533" on="1"/>
        <pt x="872" y="522" on="0"/>
        <pt x="911" y="493" on="0"/>
        <pt x="928" y="476" on="1"/>
        <pt x="950" y="453" on="0"/>
        <pt x="986" y="399" on="0"/>
        <pt x="1016" y="345" on="0"/>
        <pt x="1043" y="293" on="0"/>
        <pt x="1057" y="271" on="1"/>
        <pt x="1076" y="242" on="0"/>
        <pt x="1118" y="205" on="0"/>
        <pt x="1146" y="205" on="1"/>
        <pt x="1165" y="205" on="1"/>
        <pt x="1182" y="205" on="0"/>
        <pt x="1206" y="197" on="0"/>
        <pt x="1221" y="174" on="0"/>
        <pt x="1228" y="134" on="0"/>
        <pt x="1228" y="102" on="1"/>
        <pt x="1228" y="70" on="0"/>
        <pt x="1221" y="30" on="0"/>
        <pt x="1206" y="8" on="0"/>
        <pt x="1182" y="0" on="0"/>
        <pt x="1165" y="0" on="1"/>
        <pt x="1058" y="0" on="1"/>
        <pt x="992" y="0" on="0"/>
        <pt x="895" y="67" on="0"/>
        <pt x="851" y="139" on="1"/>
        <pt x="819" y="192" on="0"/>
        <pt x="766" y="310" on="0"/>
        <pt x="728" y="364" on="1"/>
        <pt x="710" y="390" on="0"/>
        <pt x="669" y="427" on="0"/>
        <pt x="620" y="450" on="0"/>
        <pt x="558" y="461" on="0"/>
        <pt x="518" y="461" on="1"/>
        <pt x="480" y="461" on="1"/>
        <pt x="480" y="205" on="1"/>
        <pt x="597" y="205" on="1"/>
        <pt x="614" y="205" on="0"/>
        <pt x="638" y="197" on="0"/>
        <pt x="653" y="174" on="0"/>
        <pt x="660" y="134" on="0"/>
        <pt x="660" y="102" on="1"/>
        <pt x="660" y="70" on="0"/>
        <pt x="653" y="30" on="0"/>
        <pt x="638" y="8" on="0"/>
        <pt x="614" y="0" on="0"/>
        <pt x="597" y="0" on="1"/>
        <pt x="123" y="0" on="1"/>
        <pt x="106" y="0" on="0"/>
        <pt x="82" y="8" on="0"/>
        <pt x="67" y="30" on="0"/>
        <pt x="60" y="70" on="0"/>
        <pt x="60" y="102" on="1"/>
        <pt x="60" y="134" on="0"/>
        <pt x="67" y="174" on="0"/>
        <pt x="82" y="197" on="0"/>
        <pt x="106" y="205" on="0"/>
        <pt x="123" y="205" on="1"/>
        <pt x="230" y="205" on="1"/>
      </contour>
      <contour>
        <pt x="629" y="676" on="1"/>
        <pt x="732" y="676" on="0"/>
        <pt x="829" y="749" on="0"/>
        <pt x="829" y="824" on="1"/>
        <pt x="829" y="899" on="0"/>
        <pt x="732" y="972" on="0"/>
        <pt x="629" y="972" on="1"/>
        <pt x="480" y="972" on="1"/>
        <pt x="480" y="676" on="1"/>
      </contour>
    </TTGlyph>
    <TTGlyph name="Racute" xMin="60" yMin="0" xMax="1228" yMax="1678">
      <component glyphName="acute" x="-22" y="270" flags="0x204"/>
      <component glyphName="R" x="0" y="0" flags="0x4"/>
    </TTGlyph>
    <TTGlyph name="Rcaron" xMin="60" yMin="0" xMax="1228" yMax="1653">
      <component glyphName="R" x="0" y="0" flags="0x204"/>
      <component glyphName="caron" x="-20" y="260" flags="0x4"/>
    </TTGlyph>
    <TTGlyph name="Rcommaaccent" xMin="60" yMin="-545" xMax="1228" yMax="1187">
      <component glyphName="R" x="0" y="0" flags="0x204"/>
      <component glyphName="commaaccent" x="0" y="0" flags="0x4"/>
    </TTGlyph>
    <TTGlyph name="S" xMin="149" yMin="-22" xMax="1087" yMax="1209">
      <contour>
        <pt x="389" y="41" on="1"/>
        <pt x="389" y="7" on="0"/>
        <pt x="341" y="-22" on="0"/>
        <pt x="277" y="-22" on="1"/>
        <pt x="213" y="-22" on="0"/>
        <pt x="159" y="7" on="0"/>
        <pt x="159" y="41" on="1"/>
        <pt x="159" y="375" on="1"/>
        <pt x="159" y="409" on="0"/>
        <pt x="202" y="438" on="0"/>
        <pt x="251" y="438" on="1"/>
        <pt x="286" y="438" on="0"/>
        <pt x="327" y="420" on="0"/>
        <pt x="338" y="398" on="1"/>
        <pt x="392" y="296" on="0"/>
        <pt x="540" y="191" on="0"/>
        <pt x="642" y="191" on="1"/>
        <pt x="732" y="191" on="0"/>
        <pt x="822" y="264" on="0"/>
        <pt x="822" y="327" on="1"/>
        <pt x="822" y="369" on="0"/>
        <pt x="779" y="423" on="0"/>
        <pt x="742" y="441" on="1"/>
        <pt x="702" y="460" on="0"/>
        <pt x="596" y="485" on="0"/>
        <pt x="480" y="509" on="0"/>
        <pt x="362" y="540" on="0"/>
        <pt x="311" y="567" on="1"/>
        <pt x="276" y="585" on="0"/>
        <pt x="217" y="635" on="0"/>
        <pt x="173" y="702" on="0"/>
        <pt x="149" y="790" on="0"/>
        <pt x="149" y="846" on="1"/>
        <pt x="149" y="926" on="0"/>
        <pt x="205" y="1059" on="0"/>
        <pt x="308" y="1155" on="0"/>
        <pt x="451" y="1209" on="0"/>
        <pt x="538" y="1209" on="1"/>
        <pt x="619" y="1209" on="0"/>
        <pt x="754" y="1157" on="0"/>
        <pt x="804" y="1109" on="1"/>
        <pt x="804" y="1146" on="1"/>
        <pt x="804" y="1180" on="0"/>
        <pt x="852" y="1209" on="0"/>
        <pt x="916" y="1209" on="1"/>
        <pt x="980" y="1209" on="0"/>
        <pt x="1034" y="1180" on="0"/>
        <pt x="1034" y="1146" on="1"/>
        <pt x="1034" y="872" on="1"/>
        <pt x="1034" y="838" on="0"/>
        <pt x="991" y="809" on="0"/>
        <pt x="942" y="809" on="1"/>
        <pt x="908" y="809" on="0"/>
        <pt x="871" y="825" on="0"/>
        <pt x="860" y="841" on="1"/>
        <pt x="814" y="913" on="0"/>
        <pt x="668" y="996" on="0"/>
        <pt x="568" y="996" on="1"/>
        <pt x="493" y="996" on="0"/>
        <pt x="412" y="920" on="0"/>
        <pt x="412" y="863" on="1"/>
        <pt x="412" y="833" on="0"/>
        <pt x="450" y="796" on="0"/>
        <pt x="482" y="783" on="1"/>
        <pt x="521" y="768" on="0"/>
        <pt x="630" y="749" on="0"/>
        <pt x="751" y="725" on="0"/>
        <pt x="874" y="689" on="0"/>
        <pt x="927" y="657" on="1"/>
        <pt x="961" y="636" on="0"/>
        <pt x="1020" y="579" on="0"/>
        <pt x="1063" y="503" on="0"/>
        <pt x="1087" y="405" on="0"/>
        <pt x="1087" y="344" on="1"/>
        <pt x="1087" y="263" on="0"/>
        <pt x="1036" y="128" on="0"/>
        <pt x="932" y="32" on="0"/>
        <pt x="777" y="-22" on="0"/>
        <pt x="672" y="-22" on="1"/>
        <pt x="505" y="-22" on="0"/>
        <pt x="389" y="79" on="1"/>
      </contour>
    </TTGlyph>
    <TTGlyph name="Sacute" xMin="149" yMin="-22" xMax="1087" yMax="1678">
      <component glyphName="S" x="0" y="0" flags="0x204"/>
      <component glyphName="acute" x="-22" y="270" flags="0x4"/>
    </TTGlyph>
    <TTGlyph name="Scaron" xMin="149" yMin="-22" xMax="1087" yMax="1663">
      <component glyphName="S" x="0" y="0" flags="0x204"/>
      <component glyphName="caron" x="-5" y="270" flags="0x4"/>
    </TTGlyph>
    <TTGlyph name="Scedilla" xMin="149" yMin="-472" xMax="1087" yMax="1209">
      <contour>
        <pt x="389" y="41" on="1"/>
        <pt x="389" y="7" on="0"/>
        <pt x="341" y="-22" on="0"/>
        <pt x="277" y="-22" on="1"/>
        <pt x="213" y="-22" on="0"/>
        <pt x="159" y="7" on="0"/>
        <pt x="159" y="41" on="1"/>
        <pt x="159" y="375" on="1"/>
        <pt x="159" y="409" on="0"/>
        <pt x="202" y="438" on="0"/>
        <pt x="251" y="438" on="1"/>
        <pt x="286" y="438" on="0"/>
        <pt x="327" y="420" on="0"/>
        <pt x="338" y="398" on="1"/>
        <pt x="392" y="296" on="0"/>
        <pt x="540" y="191" on="0"/>
        <pt x="642" y="191" on="1"/>
        <pt x="732" y="191" on="0"/>
        <pt x="822" y="264" on="0"/>
        <pt x="822" y="327" on="1"/>
        <pt x="822" y="369" on="0"/>
        <pt x="779" y="423" on="0"/>
        <pt x="742" y="441" on="1"/>
        <pt x="702" y="460" on="0"/>
        <pt x="596" y="485" on="0"/>
        <pt x="480" y="509" on="0"/>
        <pt x="362" y="540" on="0"/>
        <pt x="311" y="567" on="1"/>
        <pt x="276" y="585" on="0"/>
        <pt x="217" y="635" on="0"/>
        <pt x="173" y="702" on="0"/>
        <pt x="149" y="790" on="0"/>
        <pt x="149" y="846" on="1"/>
        <pt x="149" y="926" on="0"/>
        <pt x="205" y="1059" on="0"/>
        <pt x="308" y="1155" on="0"/>
        <pt x="451" y="1209" on="0"/>
        <pt x="538" y="1209" on="1"/>
        <pt x="619" y="1209" on="0"/>
        <pt x="754" y="1157" on="0"/>
        <pt x="804" y="1109" on="1"/>
        <pt x="804" y="1146" on="1"/>
        <pt x="804" y="1180" on="0"/>
        <pt x="852" y="1209" on="0"/>
        <pt x="916" y="1209" on="1"/>
        <pt x="980" y="1209" on="0"/>
        <pt x="1034" y="1180" on="0"/>
        <pt x="1034" y="1146" on="1"/>
        <pt x="1034" y="872" on="1"/>
        <pt x="1034" y="838" on="0"/>
        <pt x="991" y="809" on="0"/>
        <pt x="942" y="809" on="1"/>
        <pt x="908" y="809" on="0"/>
        <pt x="871" y="825" on="0"/>
        <pt x="860" y="841" on="1"/>
        <pt x="814" y="913" on="0"/>
        <pt x="668" y="996" on="0"/>
        <pt x="568" y="996" on="1"/>
        <pt x="493" y="996" on="0"/>
        <pt x="412" y="920" on="0"/>
        <pt x="412" y="863" on="1"/>
        <pt x="412" y="833" on="0"/>
        <pt x="450" y="796" on="0"/>
        <pt x="482" y="783" on="1"/>
        <pt x="521" y="768" on="0"/>
        <pt x="630" y="749" on="0"/>
        <pt x="751" y="725" on="0"/>
        <pt x="874" y="689" on="0"/>
        <pt x="927" y="657" on="1"/>
        <pt x="961" y="636" on="0"/>
        <pt x="1020" y="579" on="0"/>
        <pt x="1063" y="503" on="0"/>
        <pt x="1087" y="405" on="0"/>
        <pt x="1087" y="344" on="1"/>
        <pt x="1087" y="266" on="0"/>
        <pt x="1040" y="136" on="0"/>
        <pt x="944" y="40" on="0"/>
        <pt x="800" y="-17" on="0"/>
        <pt x="704" y="-21" on="1"/>
        <pt x="704" y="-93" on="1"/>
        <pt x="762" y="-91" on="0"/>
        <pt x="848" y="-117" on="0"/>
        <pt x="903" y="-167" on="0"/>
        <pt x="930" y="-238" on="0"/>
        <pt x="930" y="-281" on="1"/>
        <pt x="930" y="-372" on="0"/>
        <pt x="789" y="-472" on="0"/>
        <pt x="651" y="-472" on="1"/>
        <pt x="576" y="-472" on="0"/>
        <pt x="445" y="-450" on="0"/>
        <pt x="392" y="-430" on="1"/>
        <pt x="373" y="-422" on="0"/>
        <pt x="370" y="-380" on="0"/>
        <pt x="381" y="-348" on="1"/>
        <pt x="394" y="-313" on="0"/>
        <pt x="425" y="-282" on="0"/>
        <pt x="445" y="-288" on="1"/>
        <pt x="484" y="-303" on="0"/>
        <pt x="558" y="-322" on="0"/>
        <pt x="608" y="-322" on="1"/>
        <pt x="694" y="-322" on="0"/>
        <pt x="694" y="-269" on="1"/>
        <pt x="694" y="-248" on="0"/>
        <pt x="672" y="-225" on="0"/>
        <pt x="638" y="-214" on="0"/>
        <pt x="593" y="-216" on="0"/>
        <pt x="571" y="-221" on="1"/>
        <pt x="554" y="-225" on="0"/>
        <pt x="529" y="-206" on="0"/>
        <pt x="529" y="-180" on="1"/>
        <pt x="529" y="0" on="1"/>
        <pt x="449" y="26" on="0"/>
        <pt x="389" y="79" on="1"/>
      </contour>
    </TTGlyph>
    <TTGlyph name="Scircumflex" xMin="149" yMin="-22" xMax="1087" yMax="1676">
      <component glyphName="circumflex" x="-4" y="270" flags="0x204"/>
      <component glyphName="S" x="0" y="0" flags="0x4"/>
    </TTGlyph>
    <TTGlyph name="Scommaaccent" xMin="149" yMin="-545" xMax="1087" yMax="1209">
      <component glyphName="S" x="0" y="0" flags="0x204"/>
      <component glyphName="commaaccent" x="0" y="0" flags="0x4"/>
    </TTGlyph>
    <TTGlyph name="T" xMin="98" yMin="0" xMax="1130" yMax="1187">
      <contour>
        <pt x="489" y="972" on="1"/>
        <pt x="308" y="972" on="1"/>
        <pt x="308" y="700" on="1"/>
        <pt x="308" y="666" on="0"/>
        <pt x="253" y="637" on="0"/>
        <pt x="196" y="637" on="1"/>
        <pt x="140" y="637" on="0"/>
        <pt x="98" y="666" on="0"/>
        <pt x="98" y="700" on="1"/>
        <pt x="98" y="1122" on="1"/>
        <pt x="98" y="1157" on="0"/>
        <pt x="128" y="1187" on="0"/>
        <pt x="163" y="1187" on="1"/>
        <pt x="1065" y="1187" on="1"/>
        <pt x="1100" y="1187" on="0"/>
        <pt x="1130" y="1157" on="0"/>
        <pt x="1130" y="1122" on="1"/>
        <pt x="1130" y="700" on="1"/>
        <pt x="1130" y="666" on="0"/>
        <pt x="1075" y="637" on="0"/>
        <pt x="1018" y="637" on="1"/>
        <pt x="962" y="637" on="0"/>
        <pt x="920" y="666" on="0"/>
        <pt x="920" y="700" on="1"/>
        <pt x="920" y="972" on="1"/>
        <pt x="739" y="972" on="1"/>
        <pt x="739" y="205" on="1"/>
        <pt x="955" y="205" on="1"/>
        <pt x="972" y="205" on="0"/>
        <pt x="996" y="197" on="0"/>
        <pt x="1011" y="174" on="0"/>
        <pt x="1018" y="134" on="0"/>
        <pt x="1018" y="102" on="1"/>
        <pt x="1018" y="70" on="0"/>
        <pt x="1011" y="30" on="0"/>
        <pt x="996" y="8" on="0"/>
        <pt x="972" y="0" on="0"/>
        <pt x="955" y="0" on="1"/>
        <pt x="273" y="0" on="1"/>
        <pt x="256" y="0" on="0"/>
        <pt x="232" y="8" on="0"/>
        <pt x="217" y="30" on="0"/>
        <pt x="210" y="70" on="0"/>
        <pt x="210" y="102" on="1"/>
        <pt x="210" y="134" on="0"/>
        <pt x="217" y="174" on="0"/>
        <pt x="232" y="197" on="0"/>
        <pt x="256" y="205" on="0"/>
        <pt x="273" y="205" on="1"/>
        <pt x="489" y="205" on="1"/>
      </contour>
    </TTGlyph>
    <TTGlyph name="Tbar" xMin="98" yMin="0" xMax="1130" yMax="1187">
      <contour>
        <pt x="489" y="565" on="1"/>
        <pt x="489" y="972" on="1"/>
        <pt x="308" y="972" on="1"/>
        <pt x="308" y="700" on="1"/>
        <pt x="308" y="666" on="0"/>
        <pt x="253" y="637" on="0"/>
        <pt x="196" y="637" on="1"/>
        <pt x="140" y="637" on="0"/>
        <pt x="98" y="666" on="0"/>
        <pt x="98" y="700" on="1"/>
        <pt x="98" y="1122" on="1"/>
        <pt x="98" y="1157" on="0"/>
        <pt x="128" y="1187" on="0"/>
        <pt x="163" y="1187" on="1"/>
        <pt x="1065" y="1187" on="1"/>
        <pt x="1100" y="1187" on="0"/>
        <pt x="1130" y="1157" on="0"/>
        <pt x="1130" y="1122" on="1"/>
        <pt x="1130" y="700" on="1"/>
        <pt x="1130" y="666" on="0"/>
        <pt x="1075" y="637" on="0"/>
        <pt x="1018" y="637" on="1"/>
        <pt x="962" y="637" on="0"/>
        <pt x="920" y="666" on="0"/>
        <pt x="920" y="700" on="1"/>
        <pt x="920" y="972" on="1"/>
        <pt x="739" y="972" on="1"/>
        <pt x="739" y="565" on="1"/>
        <pt x="895" y="565" on="1"/>
        <pt x="912" y="565" on="0"/>
        <pt x="936" y="557" on="0"/>
        <pt x="951" y="534" on="0"/>
        <pt x="958" y="494" on="0"/>
        <pt x="958" y="462" on="1"/>
        <pt x="958" y="430" on="0"/>
        <pt x="951" y="390" on="0"/>
        <pt x="936" y="368" on="0"/>
        <pt x="912" y="360" on="0"/>
        <pt x="895" y="360" on="1"/>
        <pt x="739" y="360" on="1"/>
        <pt x="739" y="205" on="1"/>
        <pt x="955" y="205" on="1"/>
        <pt x="972" y="205" on="0"/>
        <pt x="996" y="197" on="0"/>
        <pt x="1011" y="174" on="0"/>
        <pt x="1018" y="134" on="0"/>
        <pt x="1018" y="102" on="1"/>
        <pt x="1018" y="70" on="0"/>
        <pt x="1011" y="30" on="0"/>
        <pt x="996" y="8" on="0"/>
        <pt x="972" y="0" on="0"/>
        <pt x="955" y="0" on="1"/>
        <pt x="273" y="0" on="1"/>
        <pt x="256" y="0" on="0"/>
        <pt x="232" y="8" on="0"/>
        <pt x="217" y="30" on="0"/>
        <pt x="210" y="70" on="0"/>
        <pt x="210" y="102" on="1"/>
        <pt x="210" y="134" on="0"/>
        <pt x="217" y="174" on="0"/>
        <pt x="232" y="197" on="0"/>
        <pt x="256" y="205" on="0"/>
        <pt x="273" y="205" on="1"/>
        <pt x="489" y="205" on="1"/>
        <pt x="489" y="360" on="1"/>
        <pt x="333" y="360" on="1"/>
        <pt x="316" y="360" on="0"/>
        <pt x="292" y="368" on="0"/>
        <pt x="277" y="390" on="0"/>
        <pt x="270" y="430" on="0"/>
        <pt x="270" y="462" on="1"/>
        <pt x="270" y="494" on="0"/>
        <pt x="277" y="534" on="0"/>
        <pt x="292" y="557" on="0"/>
        <pt x="316" y="565" on="0"/>
        <pt x="333" y="565" on="1"/>
      </contour>
    </TTGlyph>
    <TTGlyph name="Tcaron" xMin="98" yMin="0" xMax="1130" yMax="1653">
      <component glyphName="T" x="0" y="0" flags="0x204"/>
      <component glyphName="caron" x="0" y="260" flags="0x4"/>
    </TTGlyph>
    <TTGlyph name="Tcommaaccent" xMin="98" yMin="-545" xMax="1130" yMax="1187">
      <component glyphName="T" x="0" y="0" flags="0x204"/>
      <component glyphName="commaaccent" x="-20" y="0" flags="0x4"/>
    </TTGlyph>
    <TTGlyph name="Thorn" xMin="120" yMin="0" xMax="1087" yMax="1187">
      <contour>
        <pt x="330" y="982" on="1"/>
        <pt x="183" y="982" on="1"/>
        <pt x="166" y="982" on="0"/>
        <pt x="142" y="990" on="0"/>
        <pt x="127" y="1012" on="0"/>
        <pt x="120" y="1052" on="0"/>
        <pt x="120" y="1084" on="1"/>
        <pt x="120" y="1116" on="0"/>
        <pt x="127" y="1156" on="0"/>
        <pt x="142" y="1179" on="0"/>
        <pt x="166" y="1187" on="0"/>
        <pt x="183" y="1187" on="1"/>
        <pt x="767" y="1187" on="1"/>
        <pt x="784" y="1187" on="0"/>
        <pt x="808" y="1179" on="0"/>
        <pt x="823" y="1156" on="0"/>
        <pt x="830" y="1116" on="0"/>
        <pt x="830" y="1084" on="1"/>
        <pt x="830" y="1052" on="0"/>
        <pt x="823" y="1012" on="0"/>
        <pt x="808" y="990" on="0"/>
        <pt x="784" y="982" on="0"/>
        <pt x="767" y="982" on="1"/>
        <pt x="580" y="982" on="1"/>
        <pt x="580" y="896" on="1"/>
        <pt x="720" y="896" on="1"/>
        <pt x="814" y="896" on="0"/>
        <pt x="952" y="854" on="0"/>
        <pt x="1043" y="776" on="0"/>
        <pt x="1087" y="664" on="0"/>
        <pt x="1087" y="594" on="1"/>
        <pt x="1087" y="524" on="0"/>
        <pt x="1043" y="412" on="0"/>
        <pt x="952" y="333" on="0"/>
        <pt x="814" y="291" on="0"/>
        <pt x="720" y="291" on="1"/>
        <pt x="580" y="291" on="1"/>
        <pt x="580" y="205" on="1"/>
        <pt x="767" y="205" on="1"/>
        <pt x="784" y="205" on="0"/>
        <pt x="808" y="197" on="0"/>
        <pt x="823" y="174" on="0"/>
        <pt x="830" y="134" on="0"/>
        <pt x="830" y="102" on="1"/>
        <pt x="830" y="70" on="0"/>
        <pt x="823" y="30" on="0"/>
        <pt x="808" y="8" on="0"/>
        <pt x="784" y="0" on="0"/>
        <pt x="767" y="0" on="1"/>
        <pt x="183" y="0" on="1"/>
        <pt x="166" y="0" on="0"/>
        <pt x="142" y="8" on="0"/>
        <pt x="127" y="30" on="0"/>
        <pt x="120" y="70" on="0"/>
        <pt x="120" y="102" on="1"/>
        <pt x="120" y="134" on="0"/>
        <pt x="127" y="174" on="0"/>
        <pt x="142" y="197" on="0"/>
        <pt x="166" y="205" on="0"/>
        <pt x="183" y="205" on="1"/>
        <pt x="330" y="205" on="1"/>
      </contour>
      <contour>
        <pt x="689" y="496" on="1"/>
        <pt x="762" y="496" on="0"/>
        <pt x="829" y="542" on="0"/>
        <pt x="829" y="594" on="1"/>
        <pt x="829" y="646" on="0"/>
        <pt x="762" y="691" on="0"/>
        <pt x="689" y="691" on="1"/>
        <pt x="580" y="691" on="1"/>
        <pt x="580" y="496" on="1"/>
      </contour>
    </TTGlyph>
    <TTGlyph name="U" xMin="50" yMin="-22" xMax="1178" yMax="1187">
      <contour>
        <pt x="113" y="982" on="1"/>
        <pt x="96" y="982" on="0"/>
        <pt x="72" y="990" on="0"/>
        <pt x="57" y="1012" on="0"/>
        <pt x="50" y="1052" on="0"/>
        <pt x="50" y="1084" on="1"/>
        <pt x="50" y="1116" on="0"/>
        <pt x="57" y="1156" on="0"/>
        <pt x="72" y="1179" on="0"/>
        <pt x="96" y="1187" on="0"/>
        <pt x="113" y="1187" on="1"/>
        <pt x="487" y="1187" on="1"/>
        <pt x="504" y="1187" on="0"/>
        <pt x="528" y="1179" on="0"/>
        <pt x="543" y="1156" on="0"/>
        <pt x="550" y="1116" on="0"/>
        <pt x="550" y="1084" on="1"/>
        <pt x="550" y="1052" on="0"/>
        <pt x="543" y="1012" on="0"/>
        <pt x="528" y="990" on="0"/>
        <pt x="504" y="982" on="0"/>
        <pt x="487" y="982" on="1"/>
        <pt x="410" y="982" on="1"/>
        <pt x="410" y="433" on="1"/>
        <pt x="410" y="373" on="0"/>
        <pt x="440" y="287" on="0"/>
        <pt x="494" y="231" on="0"/>
        <pt x="569" y="205" on="0"/>
        <pt x="614" y="205" on="1"/>
        <pt x="659" y="205" on="0"/>
        <pt x="734" y="231" on="0"/>
        <pt x="788" y="287" on="0"/>
        <pt x="818" y="373" on="0"/>
        <pt x="818" y="433" on="1"/>
        <pt x="818" y="982" on="1"/>
        <pt x="741" y="982" on="1"/>
        <pt x="724" y="982" on="0"/>
        <pt x="700" y="990" on="0"/>
        <pt x="685" y="1012" on="0"/>
        <pt x="678" y="1052" on="0"/>
        <pt x="678" y="1084" on="1"/>
        <pt x="678" y="1116" on="0"/>
        <pt x="685" y="1156" on="0"/>
        <pt x="700" y="1179" on="0"/>
        <pt x="724" y="1187" on="0"/>
        <pt x="741" y="1187" on="1"/>
        <pt x="1115" y="1187" on="1"/>
        <pt x="1132" y="1187" on="0"/>
        <pt x="1156" y="1179" on="0"/>
        <pt x="1171" y="1156" on="0"/>
        <pt x="1178" y="1116" on="0"/>
        <pt x="1178" y="1084" on="1"/>
        <pt x="1178" y="1052" on="0"/>
        <pt x="1171" y="1012" on="0"/>
        <pt x="1156" y="990" on="0"/>
        <pt x="1132" y="982" on="0"/>
        <pt x="1115" y="982" on="1"/>
        <pt x="1068" y="982" on="1"/>
        <pt x="1068" y="413" on="1"/>
        <pt x="1068" y="308" on="0"/>
        <pt x="1005" y="146" on="0"/>
        <pt x="887" y="35" on="0"/>
        <pt x="719" y="-22" on="0"/>
        <pt x="614" y="-22" on="1"/>
        <pt x="509" y="-22" on="0"/>
        <pt x="341" y="35" on="0"/>
        <pt x="223" y="146" on="0"/>
        <pt x="160" y="308" on="0"/>
        <pt x="160" y="413" on="1"/>
        <pt x="160" y="982" on="1"/>
      </contour>
    </TTGlyph>
    <TTGlyph name="Uacute" xMin="50" yMin="-22" xMax="1178" yMax="1678">
      <component glyphName="U" x="0" y="0" flags="0x204"/>
      <component glyphName="acute" x="-2" y="270" flags="0x4"/>
    </TTGlyph>
    <TTGlyph name="Ubreve" xMin="50" yMin="-22" xMax="1178" yMax="1655">
      <component glyphName="U" x="0" y="0" flags="0x204"/>
      <component glyphName="breve" x="0" y="270" flags="0x4"/>
    </TTGlyph>
    <TTGlyph name="Ucircumflex" xMin="50" yMin="-22" xMax="1178" yMax="1676">
      <component glyphName="U" x="0" y="0" flags="0x204"/>
      <component glyphName="circumflex" x="0" y="270" flags="0x4"/>
    </TTGlyph>
    <TTGlyph name="Udieresis" xMin="50" yMin="-22" xMax="1178" yMax="1615">
      <component glyphName="U" x="0" y="0" flags="0x204"/>
      <component glyphName="dieresis" x="0" y="270" flags="0x4"/>
    </TTGlyph>
    <TTGlyph name="Ugrave" xMin="50" yMin="-22" xMax="1178" yMax="1678">
      <component glyphName="U" x="0" y="0" flags="0x204"/>
      <component glyphName="grave" x="22" y="270" flags="0x4"/>
    </TTGlyph>
    <TTGlyph name="Uhungarumlaut" xMin="50" yMin="-22" xMax="1178" yMax="1653">
      <component glyphName="U" x="0" y="0" flags="0x204"/>
      <component glyphName="hungarumlaut" x="0" y="270" flags="0x4"/>
    </TTGlyph>
    <TTGlyph name="Umacron" xMin="50" yMin="-22" xMax="1178" yMax="1545">
      <component glyphName="macron" x="0" y="270" flags="0x204"/>
      <component glyphName="U" x="0" y="0" flags="0x4"/>
    </TTGlyph>
    <TTGlyph name="Uogonek" xMin="50" yMin="-472" xMax="1178" yMax="1187">
      <contour>
        <pt x="113" y="982" on="1"/>
        <pt x="96" y="982" on="0"/>
        <pt x="72" y="990" on="0"/>
        <pt x="57" y="1012" on="0"/>
        <pt x="50" y="1052" on="0"/>
        <pt x="50" y="1084" on="1"/>
        <pt x="50" y="1116" on="0"/>
        <pt x="57" y="1156" on="0"/>
        <pt x="72" y="1179" on="0"/>
        <pt x="96" y="1187" on="0"/>
        <pt x="113" y="1187" on="1"/>
        <pt x="487" y="1187" on="1"/>
        <pt x="504" y="1187" on="0"/>
        <pt x="528" y="1179" on="0"/>
        <pt x="543" y="1156" on="0"/>
        <pt x="550" y="1116" on="0"/>
        <pt x="550" y="1084" on="1"/>
        <pt x="550" y="1052" on="0"/>
        <pt x="543" y="1012" on="0"/>
        <pt x="528" y="990" on="0"/>
        <pt x="504" y="982" on="0"/>
        <pt x="487" y="982" on="1"/>
        <pt x="410" y="982" on="1"/>
        <pt x="410" y="433" on="1"/>
        <pt x="410" y="373" on="0"/>
        <pt x="440" y="287" on="0"/>
        <pt x="494" y="231" on="0"/>
        <pt x="569" y="205" on="0"/>
        <pt x="614" y="205" on="1"/>
        <pt x="659" y="205" on="0"/>
        <pt x="734" y="231" on="0"/>
        <pt x="788" y="287" on="0"/>
        <pt x="818" y="373" on="0"/>
        <pt x="818" y="433" on="1"/>
        <pt x="818" y="982" on="1"/>
        <pt x="741" y="982" on="1"/>
        <pt x="724" y="982" on="0"/>
        <pt x="700" y="990" on="0"/>
        <pt x="685" y="1012" on="0"/>
        <pt x="678" y="1052" on="0"/>
        <pt x="678" y="1084" on="1"/>
        <pt x="678" y="1116" on="0"/>
        <pt x="685" y="1156" on="0"/>
        <pt x="700" y="1179" on="0"/>
        <pt x="724" y="1187" on="0"/>
        <pt x="741" y="1187" on="1"/>
        <pt x="1115" y="1187" on="1"/>
        <pt x="1132" y="1187" on="0"/>
        <pt x="1156" y="1179" on="0"/>
        <pt x="1171" y="1156" on="0"/>
        <pt x="1178" y="1116" on="0"/>
        <pt x="1178" y="1084" on="1"/>
        <pt x="1178" y="1052" on="0"/>
        <pt x="1171" y="1012" on="0"/>
        <pt x="1156" y="990" on="0"/>
        <pt x="1132" y="982" on="0"/>
        <pt x="1115" y="982" on="1"/>
        <pt x="1068" y="982" on="1"/>
        <pt x="1068" y="413" on="1"/>
        <pt x="1068" y="272" on="0"/>
        <pt x="957" y="78" on="0"/>
        <pt x="855" y="28" on="1"/>
        <pt x="766" y="-44" on="0"/>
        <pt x="662" y="-174" on="0"/>
        <pt x="662" y="-231" on="1"/>
        <pt x="662" y="-266" on="0"/>
        <pt x="707" y="-298" on="0"/>
        <pt x="750" y="-298" on="1"/>
        <pt x="779" y="-298" on="0"/>
        <pt x="838" y="-290" on="0"/>
        <pt x="870" y="-285" on="1"/>
        <pt x="890" y="-282" on="0"/>
        <pt x="915" y="-318" on="0"/>
        <pt x="918" y="-353" on="1"/>
        <pt x="924" y="-424" on="0"/>
        <pt x="881" y="-438" on="1"/>
        <pt x="830" y="-454" on="0"/>
        <pt x="720" y="-472" on="0"/>
        <pt x="665" y="-472" on="1"/>
        <pt x="547" y="-472" on="0"/>
        <pt x="419" y="-369" on="0"/>
        <pt x="419" y="-269" on="1"/>
        <pt x="419" y="-230" on="0"/>
        <pt x="442" y="-162" on="0"/>
        <pt x="484" y="-101" on="0"/>
        <pt x="541" y="-46" on="0"/>
        <pt x="575" y="-21" on="1"/>
        <pt x="479" y="-16" on="0"/>
        <pt x="325" y="46" on="0"/>
        <pt x="217" y="156" on="0"/>
        <pt x="160" y="313" on="0"/>
        <pt x="160" y="413" on="1"/>
        <pt x="160" y="982" on="1"/>
      </contour>
    </TTGlyph>
    <TTGlyph name="Uring" xMin="50" yMin="-22" xMax="1178" yMax="1797">
      <component glyphName="U" x="0" y="0" flags="0x204"/>
      <component glyphName="ring" x="0" y="240" flags="0x4"/>
    </TTGlyph>
    <TTGlyph name="Utilde" xMin="50" yMin="-22" xMax="1178" yMax="1584">
      <component glyphName="tilde" x="0" y="260" flags="0x204"/>
      <component glyphName="U" x="0" y="0" flags="0x4"/>
    </TTGlyph>
    <TTGlyph name="V" xMin="-10" yMin="-22" xMax="1238" yMax="1187">
      <contour>
        <pt x="53" y="982" on="1"/>
        <pt x="36" y="982" on="0"/>
        <pt x="12" y="990" on="0"/>
        <pt x="-3" y="1012" on="0"/>
        <pt x="-10" y="1052" on="0"/>
        <pt x="-10" y="1084" on="1"/>
        <pt x="-10" y="1116" on="0"/>
        <pt x="-3" y="1156" on="0"/>
        <pt x="12" y="1179" on="0"/>
        <pt x="36" y="1187" on="0"/>
        <pt x="53" y="1187" on="1"/>
        <pt x="487" y="1187" on="1"/>
        <pt x="504" y="1187" on="0"/>
        <pt x="528" y="1179" on="0"/>
        <pt x="543" y="1156" on="0"/>
        <pt x="550" y="1116" on="0"/>
        <pt x="550" y="1084" on="1"/>
        <pt x="550" y="1052" on="0"/>
        <pt x="543" y="1012" on="0"/>
        <pt x="528" y="990" on="0"/>
        <pt x="504" y="982" on="0"/>
        <pt x="487" y="982" on="1"/>
        <pt x="398" y="982" on="1"/>
        <pt x="613" y="369" on="1"/>
        <pt x="842" y="982" on="1"/>
        <pt x="771" y="982" on="1"/>
        <pt x="754" y="982" on="0"/>
        <pt x="730" y="990" on="0"/>
        <pt x="715" y="1012" on="0"/>
        <pt x="708" y="1052" on="0"/>
        <pt x="708" y="1084" on="1"/>
        <pt x="708" y="1116" on="0"/>
        <pt x="715" y="1156" on="0"/>
        <pt x="730" y="1179" on="0"/>
        <pt x="754" y="1187" on="0"/>
        <pt x="771" y="1187" on="1"/>
        <pt x="1175" y="1187" on="1"/>
        <pt x="1192" y="1187" on="0"/>
        <pt x="1216" y="1179" on="0"/>
        <pt x="1231" y="1156" on="0"/>
        <pt x="1238" y="1116" on="0"/>
        <pt x="1238" y="1084" on="1"/>
        <pt x="1238" y="1052" on="0"/>
        <pt x="1231" y="1012" on="0"/>
        <pt x="1216" y="990" on="0"/>
        <pt x="1192" y="982" on="0"/>
        <pt x="1175" y="982" on="1"/>
        <pt x="1107" y="982" on="1"/>
        <pt x="744" y="43" on="1"/>
        <pt x="737" y="25" on="0"/>
        <pt x="717" y="1" on="0"/>
        <pt x="686" y="-15" on="0"/>
        <pt x="642" y="-22" on="0"/>
        <pt x="611" y="-22" on="1"/>
        <pt x="580" y="-22" on="0"/>
        <pt x="536" y="-15" on="0"/>
        <pt x="506" y="1" on="0"/>
        <pt x="486" y="26" on="0"/>
        <pt x="480" y="43" on="1"/>
        <pt x="130" y="982" on="1"/>
      </contour>
    </TTGlyph>
    <TTGlyph name="W" xMin="-20" yMin="-22" xMax="1248" yMax="1187">
      <contour>
        <pt x="437" y="1187" on="1"/>
        <pt x="454" y="1187" on="0"/>
        <pt x="478" y="1179" on="0"/>
        <pt x="493" y="1156" on="0"/>
        <pt x="500" y="1116" on="0"/>
        <pt x="500" y="1084" on="1"/>
        <pt x="500" y="1052" on="0"/>
        <pt x="493" y="1012" on="0"/>
        <pt x="478" y="990" on="0"/>
        <pt x="454" y="982" on="0"/>
        <pt x="437" y="982" on="1"/>
        <pt x="320" y="982" on="1"/>
        <pt x="373" y="398" on="1"/>
        <pt x="519" y="826" on="1"/>
        <pt x="525" y="846" on="0"/>
        <pt x="562" y="873" on="0"/>
        <pt x="613" y="873" on="1"/>
        <pt x="665" y="873" on="0"/>
        <pt x="707" y="853" on="0"/>
        <pt x="713" y="833" on="1"/>
        <pt x="860" y="398" on="1"/>
        <pt x="914" y="982" on="1"/>
        <pt x="811" y="982" on="1"/>
        <pt x="794" y="982" on="0"/>
        <pt x="770" y="990" on="0"/>
        <pt x="755" y="1012" on="0"/>
        <pt x="748" y="1052" on="0"/>
        <pt x="748" y="1084" on="1"/>
        <pt x="748" y="1116" on="0"/>
        <pt x="755" y="1156" on="0"/>
        <pt x="770" y="1179" on="0"/>
        <pt x="794" y="1187" on="0"/>
        <pt x="811" y="1187" on="1"/>
        <pt x="1185" y="1187" on="1"/>
        <pt x="1202" y="1187" on="0"/>
        <pt x="1226" y="1179" on="0"/>
        <pt x="1241" y="1156" on="0"/>
        <pt x="1248" y="1116" on="0"/>
        <pt x="1248" y="1084" on="1"/>
        <pt x="1248" y="1052" on="0"/>
        <pt x="1241" y="1012" on="0"/>
        <pt x="1226" y="990" on="0"/>
        <pt x="1202" y="982" on="0"/>
        <pt x="1185" y="982" on="1"/>
        <pt x="1129" y="982" on="1"/>
        <pt x="1028" y="43" on="1"/>
        <pt x="1026" y="25" on="0"/>
        <pt x="1013" y="0" on="0"/>
        <pt x="986" y="-15" on="0"/>
        <pt x="941" y="-22" on="0"/>
        <pt x="907" y="-22" on="1"/>
        <pt x="839" y="-22" on="0"/>
        <pt x="781" y="9" on="0"/>
        <pt x="770" y="43" on="1"/>
        <pt x="610" y="514" on="1"/>
        <pt x="448" y="43" on="1"/>
        <pt x="442" y="26" on="0"/>
        <pt x="423" y="1" on="0"/>
        <pt x="391" y="-15" on="0"/>
        <pt x="343" y="-22" on="0"/>
        <pt x="309" y="-22" on="1"/>
        <pt x="275" y="-22" on="0"/>
        <pt x="231" y="-15" on="0"/>
        <pt x="204" y="0" on="0"/>
        <pt x="192" y="25" on="0"/>
        <pt x="190" y="43" on="1"/>
        <pt x="93" y="982" on="1"/>
        <pt x="43" y="982" on="1"/>
        <pt x="26" y="982" on="0"/>
        <pt x="2" y="990" on="0"/>
        <pt x="-13" y="1012" on="0"/>
        <pt x="-20" y="1052" on="0"/>
        <pt x="-20" y="1084" on="1"/>
        <pt x="-20" y="1116" on="0"/>
        <pt x="-13" y="1156" on="0"/>
        <pt x="2" y="1179" on="0"/>
        <pt x="26" y="1187" on="0"/>
        <pt x="43" y="1187" on="1"/>
      </contour>
    </TTGlyph>
    <TTGlyph name="Wacute" xMin="-20" yMin="-22" xMax="1248" yMax="1678">
      <component glyphName="W" x="0" y="0" flags="0x204"/>
      <component glyphName="acute" x="10" y="270" flags="0x4"/>
    </TTGlyph>
    <TTGlyph name="Wcircumflex" xMin="-20" yMin="-22" xMax="1248" yMax="1676">
      <component glyphName="W" x="0" y="0" flags="0x204"/>
      <component glyphName="circumflex" x="10" y="270" flags="0x4"/>
    </TTGlyph>
    <TTGlyph name="Wdieresis" xMin="-20" yMin="-22" xMax="1248" yMax="1615">
      <component glyphName="W" x="0" y="0" flags="0x204"/>
      <component glyphName="dieresis" x="10" y="270" flags="0x4"/>
    </TTGlyph>
    <TTGlyph name="Wgrave" xMin="-20" yMin="-22" xMax="1248" yMax="1671">
      <component glyphName="W" x="0" y="0" flags="0x204"/>
      <component glyphName="grave" x="11" y="263" flags="0x4"/>
    </TTGlyph>
    <TTGlyph name="X" xMin="30" yMin="0" xMax="1198" yMax="1187">
      <contour>
        <pt x="446" y="615" on="1"/>
        <pt x="183" y="982" on="1"/>
        <pt x="123" y="982" on="1"/>
        <pt x="106" y="982" on="0"/>
        <pt x="82" y="990" on="0"/>
        <pt x="67" y="1012" on="0"/>
        <pt x="60" y="1052" on="0"/>
        <pt x="60" y="1084" on="1"/>
        <pt x="60" y="1116" on="0"/>
        <pt x="67" y="1156" on="0"/>
        <pt x="82" y="1179" on="0"/>
        <pt x="106" y="1187" on="0"/>
        <pt x="123" y="1187" on="1"/>
        <pt x="517" y="1187" on="1"/>
        <pt x="534" y="1187" on="0"/>
        <pt x="558" y="1179" on="0"/>
        <pt x="573" y="1156" on="0"/>
        <pt x="580" y="1116" on="0"/>
        <pt x="580" y="1084" on="1"/>
        <pt x="580" y="1052" on="0"/>
        <pt x="573" y="1012" on="0"/>
        <pt x="558" y="990" on="0"/>
        <pt x="534" y="982" on="0"/>
        <pt x="517" y="982" on="1"/>
        <pt x="474" y="982" on="1"/>
        <pt x="620" y="773" on="1"/>
        <pt x="765" y="982" on="1"/>
        <pt x="741" y="982" on="1"/>
        <pt x="724" y="982" on="0"/>
        <pt x="700" y="990" on="0"/>
        <pt x="685" y="1012" on="0"/>
        <pt x="678" y="1052" on="0"/>
        <pt x="678" y="1084" on="1"/>
        <pt x="678" y="1116" on="0"/>
        <pt x="685" y="1156" on="0"/>
        <pt x="700" y="1179" on="0"/>
        <pt x="724" y="1187" on="0"/>
        <pt x="741" y="1187" on="1"/>
        <pt x="1105" y="1187" on="1"/>
        <pt x="1122" y="1187" on="0"/>
        <pt x="1146" y="1179" on="0"/>
        <pt x="1161" y="1156" on="0"/>
        <pt x="1168" y="1116" on="0"/>
        <pt x="1168" y="1084" on="1"/>
        <pt x="1168" y="1052" on="0"/>
        <pt x="1161" y="1012" on="0"/>
        <pt x="1146" y="990" on="0"/>
        <pt x="1122" y="982" on="0"/>
        <pt x="1105" y="982" on="1"/>
        <pt x="1049" y="982" on="1"/>
        <pt x="783" y="604" on="1"/>
        <pt x="1074" y="205" on="1"/>
        <pt x="1135" y="205" on="1"/>
        <pt x="1152" y="205" on="0"/>
        <pt x="1176" y="197" on="0"/>
        <pt x="1191" y="174" on="0"/>
        <pt x="1198" y="134" on="0"/>
        <pt x="1198" y="102" on="1"/>
        <pt x="1198" y="70" on="0"/>
        <pt x="1191" y="30" on="0"/>
        <pt x="1176" y="8" on="0"/>
        <pt x="1152" y="0" on="0"/>
        <pt x="1135" y="0" on="1"/>
        <pt x="731" y="0" on="1"/>
        <pt x="714" y="0" on="0"/>
        <pt x="690" y="8" on="0"/>
        <pt x="675" y="30" on="0"/>
        <pt x="668" y="70" on="0"/>
        <pt x="668" y="102" on="1"/>
        <pt x="668" y="134" on="0"/>
        <pt x="675" y="174" on="0"/>
        <pt x="690" y="197" on="0"/>
        <pt x="714" y="205" on="0"/>
        <pt x="731" y="205" on="1"/>
        <pt x="783" y="205" on="1"/>
        <pt x="610" y="449" on="1"/>
        <pt x="439" y="205" on="1"/>
        <pt x="477" y="205" on="1"/>
        <pt x="494" y="205" on="0"/>
        <pt x="518" y="197" on="0"/>
        <pt x="533" y="174" on="0"/>
        <pt x="540" y="134" on="0"/>
        <pt x="540" y="102" on="1"/>
        <pt x="540" y="70" on="0"/>
        <pt x="533" y="30" on="0"/>
        <pt x="518" y="8" on="0"/>
        <pt x="494" y="0" on="0"/>
        <pt x="477" y="0" on="1"/>
        <pt x="93" y="0" on="1"/>
        <pt x="76" y="0" on="0"/>
        <pt x="52" y="8" on="0"/>
        <pt x="37" y="30" on="0"/>
        <pt x="30" y="70" on="0"/>
        <pt x="30" y="102" on="1"/>
        <pt x="30" y="134" on="0"/>
        <pt x="37" y="174" on="0"/>
        <pt x="52" y="197" on="0"/>
        <pt x="76" y="205" on="0"/>
        <pt x="93" y="205" on="1"/>
        <pt x="155" y="205" on="1"/>
      </contour>
    </TTGlyph>
    <TTGlyph name="Y" xMin="40" yMin="0" xMax="1188" yMax="1187">
      <contour>
        <pt x="489" y="460" on="1"/>
        <pt x="149" y="982" on="1"/>
        <pt x="103" y="982" on="1"/>
        <pt x="86" y="982" on="0"/>
        <pt x="62" y="990" on="0"/>
        <pt x="47" y="1012" on="0"/>
        <pt x="40" y="1052" on="0"/>
        <pt x="40" y="1084" on="1"/>
        <pt x="40" y="1116" on="0"/>
        <pt x="47" y="1156" on="0"/>
        <pt x="62" y="1179" on="0"/>
        <pt x="86" y="1187" on="0"/>
        <pt x="103" y="1187" on="1"/>
        <pt x="497" y="1187" on="1"/>
        <pt x="514" y="1187" on="0"/>
        <pt x="538" y="1179" on="0"/>
        <pt x="553" y="1156" on="0"/>
        <pt x="560" y="1116" on="0"/>
        <pt x="560" y="1084" on="1"/>
        <pt x="560" y="1052" on="0"/>
        <pt x="553" y="1012" on="0"/>
        <pt x="538" y="990" on="0"/>
        <pt x="514" y="982" on="0"/>
        <pt x="497" y="982" on="1"/>
        <pt x="430" y="982" on="1"/>
        <pt x="616" y="690" on="1"/>
        <pt x="804" y="982" on="1"/>
        <pt x="751" y="982" on="1"/>
        <pt x="734" y="982" on="0"/>
        <pt x="710" y="990" on="0"/>
        <pt x="695" y="1012" on="0"/>
        <pt x="688" y="1052" on="0"/>
        <pt x="688" y="1084" on="1"/>
        <pt x="688" y="1116" on="0"/>
        <pt x="695" y="1156" on="0"/>
        <pt x="710" y="1179" on="0"/>
        <pt x="734" y="1187" on="0"/>
        <pt x="751" y="1187" on="1"/>
        <pt x="1125" y="1187" on="1"/>
        <pt x="1142" y="1187" on="0"/>
        <pt x="1166" y="1179" on="0"/>
        <pt x="1181" y="1156" on="0"/>
        <pt x="1188" y="1116" on="0"/>
        <pt x="1188" y="1084" on="1"/>
        <pt x="1188" y="1052" on="0"/>
        <pt x="1181" y="1012" on="0"/>
        <pt x="1166" y="990" on="0"/>
        <pt x="1142" y="982" on="0"/>
        <pt x="1125" y="982" on="1"/>
        <pt x="1081" y="982" on="1"/>
        <pt x="739" y="459" on="1"/>
        <pt x="739" y="205" on="1"/>
        <pt x="935" y="205" on="1"/>
        <pt x="952" y="205" on="0"/>
        <pt x="976" y="197" on="0"/>
        <pt x="991" y="174" on="0"/>
        <pt x="998" y="134" on="0"/>
        <pt x="998" y="102" on="1"/>
        <pt x="998" y="70" on="0"/>
        <pt x="991" y="30" on="0"/>
        <pt x="976" y="8" on="0"/>
        <pt x="952" y="0" on="0"/>
        <pt x="935" y="0" on="1"/>
        <pt x="293" y="0" on="1"/>
        <pt x="276" y="0" on="0"/>
        <pt x="252" y="8" on="0"/>
        <pt x="237" y="30" on="0"/>
        <pt x="230" y="70" on="0"/>
        <pt x="230" y="102" on="1"/>
        <pt x="230" y="134" on="0"/>
        <pt x="237" y="174" on="0"/>
        <pt x="252" y="197" on="0"/>
        <pt x="276" y="205" on="0"/>
        <pt x="293" y="205" on="1"/>
        <pt x="489" y="205" on="1"/>
      </contour>
    </TTGlyph>
    <TTGlyph name="Yacute" xMin="40" yMin="0" xMax="1188" yMax="1678">
      <component glyphName="acute" x="-2" y="270" flags="0x204"/>
      <component glyphName="Y" x="0" y="0" flags="0x4"/>
    </TTGlyph>
    <TTGlyph name="Ycircumflex" xMin="40" yMin="0" xMax="1188" yMax="1676">
      <component glyphName="Y" x="0" y="0" flags="0x204"/>
      <component glyphName="circumflex" x="10" y="270" flags="0x4"/>
    </TTGlyph>
    <TTGlyph name="Ydieresis" xMin="40" yMin="0" xMax="1188" yMax="1615">
      <component glyphName="Y" x="0" y="0" flags="0x204"/>
      <component glyphName="dieresis" x="0" y="270" flags="0x4"/>
    </TTGlyph>
    <TTGlyph name="Ygrave" xMin="40" yMin="0" xMax="1188" yMax="1678">
      <component glyphName="Y" x="0" y="0" flags="0x204"/>
      <component glyphName="grave" x="20" y="270" flags="0x4"/>
    </TTGlyph>
    <TTGlyph name="Z" xMin="138" yMin="0" xMax="1080" yMax="1187">
      <contour>
        <pt x="850" y="215" on="1"/>
        <pt x="850" y="437" on="1"/>
        <pt x="850" y="471" on="0"/>
        <pt x="908" y="500" on="0"/>
        <pt x="972" y="500" on="1"/>
        <pt x="1004" y="500" on="0"/>
        <pt x="1046" y="493" on="0"/>
        <pt x="1070" y="478" on="0"/>
        <pt x="1080" y="454" on="0"/>
        <pt x="1080" y="437" on="1"/>
        <pt x="1080" y="65" on="1"/>
        <pt x="1080" y="30" on="0"/>
        <pt x="1050" y="0" on="0"/>
        <pt x="1015" y="0" on="1"/>
        <pt x="201" y="0" on="1"/>
        <pt x="184" y="0" on="0"/>
        <pt x="160" y="8" on="0"/>
        <pt x="145" y="30" on="0"/>
        <pt x="138" y="70" on="0"/>
        <pt x="138" y="102" on="1"/>
        <pt x="138" y="168" on="0"/>
        <pt x="158" y="195" on="1"/>
        <pt x="732" y="972" on="1"/>
        <pt x="398" y="972" on="1"/>
        <pt x="398" y="770" on="1"/>
        <pt x="398" y="736" on="0"/>
        <pt x="340" y="707" on="0"/>
        <pt x="276" y="707" on="1"/>
        <pt x="244" y="707" on="0"/>
        <pt x="202" y="714" on="0"/>
        <pt x="178" y="729" on="0"/>
        <pt x="168" y="753" on="0"/>
        <pt x="168" y="770" on="1"/>
        <pt x="168" y="1122" on="1"/>
        <pt x="168" y="1157" on="0"/>
        <pt x="198" y="1187" on="0"/>
        <pt x="233" y="1187" on="1"/>
        <pt x="1017" y="1187" on="1"/>
        <pt x="1034" y="1187" on="0"/>
        <pt x="1058" y="1179" on="0"/>
        <pt x="1073" y="1156" on="0"/>
        <pt x="1080" y="1116" on="0"/>
        <pt x="1080" y="1084" on="1"/>
        <pt x="1080" y="1052" on="0"/>
        <pt x="1068" y="1007" on="0"/>
        <pt x="1057" y="992" on="1"/>
        <pt x="483" y="215" on="1"/>
      </contour>
    </TTGlyph>
    <TTGlyph name="Zacute" xMin="138" yMin="0" xMax="1080" yMax="1678">
      <component glyphName="Z" x="0" y="0" flags="0x204"/>
      <component glyphName="acute" x="-2" y="270" flags="0x4"/>
    </TTGlyph>
    <TTGlyph name="Zcaron" xMin="138" yMin="0" xMax="1080" yMax="1653">
      <component glyphName="Z" x="0" y="0" flags="0x204"/>
      <component glyphName="caron" x="8" y="260" flags="0x4"/>
    </TTGlyph>
    <TTGlyph name="Zdotaccent" xMin="138" yMin="0" xMax="1080" yMax="1676">
      <component glyphName="dotaccent" x="0" y="270" flags="0x204"/>
      <component glyphName="Z" x="0" y="0" flags="0x4"/>
    </TTGlyph>
    <TTGlyph name="a" xMin="110" yMin="-22" xMax="1179" yMax="946">
      <contour>
        <pt x="822" y="106" on="1"/>
        <pt x="745" y="46" on="0"/>
        <pt x="570" y="-22" on="0"/>
        <pt x="474" y="-22" on="1"/>
        <pt x="388" y="-22" on="0"/>
        <pt x="253" y="22" on="0"/>
        <pt x="159" y="105" on="0"/>
        <pt x="110" y="222" on="0"/>
        <pt x="110" y="295" on="1"/>
        <pt x="110" y="365" on="0"/>
        <pt x="161" y="475" on="0"/>
        <pt x="258" y="550" on="0"/>
        <pt x="397" y="589" on="0"/>
        <pt x="486" y="589" on="1"/>
        <pt x="619" y="589" on="0"/>
        <pt x="769" y="559" on="1"/>
        <pt x="769" y="588" on="1"/>
        <pt x="769" y="619" on="0"/>
        <pt x="749" y="668" on="0"/>
        <pt x="704" y="702" on="0"/>
        <pt x="629" y="719" on="0"/>
        <pt x="575" y="719" on="1"/>
        <pt x="515" y="719" on="0"/>
        <pt x="373" y="689" on="0"/>
        <pt x="304" y="666" on="1"/>
        <pt x="288" y="661" on="0"/>
        <pt x="260" y="660" on="0"/>
        <pt x="234" y="675" on="0"/>
        <pt x="210" y="710" on="0"/>
        <pt x="199" y="740" on="1"/>
        <pt x="177" y="800" on="0"/>
        <pt x="191" y="864" on="0"/>
        <pt x="226" y="877" on="1"/>
        <pt x="273" y="894" on="0"/>
        <pt x="372" y="920" on="0"/>
        <pt x="469" y="937" on="0"/>
        <pt x="562" y="946" on="0"/>
        <pt x="603" y="946" on="1"/>
        <pt x="717" y="946" on="0"/>
        <pt x="876" y="895" on="0"/>
        <pt x="975" y="799" on="0"/>
        <pt x="1019" y="663" on="0"/>
        <pt x="1019" y="579" on="1"/>
        <pt x="1019" y="290" on="1"/>
        <pt x="1019" y="250" on="0"/>
        <pt x="1053" y="205" on="0"/>
        <pt x="1085" y="205" on="1"/>
        <pt x="1116" y="205" on="1"/>
        <pt x="1133" y="205" on="0"/>
        <pt x="1157" y="197" on="0"/>
        <pt x="1172" y="174" on="0"/>
        <pt x="1179" y="134" on="0"/>
        <pt x="1179" y="102" on="1"/>
        <pt x="1179" y="70" on="0"/>
        <pt x="1172" y="30" on="0"/>
        <pt x="1157" y="8" on="0"/>
        <pt x="1133" y="0" on="0"/>
        <pt x="1116" y="0" on="1"/>
        <pt x="1004" y="0" on="1"/>
        <pt x="944" y="0" on="0"/>
        <pt x="848" y="49" on="0"/>
      </contour>
      <contour>
        <pt x="769" y="356" on="1"/>
        <pt x="699" y="370" on="0"/>
        <pt x="572" y="383" on="0"/>
        <pt x="511" y="383" on="1"/>
        <pt x="440" y="383" on="0"/>
        <pt x="368" y="333" on="0"/>
        <pt x="368" y="285" on="1"/>
        <pt x="368" y="237" on="0"/>
        <pt x="439" y="189" on="0"/>
        <pt x="506" y="189" on="1"/>
        <pt x="578" y="189" on="0"/>
        <pt x="712" y="246" on="0"/>
        <pt x="769" y="292" on="1"/>
      </contour>
    </TTGlyph>
    <TTGlyph name="aacute" xMin="120" yMin="-22" xMax="1189" yMax="1408">
      <component glyphName="a" x="10" y="0" flags="0x204"/>
      <component glyphName="acute" x="-62" y="0" flags="0x4"/>
    </TTGlyph>
    <TTGlyph name="abreve" xMin="120" yMin="-22" xMax="1189" yMax="1385">
      <component glyphName="a" x="10" y="0" flags="0x204"/>
      <component glyphName="breve" x="3" y="0" flags="0x4"/>
    </TTGlyph>
    <TTGlyph name="acircumflex" xMin="120" yMin="-22" xMax="1189" yMax="1406">
      <component glyphName="a" x="10" y="0" flags="0x204"/>
      <component glyphName="circumflex" x="0" y="0" flags="0x4"/>
    </TTGlyph>
    <TTGlyph name="acute" xMin="385" yMin="1026" xMax="974" yMax="1408">
      <contour>
        <pt x="824" y="1392" on="1"/>
        <pt x="852" y="1408" on="0"/>
        <pt x="914" y="1369" on="0"/>
        <pt x="944" y="1301" on="1"/>
        <pt x="974" y="1232" on="0"/>
        <pt x="967" y="1165" on="0"/>
        <pt x="941" y="1158" on="1"/>
        <pt x="461" y="1033" on="1"/>
        <pt x="437" y="1026" on="0"/>
        <pt x="401" y="1049" on="0"/>
        <pt x="393" y="1072" on="1"/>
        <pt x="385" y="1094" on="0"/>
        <pt x="396" y="1133" on="0"/>
        <pt x="416" y="1145" on="1"/>
      </contour>
    </TTGlyph>
    <TTGlyph name="adieresis" xMin="120" yMin="-22" xMax="1189" yMax="1345">
      <component glyphName="a" x="10" y="0" flags="0x204"/>
      <component glyphName="dieresis" x="0" y="0" flags="0x4"/>
    </TTGlyph>
    <TTGlyph name="ae" xMin="32" yMin="-22" xMax="1195" yMax="946">
      <contour>
        <pt x="509" y="390" on="1"/>
        <pt x="455" y="393" on="0"/>
        <pt x="364" y="390" on="0"/>
        <pt x="298" y="369" on="0"/>
        <pt x="260" y="324" on="0"/>
        <pt x="260" y="285" on="1"/>
        <pt x="260" y="240" on="0"/>
        <pt x="308" y="189" on="0"/>
        <pt x="358" y="189" on="1"/>
        <pt x="394" y="189" on="0"/>
        <pt x="450" y="215" on="0"/>
        <pt x="489" y="260" on="0"/>
        <pt x="509" y="322" on="0"/>
        <pt x="509" y="358" on="1"/>
      </contour>
      <contour>
        <pt x="968" y="565" on="1"/>
        <pt x="963" y="637" on="0"/>
        <pt x="909" y="719" on="0"/>
        <pt x="858" y="719" on="1"/>
        <pt x="797" y="719" on="0"/>
        <pt x="735" y="643" on="0"/>
        <pt x="724" y="565" on="1"/>
      </contour>
      <contour>
        <pt x="724" y="370" on="1"/>
        <pt x="735" y="289" on="0"/>
        <pt x="801" y="205" on="0"/>
        <pt x="858" y="205" on="1"/>
        <pt x="886" y="205" on="0"/>
        <pt x="938" y="211" on="0"/>
        <pt x="991" y="223" on="0"/>
        <pt x="1045" y="242" on="0"/>
        <pt x="1076" y="255" on="1"/>
        <pt x="1095" y="263" on="0"/>
        <pt x="1125" y="259" on="0"/>
        <pt x="1149" y="238" on="0"/>
        <pt x="1168" y="202" on="0"/>
        <pt x="1176" y="179" on="1"/>
        <pt x="1195" y="125" on="0"/>
        <pt x="1181" y="65" on="0"/>
        <pt x="1145" y="49" on="1"/>
        <pt x="1077" y="20" on="0"/>
        <pt x="924" y="-22" on="0"/>
        <pt x="843" y="-22" on="1"/>
        <pt x="760" y="-22" on="0"/>
        <pt x="642" y="43" on="0"/>
        <pt x="603" y="102" on="1"/>
        <pt x="555" y="39" on="0"/>
        <pt x="420" y="-22" on="0"/>
        <pt x="335" y="-22" on="1"/>
        <pt x="267" y="-22" on="0"/>
        <pt x="155" y="18" on="0"/>
        <pt x="76" y="95" on="0"/>
        <pt x="32" y="205" on="0"/>
        <pt x="32" y="275" on="1"/>
        <pt x="32" y="362" on="0"/>
        <pt x="95" y="481" on="0"/>
        <pt x="202" y="554" on="0"/>
        <pt x="341" y="587" on="0"/>
        <pt x="417" y="587" on="1"/>
        <pt x="440" y="587" on="0"/>
        <pt x="486" y="584" on="0"/>
        <pt x="509" y="582" on="1"/>
        <pt x="509" y="588" on="1"/>
        <pt x="509" y="651" on="0"/>
        <pt x="439" y="719" on="0"/>
        <pt x="365" y="719" on="1"/>
        <pt x="318" y="719" on="0"/>
        <pt x="232" y="689" on="0"/>
        <pt x="189" y="667" on="1"/>
        <pt x="158" y="651" on="0"/>
        <pt x="103" y="684" on="0"/>
        <pt x="78" y="738" on="1"/>
        <pt x="57" y="784" on="0"/>
        <pt x="64" y="849" on="0"/>
        <pt x="96" y="868" on="1"/>
        <pt x="162" y="906" on="0"/>
        <pt x="314" y="946" on="0"/>
        <pt x="393" y="946" on="1"/>
        <pt x="478" y="946" on="0"/>
        <pt x="596" y="897" on="0"/>
        <pt x="634" y="852" on="1"/>
        <pt x="674" y="897" on="0"/>
        <pt x="785" y="946" on="0"/>
        <pt x="858" y="946" on="1"/>
        <pt x="960" y="946" on="0"/>
        <pt x="1090" y="869" on="0"/>
        <pt x="1165" y="732" on="0"/>
        <pt x="1193" y="543" on="0"/>
        <pt x="1193" y="432" on="1"/>
        <pt x="1193" y="398" on="0"/>
        <pt x="1164" y="370" on="0"/>
        <pt x="1130" y="370" on="1"/>
      </contour>
    </TTGlyph>
    <TTGlyph name="agrave" xMin="120" yMin="-22" xMax="1189" yMax="1408">
      <component glyphName="a" x="10" y="0" flags="0x204"/>
      <component glyphName="grave" x="62" y="0" flags="0x4"/>
    </TTGlyph>
    <TTGlyph name="amacron" xMin="120" yMin="-22" xMax="1189" yMax="1275">
      <component glyphName="a" x="10" y="0" flags="0x204"/>
      <component glyphName="macron" x="0" y="0" flags="0x4"/>
    </TTGlyph>
    <TTGlyph name="ampersand" xMin="107" yMin="-22" xMax="1147" yMax="1209">
      <contour>
        <pt x="1084" y="205" on="1"/>
        <pt x="1101" y="205" on="0"/>
        <pt x="1125" y="197" on="0"/>
        <pt x="1140" y="174" on="0"/>
        <pt x="1147" y="134" on="0"/>
        <pt x="1147" y="102" on="1"/>
        <pt x="1147" y="70" on="0"/>
        <pt x="1140" y="30" on="0"/>
        <pt x="1125" y="8" on="0"/>
        <pt x="1101" y="0" on="0"/>
        <pt x="1084" y="0" on="1"/>
        <pt x="913" y="0" on="1"/>
        <pt x="873" y="0" on="0"/>
        <pt x="841" y="33" on="1"/>
        <pt x="776" y="100" on="1"/>
        <pt x="710" y="37" on="0"/>
        <pt x="551" y="-22" on="0"/>
        <pt x="456" y="-22" on="1"/>
        <pt x="376" y="-22" on="0"/>
        <pt x="247" y="28" on="0"/>
        <pt x="156" y="119" on="0"/>
        <pt x="107" y="245" on="0"/>
        <pt x="107" y="320" on="1"/>
        <pt x="107" y="417" on="0"/>
        <pt x="198" y="563" on="0"/>
        <pt x="287" y="622" on="1"/>
        <pt x="249" y="676" on="0"/>
        <pt x="202" y="797" on="0"/>
        <pt x="202" y="866" on="1"/>
        <pt x="202" y="940" on="0"/>
        <pt x="254" y="1066" on="0"/>
        <pt x="352" y="1157" on="0"/>
        <pt x="494" y="1209" on="0"/>
        <pt x="583" y="1209" on="1"/>
        <pt x="660" y="1209" on="0"/>
        <pt x="823" y="1162" on="0"/>
        <pt x="912" y="1113" on="1"/>
        <pt x="934" y="1101" on="0"/>
        <pt x="955" y="1072" on="0"/>
        <pt x="955" y="1051" on="1"/>
        <pt x="955" y="854" on="1"/>
        <pt x="955" y="820" on="0"/>
        <pt x="897" y="791" on="0"/>
        <pt x="833" y="791" on="1"/>
        <pt x="801" y="791" on="0"/>
        <pt x="759" y="798" on="0"/>
        <pt x="735" y="813" on="0"/>
        <pt x="725" y="837" on="0"/>
        <pt x="725" y="854" on="1"/>
        <pt x="725" y="956" on="1"/>
        <pt x="692" y="973" on="0"/>
        <pt x="620" y="992" on="0"/>
        <pt x="582" y="992" on="1"/>
        <pt x="526" y="992" on="0"/>
        <pt x="456" y="921" on="0"/>
        <pt x="456" y="861" on="1"/>
        <pt x="456" y="810" on="0"/>
        <pt x="516" y="715" on="0"/>
        <pt x="564" y="666" on="1"/>
        <pt x="745" y="477" on="1"/>
        <pt x="757" y="506" on="0"/>
        <pt x="781" y="569" on="0"/>
        <pt x="792" y="603" on="1"/>
        <pt x="798" y="622" on="0"/>
        <pt x="821" y="645" on="0"/>
        <pt x="844" y="645" on="1"/>
        <pt x="1064" y="645" on="1"/>
        <pt x="1081" y="645" on="0"/>
        <pt x="1105" y="637" on="0"/>
        <pt x="1120" y="615" on="0"/>
        <pt x="1127" y="575" on="0"/>
        <pt x="1127" y="543" on="1"/>
        <pt x="1127" y="511" on="0"/>
        <pt x="1120" y="471" on="0"/>
        <pt x="1105" y="448" on="0"/>
        <pt x="1081" y="440" on="0"/>
        <pt x="1064" y="440" on="1"/>
        <pt x="973" y="440" on="1"/>
        <pt x="946" y="363" on="0"/>
        <pt x="916" y="299" on="1"/>
        <pt x="1007" y="205" on="1"/>
      </contour>
      <contour>
        <pt x="422" y="469" on="1"/>
        <pt x="389" y="439" on="0"/>
        <pt x="355" y="372" on="0"/>
        <pt x="355" y="330" on="1"/>
        <pt x="355" y="273" on="0"/>
        <pt x="420" y="205" on="0"/>
        <pt x="476" y="205" on="1"/>
        <pt x="517" y="205" on="0"/>
        <pt x="586" y="236" on="0"/>
        <pt x="617" y="266" on="1"/>
      </contour>
    </TTGlyph>
    <TTGlyph name="aogonek" xMin="120" yMin="-472" xMax="1194" yMax="946">
      <contour>
        <pt x="832" y="106" on="1"/>
        <pt x="755" y="46" on="0"/>
        <pt x="580" y="-22" on="0"/>
        <pt x="484" y="-22" on="1"/>
        <pt x="398" y="-22" on="0"/>
        <pt x="263" y="22" on="0"/>
        <pt x="169" y="105" on="0"/>
        <pt x="120" y="222" on="0"/>
        <pt x="120" y="295" on="1"/>
        <pt x="120" y="365" on="0"/>
        <pt x="171" y="475" on="0"/>
        <pt x="268" y="550" on="0"/>
        <pt x="407" y="589" on="0"/>
        <pt x="496" y="589" on="1"/>
        <pt x="629" y="589" on="0"/>
        <pt x="779" y="559" on="1"/>
        <pt x="779" y="588" on="1"/>
        <pt x="779" y="619" on="0"/>
        <pt x="759" y="668" on="0"/>
        <pt x="714" y="702" on="0"/>
        <pt x="639" y="719" on="0"/>
        <pt x="585" y="719" on="1"/>
        <pt x="525" y="719" on="0"/>
        <pt x="383" y="689" on="0"/>
        <pt x="314" y="666" on="1"/>
        <pt x="298" y="661" on="0"/>
        <pt x="270" y="660" on="0"/>
        <pt x="244" y="675" on="0"/>
        <pt x="220" y="710" on="0"/>
        <pt x="209" y="740" on="1"/>
        <pt x="187" y="800" on="0"/>
        <pt x="201" y="864" on="0"/>
        <pt x="236" y="877" on="1"/>
        <pt x="283" y="894" on="0"/>
        <pt x="382" y="920" on="0"/>
        <pt x="479" y="937" on="0"/>
        <pt x="572" y="946" on="0"/>
        <pt x="613" y="946" on="1"/>
        <pt x="727" y="946" on="0"/>
        <pt x="886" y="895" on="0"/>
        <pt x="985" y="799" on="0"/>
        <pt x="1029" y="663" on="0"/>
        <pt x="1029" y="579" on="1"/>
        <pt x="1029" y="290" on="1"/>
        <pt x="1029" y="250" on="0"/>
        <pt x="1063" y="205" on="0"/>
        <pt x="1095" y="205" on="1"/>
        <pt x="1126" y="205" on="1"/>
        <pt x="1143" y="205" on="0"/>
        <pt x="1167" y="197" on="0"/>
        <pt x="1182" y="174" on="0"/>
        <pt x="1189" y="134" on="0"/>
        <pt x="1189" y="102" on="1"/>
        <pt x="1189" y="70" on="0"/>
        <pt x="1182" y="30" on="0"/>
        <pt x="1167" y="8" on="0"/>
        <pt x="1143" y="0" on="0"/>
        <pt x="1126" y="0" on="1"/>
        <pt x="1091" y="0" on="1"/>
        <pt x="1017" y="-63" on="0"/>
        <pt x="932" y="-180" on="0"/>
        <pt x="932" y="-231" on="1"/>
        <pt x="932" y="-266" on="0"/>
        <pt x="977" y="-298" on="0"/>
        <pt x="1020" y="-298" on="1"/>
        <pt x="1049" y="-298" on="0"/>
        <pt x="1108" y="-290" on="0"/>
        <pt x="1140" y="-285" on="1"/>
        <pt x="1160" y="-282" on="0"/>
        <pt x="1185" y="-318" on="0"/>
        <pt x="1188" y="-353" on="1"/>
        <pt x="1194" y="-424" on="0"/>
        <pt x="1151" y="-438" on="1"/>
        <pt x="1100" y="-454" on="0"/>
        <pt x="990" y="-472" on="0"/>
        <pt x="935" y="-472" on="1"/>
        <pt x="817" y="-472" on="0"/>
        <pt x="689" y="-369" on="0"/>
        <pt x="689" y="-269" on="1"/>
        <pt x="689" y="-221" on="0"/>
        <pt x="723" y="-140" on="0"/>
        <pt x="783" y="-69" on="0"/>
        <pt x="863" y="-7" on="0"/>
        <pt x="909" y="22" on="1"/>
        <pt x="885" y="35" on="0"/>
        <pt x="846" y="76" on="0"/>
      </contour>
      <contour>
        <pt x="779" y="356" on="1"/>
        <pt x="709" y="370" on="0"/>
        <pt x="582" y="383" on="0"/>
        <pt x="521" y="383" on="1"/>
        <pt x="450" y="383" on="0"/>
        <pt x="378" y="333" on="0"/>
        <pt x="378" y="285" on="1"/>
        <pt x="378" y="237" on="0"/>
        <pt x="449" y="189" on="0"/>
        <pt x="516" y="189" on="1"/>
        <pt x="588" y="189" on="0"/>
        <pt x="722" y="246" on="0"/>
        <pt x="779" y="292" on="1"/>
      </contour>
    </TTGlyph>
    <TTGlyph name="approxequal" xMin="143" yMin="192" xMax="1086" yMax="970">
      <contour>
        <pt x="239" y="690" on="1"/>
        <pt x="225" y="682" on="0"/>
        <pt x="199" y="685" on="0"/>
        <pt x="177" y="702" on="0"/>
        <pt x="160" y="729" on="0"/>
        <pt x="154" y="746" on="1"/>
        <pt x="148" y="762" on="0"/>
        <pt x="143" y="796" on="0"/>
        <pt x="144" y="828" on="0"/>
        <pt x="153" y="853" on="0"/>
        <pt x="161" y="861" on="1"/>
        <pt x="229" y="923" on="0"/>
        <pt x="355" y="970" on="0"/>
        <pt x="415" y="970" on="1"/>
        <pt x="468" y="970" on="0"/>
        <pt x="571" y="944" on="0"/>
        <pt x="672" y="914" on="0"/>
        <pt x="773" y="888" on="0"/>
        <pt x="826" y="888" on="1"/>
        <pt x="866" y="888" on="0"/>
        <pt x="947" y="907" on="0"/>
        <pt x="990" y="932" on="1"/>
        <pt x="1004" y="940" on="0"/>
        <pt x="1030" y="937" on="0"/>
        <pt x="1052" y="920" on="0"/>
        <pt x="1069" y="892" on="0"/>
        <pt x="1075" y="876" on="1"/>
        <pt x="1081" y="860" on="0"/>
        <pt x="1086" y="826" on="0"/>
        <pt x="1085" y="794" on="0"/>
        <pt x="1076" y="768" on="0"/>
        <pt x="1068" y="761" on="1"/>
        <pt x="999" y="699" on="0"/>
        <pt x="873" y="652" on="0"/>
        <pt x="813" y="652" on="1"/>
        <pt x="760" y="652" on="0"/>
        <pt x="657" y="678" on="0"/>
        <pt x="556" y="708" on="0"/>
        <pt x="454" y="734" on="0"/>
        <pt x="402" y="734" on="1"/>
        <pt x="362" y="734" on="0"/>
        <pt x="282" y="714" on="0"/>
      </contour>
      <contour>
        <pt x="239" y="230" on="1"/>
        <pt x="225" y="222" on="0"/>
        <pt x="199" y="225" on="0"/>
        <pt x="177" y="242" on="0"/>
        <pt x="160" y="269" on="0"/>
        <pt x="154" y="286" on="1"/>
        <pt x="148" y="302" on="0"/>
        <pt x="143" y="336" on="0"/>
        <pt x="144" y="368" on="0"/>
        <pt x="153" y="393" on="0"/>
        <pt x="161" y="401" on="1"/>
        <pt x="229" y="463" on="0"/>
        <pt x="355" y="510" on="0"/>
        <pt x="415" y="510" on="1"/>
        <pt x="468" y="510" on="0"/>
        <pt x="571" y="484" on="0"/>
        <pt x="672" y="454" on="0"/>
        <pt x="773" y="428" on="0"/>
        <pt x="826" y="428" on="1"/>
        <pt x="866" y="428" on="0"/>
        <pt x="947" y="447" on="0"/>
        <pt x="990" y="472" on="1"/>
        <pt x="1004" y="480" on="0"/>
        <pt x="1030" y="477" on="0"/>
        <pt x="1052" y="460" on="0"/>
        <pt x="1069" y="432" on="0"/>
        <pt x="1075" y="416" on="1"/>
        <pt x="1081" y="400" on="0"/>
        <pt x="1086" y="366" on="0"/>
        <pt x="1085" y="334" on="0"/>
        <pt x="1076" y="308" on="0"/>
        <pt x="1068" y="301" on="1"/>
        <pt x="999" y="239" on="0"/>
        <pt x="873" y="192" on="0"/>
        <pt x="813" y="192" on="1"/>
        <pt x="760" y="192" on="0"/>
        <pt x="657" y="218" on="0"/>
        <pt x="556" y="248" on="0"/>
        <pt x="454" y="274" on="0"/>
        <pt x="402" y="274" on="1"/>
        <pt x="362" y="274" on="0"/>
        <pt x="282" y="254" on="0"/>
      </contour>
    </TTGlyph>
    <TTGlyph name="aring" xMin="120" yMin="-22" xMax="1189" yMax="1568">
      <component glyphName="a" x="10" y="0" flags="0x204"/>
      <component glyphName="ring" x="7" y="11" flags="0x4"/>
    </TTGlyph>
    <TTGlyph name="asciicircum" xMin="190" yMin="467" xMax="1038" yMax="1209">
      <contour>
        <pt x="427" y="497" on="1"/>
        <pt x="421" y="485" on="0"/>
        <pt x="393" y="472" on="0"/>
        <pt x="354" y="467" on="0"/>
        <pt x="310" y="471" on="0"/>
        <pt x="288" y="476" on="1"/>
        <pt x="265" y="481" on="0"/>
        <pt x="226" y="498" on="0"/>
        <pt x="199" y="520" on="0"/>
        <pt x="190" y="547" on="0"/>
        <pt x="198" y="562" on="1"/>
        <pt x="516" y="1172" on="1"/>
        <pt x="525" y="1190" on="0"/>
        <pt x="569" y="1209" on="0"/>
        <pt x="614" y="1209" on="1"/>
        <pt x="658" y="1209" on="0"/>
        <pt x="703" y="1190" on="0"/>
        <pt x="712" y="1172" on="1"/>
        <pt x="1030" y="562" on="1"/>
        <pt x="1038" y="547" on="0"/>
        <pt x="1029" y="520" on="0"/>
        <pt x="1002" y="498" on="0"/>
        <pt x="962" y="481" on="0"/>
        <pt x="940" y="476" on="1"/>
        <pt x="918" y="471" on="0"/>
        <pt x="874" y="467" on="0"/>
        <pt x="835" y="472" on="0"/>
        <pt x="807" y="485" on="0"/>
        <pt x="801" y="497" on="1"/>
        <pt x="614" y="887" on="1"/>
      </contour>
    </TTGlyph>
    <TTGlyph name="asciitilde" xMin="143" yMin="422" xMax="1086" yMax="740">
      <contour>
        <pt x="239" y="460" on="1"/>
        <pt x="225" y="452" on="0"/>
        <pt x="199" y="455" on="0"/>
        <pt x="177" y="472" on="0"/>
        <pt x="160" y="499" on="0"/>
        <pt x="154" y="516" on="1"/>
        <pt x="148" y="532" on="0"/>
        <pt x="143" y="566" on="0"/>
        <pt x="144" y="598" on="0"/>
        <pt x="153" y="623" on="0"/>
        <pt x="161" y="631" on="1"/>
        <pt x="229" y="693" on="0"/>
        <pt x="355" y="740" on="0"/>
        <pt x="415" y="740" on="1"/>
        <pt x="468" y="740" on="0"/>
        <pt x="571" y="714" on="0"/>
        <pt x="672" y="684" on="0"/>
        <pt x="773" y="658" on="0"/>
        <pt x="826" y="658" on="1"/>
        <pt x="866" y="658" on="0"/>
        <pt x="947" y="677" on="0"/>
        <pt x="990" y="702" on="1"/>
        <pt x="1004" y="710" on="0"/>
        <pt x="1030" y="707" on="0"/>
        <pt x="1052" y="690" on="0"/>
        <pt x="1069" y="662" on="0"/>
        <pt x="1075" y="646" on="1"/>
        <pt x="1081" y="630" on="0"/>
        <pt x="1086" y="596" on="0"/>
        <pt x="1085" y="564" on="0"/>
        <pt x="1076" y="538" on="0"/>
        <pt x="1068" y="531" on="1"/>
        <pt x="999" y="469" on="0"/>
        <pt x="873" y="422" on="0"/>
        <pt x="813" y="422" on="1"/>
        <pt x="760" y="422" on="0"/>
        <pt x="657" y="448" on="0"/>
        <pt x="556" y="478" on="0"/>
        <pt x="454" y="504" on="0"/>
        <pt x="402" y="504" on="1"/>
        <pt x="362" y="504" on="0"/>
        <pt x="282" y="484" on="0"/>
      </contour>
    </TTGlyph>
    <TTGlyph name="asterisk" xMin="186" yMin="384" xMax="1041" yMax="1209">
      <contour>
        <pt x="614" y="1209" on="1"/>
        <pt x="648" y="1209" on="0"/>
        <pt x="698" y="1186" on="0"/>
        <pt x="728" y="1147" on="0"/>
        <pt x="736" y="1097" on="0"/>
        <pt x="730" y="1069" on="1"/>
        <pt x="683" y="865" on="1"/>
        <pt x="862" y="973" on="1"/>
        <pt x="886" y="988" on="0"/>
        <pt x="937" y="995" on="0"/>
        <pt x="983" y="979" on="0"/>
        <pt x="1020" y="939" on="0"/>
        <pt x="1031" y="906" on="1"/>
        <pt x="1041" y="873" on="0"/>
        <pt x="1035" y="819" on="0"/>
        <pt x="1008" y="780" on="0"/>
        <pt x="962" y="756" on="0"/>
        <pt x="934" y="753" on="1"/>
        <pt x="726" y="734" on="1"/>
        <pt x="884" y="597" on="1"/>
        <pt x="905" y="578" on="0"/>
        <pt x="928" y="532" on="0"/>
        <pt x="927" y="484" on="0"/>
        <pt x="901" y="436" on="0"/>
        <pt x="873" y="415" on="1"/>
        <pt x="845" y="395" on="0"/>
        <pt x="792" y="384" on="0"/>
        <pt x="745" y="398" on="0"/>
        <pt x="708" y="434" on="0"/>
        <pt x="697" y="460" on="1"/>
        <pt x="614" y="653" on="1"/>
        <pt x="531" y="460" on="1"/>
        <pt x="520" y="434" on="0"/>
        <pt x="483" y="398" on="0"/>
        <pt x="436" y="384" on="0"/>
        <pt x="383" y="395" on="0"/>
        <pt x="355" y="415" on="1"/>
        <pt x="327" y="436" on="0"/>
        <pt x="301" y="484" on="0"/>
        <pt x="300" y="532" on="0"/>
        <pt x="323" y="578" on="0"/>
        <pt x="344" y="597" on="1"/>
        <pt x="502" y="734" on="1"/>
        <pt x="294" y="753" on="1"/>
        <pt x="265" y="756" on="0"/>
        <pt x="220" y="780" on="0"/>
        <pt x="193" y="819" on="0"/>
        <pt x="186" y="873" on="0"/>
        <pt x="197" y="906" on="1"/>
        <pt x="208" y="939" on="0"/>
        <pt x="245" y="979" on="0"/>
        <pt x="291" y="995" on="0"/>
        <pt x="342" y="988" on="0"/>
        <pt x="366" y="973" on="1"/>
        <pt x="545" y="865" on="1"/>
        <pt x="498" y="1069" on="1"/>
        <pt x="492" y="1097" on="0"/>
        <pt x="500" y="1147" on="0"/>
        <pt x="530" y="1186" on="0"/>
        <pt x="579" y="1209" on="0"/>
      </contour>
    </TTGlyph>
    <TTGlyph name="at" xMin="33" yMin="-153" xMax="1187" yMax="1078">
      <contour>
        <pt x="704" y="261" on="1"/>
        <pt x="669" y="196" on="0"/>
        <pt x="573" y="117" on="0"/>
        <pt x="507" y="117" on="1"/>
        <pt x="466" y="117" on="0"/>
        <pt x="398" y="148" on="0"/>
        <pt x="348" y="209" on="0"/>
        <pt x="321" y="299" on="0"/>
        <pt x="321" y="357" on="1"/>
        <pt x="321" y="435" on="0"/>
        <pt x="372" y="592" on="0"/>
        <pt x="458" y="720" on="0"/>
        <pt x="573" y="800" on="0"/>
        <pt x="638" y="800" on="1"/>
        <pt x="691" y="800" on="0"/>
        <pt x="750" y="735" on="0"/>
        <pt x="766" y="685" on="1"/>
        <pt x="799" y="754" on="1"/>
        <pt x="804" y="762" on="0"/>
        <pt x="845" y="763" on="0"/>
        <pt x="868" y="757" on="1"/>
        <pt x="892" y="750" on="0"/>
        <pt x="924" y="730" on="0"/>
        <pt x="920" y="716" on="1"/>
        <pt x="848" y="404" on="1"/>
        <pt x="840" y="372" on="0"/>
        <pt x="841" y="324" on="0"/>
        <pt x="856" y="293" on="0"/>
        <pt x="881" y="278" on="0"/>
        <pt x="897" y="278" on="1"/>
        <pt x="925" y="278" on="0"/>
        <pt x="974" y="313" on="0"/>
        <pt x="1010" y="379" on="0"/>
        <pt x="1030" y="473" on="0"/>
        <pt x="1030" y="531" on="1"/>
        <pt x="1030" y="619" on="0"/>
        <pt x="979" y="765" on="0"/>
        <pt x="882" y="868" on="0"/>
        <pt x="743" y="925" on="0"/>
        <pt x="655" y="925" on="1"/>
        <pt x="553" y="925" on="0"/>
        <pt x="384" y="841" on="0"/>
        <pt x="263" y="695" on="0"/>
        <pt x="196" y="500" on="0"/>
        <pt x="196" y="389" on="1"/>
        <pt x="196" y="302" on="0"/>
        <pt x="244" y="159" on="0"/>
        <pt x="337" y="57" on="0"/>
        <pt x="472" y="0" on="0"/>
        <pt x="560" y="0" on="1"/>
        <pt x="640" y="0" on="0"/>
        <pt x="767" y="23" on="0"/>
        <pt x="818" y="40" on="1"/>
        <pt x="835" y="46" on="0"/>
        <pt x="864" y="26" on="0"/>
        <pt x="875" y="-17" on="1"/>
        <pt x="886" y="-61" on="0"/>
        <pt x="874" y="-94" on="0"/>
        <pt x="858" y="-101" on="1"/>
        <pt x="832" y="-113" on="0"/>
        <pt x="764" y="-132" on="0"/>
        <pt x="686" y="-145" on="0"/>
        <pt x="603" y="-153" on="0"/>
        <pt x="562" y="-153" on="1"/>
        <pt x="438" y="-153" on="0"/>
        <pt x="242" y="-77" on="0"/>
        <pt x="105" y="64" on="0"/>
        <pt x="33" y="265" on="0"/>
        <pt x="33" y="389" on="1"/>
        <pt x="33" y="486" on="0"/>
        <pt x="76" y="664" on="0"/>
        <pt x="155" y="817" on="0"/>
        <pt x="267" y="941" on="0"/>
        <pt x="407" y="1030" on="0"/>
        <pt x="570" y="1078" on="0"/>
        <pt x="660" y="1078" on="1"/>
        <pt x="780" y="1078" on="0"/>
        <pt x="975" y="996" on="0"/>
        <pt x="1112" y="851" on="0"/>
        <pt x="1187" y="650" on="0"/>
        <pt x="1187" y="531" on="1"/>
        <pt x="1187" y="433" on="0"/>
        <pt x="1140" y="281" on="0"/>
        <pt x="1058" y="176" on="0"/>
        <pt x="946" y="122" on="0"/>
        <pt x="881" y="122" on="1"/>
        <pt x="809" y="122" on="0"/>
        <pt x="721" y="200" on="0"/>
      </contour>
      <contour>
        <pt x="496" y="379" on="1"/>
        <pt x="496" y="330" on="0"/>
        <pt x="533" y="281" on="0"/>
        <pt x="562" y="281" on="1"/>
        <pt x="589" y="281" on="0"/>
        <pt x="642" y="337" on="0"/>
        <pt x="684" y="417" on="0"/>
        <pt x="710" y="507" on="0"/>
        <pt x="710" y="541" on="1"/>
        <pt x="710" y="588" on="0"/>
        <pt x="679" y="643" on="0"/>
        <pt x="644" y="643" on="1"/>
        <pt x="620" y="643" on="0"/>
        <pt x="568" y="597" on="0"/>
        <pt x="525" y="522" on="0"/>
        <pt x="496" y="427" on="0"/>
      </contour>
    </TTGlyph>
    <TTGlyph name="atilde" xMin="120" yMin="-22" xMax="1189" yMax="1324">
      <component glyphName="a" x="10" y="0" flags="0x204"/>
      <component glyphName="tilde" x="0" y="0" flags="0x4"/>
    </TTGlyph>
    <TTGlyph name="b" xMin="27" yMin="-22" xMax="1131" yMax="1312">
      <contour>
        <pt x="187" y="1107" on="1"/>
        <pt x="90" y="1107" on="1"/>
        <pt x="73" y="1107" on="0"/>
        <pt x="49" y="1115" on="0"/>
        <pt x="34" y="1137" on="0"/>
        <pt x="27" y="1177" on="0"/>
        <pt x="27" y="1209" on="1"/>
        <pt x="27" y="1241" on="0"/>
        <pt x="34" y="1281" on="0"/>
        <pt x="49" y="1304" on="0"/>
        <pt x="73" y="1312" on="0"/>
        <pt x="90" y="1312" on="1"/>
        <pt x="374" y="1312" on="1"/>
        <pt x="408" y="1312" on="0"/>
        <pt x="437" y="1283" on="0"/>
        <pt x="437" y="1249" on="1"/>
        <pt x="437" y="828" on="1"/>
        <pt x="488" y="884" on="0"/>
        <pt x="620" y="946" on="0"/>
        <pt x="700" y="946" on="1"/>
        <pt x="801" y="946" on="0"/>
        <pt x="961" y="871" on="0"/>
        <pt x="1072" y="740" on="0"/>
        <pt x="1131" y="563" on="0"/>
        <pt x="1131" y="462" on="1"/>
        <pt x="1131" y="361" on="0"/>
        <pt x="1072" y="184" on="0"/>
        <pt x="961" y="53" on="0"/>
        <pt x="801" y="-22" on="0"/>
        <pt x="700" y="-22" on="1"/>
        <pt x="603" y="-22" on="0"/>
        <pt x="448" y="68" on="0"/>
        <pt x="397" y="147" on="1"/>
        <pt x="397" y="63" on="1"/>
        <pt x="397" y="29" on="0"/>
        <pt x="368" y="0" on="0"/>
        <pt x="334" y="0" on="1"/>
        <pt x="110" y="0" on="1"/>
        <pt x="93" y="0" on="0"/>
        <pt x="69" y="8" on="0"/>
        <pt x="54" y="31" on="0"/>
        <pt x="47" y="71" on="0"/>
        <pt x="47" y="103" on="1"/>
        <pt x="47" y="135" on="0"/>
        <pt x="54" y="175" on="0"/>
        <pt x="69" y="197" on="0"/>
        <pt x="93" y="205" on="0"/>
        <pt x="110" y="205" on="1"/>
        <pt x="187" y="205" on="1"/>
      </contour>
      <contour>
        <pt x="430" y="462" on="1"/>
        <pt x="430" y="400" on="0"/>
        <pt x="467" y="304" on="0"/>
        <pt x="530" y="239" on="0"/>
        <pt x="613" y="205" on="0"/>
        <pt x="660" y="205" on="1"/>
        <pt x="707" y="205" on="0"/>
        <pt x="782" y="241" on="0"/>
        <pt x="835" y="309" on="0"/>
        <pt x="863" y="403" on="0"/>
        <pt x="863" y="462" on="1"/>
        <pt x="863" y="520" on="0"/>
        <pt x="835" y="615" on="0"/>
        <pt x="782" y="683" on="0"/>
        <pt x="707" y="719" on="0"/>
        <pt x="660" y="719" on="1"/>
        <pt x="613" y="719" on="0"/>
        <pt x="530" y="685" on="0"/>
        <pt x="467" y="620" on="0"/>
        <pt x="430" y="524" on="0"/>
      </contour>
    </TTGlyph>
    <TTGlyph name="backslash" xMin="159" yMin="-300" xMax="1069" yMax="1339">
      <contour>
        <pt x="171" y="1221" on="1"/>
        <pt x="159" y="1248" on="0"/>
        <pt x="180" y="1291" on="0"/>
        <pt x="227" y="1322" on="0"/>
        <pt x="288" y="1339" on="0"/>
        <pt x="317" y="1339" on="1"/>
        <pt x="344" y="1339" on="0"/>
        <pt x="387" y="1322" on="0"/>
        <pt x="395" y="1305" on="1"/>
        <pt x="1057" y="-183" on="1"/>
        <pt x="1069" y="-209" on="0"/>
        <pt x="1047" y="-252" on="0"/>
        <pt x="1000" y="-283" on="0"/>
        <pt x="938" y="-300" on="0"/>
        <pt x="909" y="-300" on="1"/>
        <pt x="883" y="-300" on="0"/>
        <pt x="841" y="-284" on="0"/>
        <pt x="833" y="-267" on="1"/>
      </contour>
    </TTGlyph>
    <TTGlyph name="bar" xMin="489" yMin="-415" xMax="739" yMax="1334">
      <contour>
        <pt x="489" y="1271" on="1"/>
        <pt x="489" y="1305" on="0"/>
        <pt x="557" y="1334" on="0"/>
        <pt x="621" y="1334" on="1"/>
        <pt x="685" y="1334" on="0"/>
        <pt x="739" y="1305" on="0"/>
        <pt x="739" y="1271" on="1"/>
        <pt x="739" y="-352" on="1"/>
        <pt x="739" y="-386" on="0"/>
        <pt x="671" y="-415" on="0"/>
        <pt x="607" y="-415" on="1"/>
        <pt x="543" y="-415" on="0"/>
        <pt x="489" y="-386" on="0"/>
        <pt x="489" y="-352" on="1"/>
      </contour>
    </TTGlyph>
    <TTGlyph name="braceleft" xMin="205" yMin="-393" xMax="918" yMax="1312">
      <contour>
        <pt x="540" y="482" on="1"/>
        <pt x="575" y="461" on="0"/>
        <pt x="633" y="407" on="0"/>
        <pt x="675" y="338" on="0"/>
        <pt x="698" y="254" on="0"/>
        <pt x="698" y="203" on="1"/>
        <pt x="698" y="2" on="1"/>
        <pt x="698" y="-98" on="0"/>
        <pt x="777" y="-188" on="0"/>
        <pt x="855" y="-188" on="1"/>
        <pt x="872" y="-188" on="0"/>
        <pt x="896" y="-196" on="0"/>
        <pt x="911" y="-218" on="0"/>
        <pt x="918" y="-258" on="0"/>
        <pt x="918" y="-290" on="1"/>
        <pt x="918" y="-322" on="0"/>
        <pt x="911" y="-362" on="0"/>
        <pt x="896" y="-385" on="0"/>
        <pt x="872" y="-393" on="0"/>
        <pt x="855" y="-393" on="1"/>
        <pt x="655" y="-393" on="0"/>
        <pt x="448" y="-204" on="0"/>
        <pt x="448" y="-10" on="1"/>
        <pt x="448" y="193" on="1"/>
        <pt x="448" y="284" on="0"/>
        <pt x="364" y="379" on="0"/>
        <pt x="268" y="379" on="1"/>
        <pt x="251" y="379" on="0"/>
        <pt x="227" y="387" on="0"/>
        <pt x="212" y="410" on="0"/>
        <pt x="205" y="450" on="0"/>
        <pt x="205" y="482" on="1"/>
        <pt x="205" y="514" on="0"/>
        <pt x="212" y="554" on="0"/>
        <pt x="227" y="576" on="0"/>
        <pt x="251" y="584" on="0"/>
        <pt x="268" y="584" on="1"/>
        <pt x="364" y="584" on="0"/>
        <pt x="448" y="679" on="0"/>
        <pt x="448" y="770" on="1"/>
        <pt x="448" y="929" on="1"/>
        <pt x="448" y="1122" on="0"/>
        <pt x="655" y="1312" on="0"/>
        <pt x="855" y="1312" on="1"/>
        <pt x="872" y="1312" on="0"/>
        <pt x="896" y="1304" on="0"/>
        <pt x="911" y="1281" on="0"/>
        <pt x="918" y="1241" on="0"/>
        <pt x="918" y="1209" on="1"/>
        <pt x="918" y="1177" on="0"/>
        <pt x="911" y="1137" on="0"/>
        <pt x="896" y="1115" on="0"/>
        <pt x="872" y="1107" on="0"/>
        <pt x="855" y="1107" on="1"/>
        <pt x="777" y="1107" on="0"/>
        <pt x="698" y="1017" on="0"/>
        <pt x="698" y="917" on="1"/>
        <pt x="698" y="760" on="1"/>
        <pt x="698" y="709" on="0"/>
        <pt x="675" y="625" on="0"/>
        <pt x="633" y="557" on="0"/>
        <pt x="575" y="503" on="0"/>
      </contour>
    </TTGlyph>
    <TTGlyph name="braceright" xMin="310" yMin="-393" xMax="1023" yMax="1312">
      <contour>
        <pt x="688" y="482" on="1"/>
        <pt x="653" y="503" on="0"/>
        <pt x="595" y="557" on="0"/>
        <pt x="553" y="625" on="0"/>
        <pt x="530" y="709" on="0"/>
        <pt x="530" y="760" on="1"/>
        <pt x="530" y="917" on="1"/>
        <pt x="530" y="1017" on="0"/>
        <pt x="451" y="1107" on="0"/>
        <pt x="373" y="1107" on="1"/>
        <pt x="356" y="1107" on="0"/>
        <pt x="332" y="1115" on="0"/>
        <pt x="317" y="1137" on="0"/>
        <pt x="310" y="1177" on="0"/>
        <pt x="310" y="1209" on="1"/>
        <pt x="310" y="1241" on="0"/>
        <pt x="317" y="1281" on="0"/>
        <pt x="332" y="1304" on="0"/>
        <pt x="356" y="1312" on="0"/>
        <pt x="373" y="1312" on="1"/>
        <pt x="573" y="1312" on="0"/>
        <pt x="780" y="1122" on="0"/>
        <pt x="780" y="929" on="1"/>
        <pt x="780" y="770" on="1"/>
        <pt x="780" y="679" on="0"/>
        <pt x="864" y="584" on="0"/>
        <pt x="960" y="584" on="1"/>
        <pt x="977" y="584" on="0"/>
        <pt x="1001" y="576" on="0"/>
        <pt x="1016" y="554" on="0"/>
        <pt x="1023" y="514" on="0"/>
        <pt x="1023" y="482" on="1"/>
        <pt x="1023" y="450" on="0"/>
        <pt x="1016" y="410" on="0"/>
        <pt x="1001" y="387" on="0"/>
        <pt x="977" y="379" on="0"/>
        <pt x="960" y="379" on="1"/>
        <pt x="864" y="379" on="0"/>
        <pt x="780" y="284" on="0"/>
        <pt x="780" y="193" on="1"/>
        <pt x="780" y="-10" on="1"/>
        <pt x="780" y="-204" on="0"/>
        <pt x="573" y="-393" on="0"/>
        <pt x="373" y="-393" on="1"/>
        <pt x="356" y="-393" on="0"/>
        <pt x="332" y="-385" on="0"/>
        <pt x="317" y="-362" on="0"/>
        <pt x="310" y="-322" on="0"/>
        <pt x="310" y="-290" on="1"/>
        <pt x="310" y="-258" on="0"/>
        <pt x="317" y="-218" on="0"/>
        <pt x="332" y="-196" on="0"/>
        <pt x="356" y="-188" on="0"/>
        <pt x="373" y="-188" on="1"/>
        <pt x="451" y="-188" on="0"/>
        <pt x="530" y="-98" on="0"/>
        <pt x="530" y="2" on="1"/>
        <pt x="530" y="203" on="1"/>
        <pt x="530" y="254" on="0"/>
        <pt x="553" y="338" on="0"/>
        <pt x="595" y="407" on="0"/>
        <pt x="653" y="461" on="0"/>
      </contour>
    </TTGlyph>
    <TTGlyph name="bracketleft" xMin="290" yMin="-393" xMax="926" yMax="1312">
      <contour>
        <pt x="863" y="-188" on="1"/>
        <pt x="880" y="-188" on="0"/>
        <pt x="904" y="-196" on="0"/>
        <pt x="919" y="-218" on="0"/>
        <pt x="926" y="-258" on="0"/>
        <pt x="926" y="-290" on="1"/>
        <pt x="926" y="-322" on="0"/>
        <pt x="919" y="-362" on="0"/>
        <pt x="904" y="-385" on="0"/>
        <pt x="880" y="-393" on="0"/>
        <pt x="863" y="-393" on="1"/>
        <pt x="353" y="-393" on="1"/>
        <pt x="319" y="-393" on="0"/>
        <pt x="290" y="-364" on="0"/>
        <pt x="290" y="-330" on="1"/>
        <pt x="290" y="1249" on="1"/>
        <pt x="290" y="1283" on="0"/>
        <pt x="319" y="1312" on="0"/>
        <pt x="353" y="1312" on="1"/>
        <pt x="863" y="1312" on="1"/>
        <pt x="880" y="1312" on="0"/>
        <pt x="904" y="1304" on="0"/>
        <pt x="919" y="1281" on="0"/>
        <pt x="926" y="1241" on="0"/>
        <pt x="926" y="1209" on="1"/>
        <pt x="926" y="1177" on="0"/>
        <pt x="919" y="1137" on="0"/>
        <pt x="904" y="1115" on="0"/>
        <pt x="880" y="1107" on="0"/>
        <pt x="863" y="1107" on="1"/>
        <pt x="540" y="1107" on="1"/>
        <pt x="540" y="-188" on="1"/>
      </contour>
    </TTGlyph>
    <TTGlyph name="bracketright" xMin="302" yMin="-393" xMax="938" yMax="1312">
      <contour>
        <pt x="688" y="1107" on="1"/>
        <pt x="365" y="1107" on="1"/>
        <pt x="348" y="1107" on="0"/>
        <pt x="324" y="1115" on="0"/>
        <pt x="309" y="1137" on="0"/>
        <pt x="302" y="1177" on="0"/>
        <pt x="302" y="1209" on="1"/>
        <pt x="302" y="1241" on="0"/>
        <pt x="309" y="1281" on="0"/>
        <pt x="324" y="1304" on="0"/>
        <pt x="348" y="1312" on="0"/>
        <pt x="365" y="1312" on="1"/>
        <pt x="875" y="1312" on="1"/>
        <pt x="909" y="1312" on="0"/>
        <pt x="938" y="1283" on="0"/>
        <pt x="938" y="1249" on="1"/>
        <pt x="938" y="-330" on="1"/>
        <pt x="938" y="-364" on="0"/>
        <pt x="909" y="-393" on="0"/>
        <pt x="875" y="-393" on="1"/>
        <pt x="365" y="-393" on="1"/>
        <pt x="348" y="-393" on="0"/>
        <pt x="324" y="-385" on="0"/>
        <pt x="309" y="-362" on="0"/>
        <pt x="302" y="-322" on="0"/>
        <pt x="302" y="-290" on="1"/>
        <pt x="302" y="-258" on="0"/>
        <pt x="309" y="-218" on="0"/>
        <pt x="324" y="-196" on="0"/>
        <pt x="348" y="-188" on="0"/>
        <pt x="365" y="-188" on="1"/>
        <pt x="688" y="-188" on="1"/>
      </contour>
    </TTGlyph>
    <TTGlyph name="breve" xMin="222" yMin="1041" xMax="1006" yMax="1385">
      <contour>
        <pt x="614" y="1041" on="1"/>
        <pt x="533" y="1041" on="0"/>
        <pt x="403" y="1077" on="0"/>
        <pt x="307" y="1144" on="0"/>
        <pt x="243" y="1239" on="0"/>
        <pt x="227" y="1298" on="1"/>
        <pt x="222" y="1316" on="0"/>
        <pt x="239" y="1347" on="0"/>
        <pt x="270" y="1371" on="0"/>
        <pt x="311" y="1385" on="0"/>
        <pt x="329" y="1385" on="1"/>
        <pt x="360" y="1385" on="0"/>
        <pt x="373" y="1365" on="1"/>
        <pt x="390" y="1337" on="0"/>
        <pt x="434" y="1292" on="0"/>
        <pt x="492" y="1261" on="0"/>
        <pt x="566" y="1245" on="0"/>
        <pt x="614" y="1245" on="1"/>
        <pt x="662" y="1245" on="0"/>
        <pt x="736" y="1261" on="0"/>
        <pt x="794" y="1292" on="0"/>
        <pt x="838" y="1337" on="0"/>
        <pt x="855" y="1365" on="1"/>
        <pt x="868" y="1385" on="0"/>
        <pt x="899" y="1385" on="1"/>
        <pt x="917" y="1385" on="0"/>
        <pt x="957" y="1371" on="0"/>
        <pt x="989" y="1347" on="0"/>
        <pt x="1006" y="1316" on="0"/>
        <pt x="1001" y="1298" on="1"/>
        <pt x="985" y="1239" on="0"/>
        <pt x="921" y="1144" on="0"/>
        <pt x="825" y="1077" on="0"/>
        <pt x="695" y="1041" on="0"/>
      </contour>
    </TTGlyph>
    <TTGlyph name="brokenbar" xMin="489" yMin="-415" xMax="739" yMax="1334">
      <contour>
        <pt x="489" y="271" on="1"/>
        <pt x="489" y="305" on="0"/>
        <pt x="557" y="334" on="0"/>
        <pt x="621" y="334" on="1"/>
        <pt x="685" y="334" on="0"/>
        <pt x="739" y="305" on="0"/>
        <pt x="739" y="271" on="1"/>
        <pt x="739" y="-352" on="1"/>
        <pt x="739" y="-386" on="0"/>
        <pt x="671" y="-415" on="0"/>
        <pt x="607" y="-415" on="1"/>
        <pt x="543" y="-415" on="0"/>
        <pt x="489" y="-386" on="0"/>
        <pt x="489" y="-352" on="1"/>
      </contour>
      <contour>
        <pt x="489" y="1271" on="1"/>
        <pt x="489" y="1305" on="0"/>
        <pt x="557" y="1334" on="0"/>
        <pt x="621" y="1334" on="1"/>
        <pt x="685" y="1334" on="0"/>
        <pt x="739" y="1305" on="0"/>
        <pt x="739" y="1271" on="1"/>
        <pt x="739" y="648" on="1"/>
        <pt x="739" y="614" on="0"/>
        <pt x="671" y="585" on="0"/>
        <pt x="607" y="585" on="1"/>
        <pt x="543" y="585" on="0"/>
        <pt x="489" y="614" on="0"/>
        <pt x="489" y="648" on="1"/>
      </contour>
    </TTGlyph>
    <TTGlyph name="bullet" xMin="320" yMin="285" xMax="908" yMax="873">
      <contour>
        <pt x="320" y="579" on="1"/>
        <pt x="320" y="640" on="0"/>
        <pt x="366" y="747" on="0"/>
        <pt x="446" y="827" on="0"/>
        <pt x="553" y="873" on="0"/>
        <pt x="614" y="873" on="1"/>
        <pt x="675" y="873" on="0"/>
        <pt x="782" y="827" on="0"/>
        <pt x="862" y="747" on="0"/>
        <pt x="908" y="640" on="0"/>
        <pt x="908" y="579" on="1"/>
        <pt x="908" y="518" on="0"/>
        <pt x="862" y="411" on="0"/>
        <pt x="782" y="331" on="0"/>
        <pt x="675" y="285" on="0"/>
        <pt x="614" y="285" on="1"/>
        <pt x="553" y="285" on="0"/>
        <pt x="446" y="331" on="0"/>
        <pt x="366" y="411" on="0"/>
        <pt x="320" y="518" on="0"/>
      </contour>
    </TTGlyph>
    <TTGlyph name="c" xMin="127" yMin="-22" xMax="1085" yMax="946">
      <contour>
        <pt x="948" y="299" on="1"/>
        <pt x="977" y="316" on="0"/>
        <pt x="1035" y="289" on="0"/>
        <pt x="1060" y="230" on="1"/>
        <pt x="1085" y="171" on="0"/>
        <pt x="1066" y="105" on="0"/>
        <pt x="1035" y="88" on="1"/>
        <pt x="945" y="38" on="0"/>
        <pt x="741" y="-22" on="0"/>
        <pt x="634" y="-22" on="1"/>
        <pt x="518" y="-22" on="0"/>
        <pt x="331" y="50" on="0"/>
        <pt x="199" y="179" on="0"/>
        <pt x="127" y="357" on="0"/>
        <pt x="127" y="462" on="1"/>
        <pt x="127" y="569" on="0"/>
        <pt x="200" y="747" on="0"/>
        <pt x="329" y="875" on="0"/>
        <pt x="503" y="946" on="0"/>
        <pt x="604" y="946" on="1"/>
        <pt x="685" y="946" on="0"/>
        <pt x="798" y="889" on="0"/>
        <pt x="833" y="829" on="1"/>
        <pt x="833" y="883" on="1"/>
        <pt x="833" y="917" on="0"/>
        <pt x="891" y="946" on="0"/>
        <pt x="955" y="946" on="1"/>
        <pt x="987" y="946" on="0"/>
        <pt x="1029" y="939" on="0"/>
        <pt x="1053" y="924" on="0"/>
        <pt x="1063" y="900" on="0"/>
        <pt x="1063" y="883" on="1"/>
        <pt x="1063" y="562" on="1"/>
        <pt x="1063" y="528" on="0"/>
        <pt x="1003" y="499" on="0"/>
        <pt x="931" y="499" on="1"/>
        <pt x="895" y="499" on="0"/>
        <pt x="850" y="506" on="0"/>
        <pt x="823" y="521" on="0"/>
        <pt x="813" y="545" on="0"/>
        <pt x="813" y="562" on="1"/>
        <pt x="813" y="593" on="0"/>
        <pt x="791" y="649" on="0"/>
        <pt x="746" y="693" on="0"/>
        <pt x="679" y="719" on="0"/>
        <pt x="634" y="719" on="1"/>
        <pt x="580" y="719" on="0"/>
        <pt x="491" y="683" on="0"/>
        <pt x="429" y="615" on="0"/>
        <pt x="395" y="520" on="0"/>
        <pt x="395" y="462" on="1"/>
        <pt x="395" y="403" on="0"/>
        <pt x="429" y="309" on="0"/>
        <pt x="491" y="241" on="0"/>
        <pt x="580" y="205" on="0"/>
        <pt x="634" y="205" on="1"/>
        <pt x="714" y="205" on="0"/>
        <pt x="874" y="256" on="0"/>
      </contour>
    </TTGlyph>
    <TTGlyph name="cacute" xMin="127" yMin="-22" xMax="1085" yMax="1408">
      <component glyphName="c" x="0" y="0" flags="0x204"/>
      <component glyphName="acute" x="-3" y="0" flags="0x4"/>
    </TTGlyph>
    <TTGlyph name="caron" xMin="254" yMin="1007" xMax="974" yMax="1393">
      <contour>
        <pt x="893" y="1384" on="1"/>
        <pt x="912" y="1393" on="0"/>
        <pt x="946" y="1378" on="0"/>
        <pt x="960" y="1360" on="1"/>
        <pt x="974" y="1341" on="0"/>
        <pt x="973" y="1302" on="0"/>
        <pt x="956" y="1286" on="1"/>
        <pt x="669" y="1025" on="1"/>
        <pt x="658" y="1015" on="0"/>
        <pt x="630" y="1007" on="0"/>
        <pt x="614" y="1007" on="1"/>
        <pt x="598" y="1007" on="0"/>
        <pt x="570" y="1015" on="0"/>
        <pt x="559" y="1025" on="1"/>
        <pt x="272" y="1286" on="1"/>
        <pt x="255" y="1302" on="0"/>
        <pt x="254" y="1341" on="0"/>
        <pt x="268" y="1360" on="1"/>
        <pt x="282" y="1378" on="0"/>
        <pt x="316" y="1393" on="0"/>
        <pt x="335" y="1384" on="1"/>
        <pt x="614" y="1250" on="1"/>
      </contour>
    </TTGlyph>
    <TTGlyph name="ccaron" xMin="127" yMin="-22" xMax="1085" yMax="1403">
      <component glyphName="c" x="0" y="0" flags="0x204"/>
      <component glyphName="caron" x="10" y="10" flags="0x4"/>
    </TTGlyph>
    <TTGlyph name="ccedilla" xMin="127" yMin="-472" xMax="1085" yMax="946">
      <contour>
        <pt x="948" y="299" on="1"/>
        <pt x="977" y="316" on="0"/>
        <pt x="1035" y="289" on="0"/>
        <pt x="1060" y="230" on="1"/>
        <pt x="1085" y="171" on="0"/>
        <pt x="1066" y="105" on="0"/>
        <pt x="1035" y="88" on="1"/>
        <pt x="956" y="44" on="0"/>
        <pt x="778" y="-13" on="0"/>
        <pt x="684" y="-20" on="1"/>
        <pt x="684" y="-93" on="1"/>
        <pt x="742" y="-91" on="0"/>
        <pt x="828" y="-117" on="0"/>
        <pt x="883" y="-167" on="0"/>
        <pt x="910" y="-238" on="0"/>
        <pt x="910" y="-281" on="1"/>
        <pt x="910" y="-372" on="0"/>
        <pt x="769" y="-472" on="0"/>
        <pt x="631" y="-472" on="1"/>
        <pt x="556" y="-472" on="0"/>
        <pt x="425" y="-450" on="0"/>
        <pt x="372" y="-430" on="1"/>
        <pt x="353" y="-422" on="0"/>
        <pt x="350" y="-380" on="0"/>
        <pt x="361" y="-348" on="1"/>
        <pt x="374" y="-313" on="0"/>
        <pt x="405" y="-282" on="0"/>
        <pt x="425" y="-288" on="1"/>
        <pt x="464" y="-303" on="0"/>
        <pt x="538" y="-322" on="0"/>
        <pt x="588" y="-322" on="1"/>
        <pt x="674" y="-322" on="0"/>
        <pt x="674" y="-269" on="1"/>
        <pt x="674" y="-248" on="0"/>
        <pt x="652" y="-225" on="0"/>
        <pt x="618" y="-214" on="0"/>
        <pt x="573" y="-216" on="0"/>
        <pt x="551" y="-221" on="1"/>
        <pt x="534" y="-225" on="0"/>
        <pt x="509" y="-206" on="0"/>
        <pt x="509" y="-180" on="1"/>
        <pt x="509" y="-9" on="1"/>
        <pt x="420" y="9" on="0"/>
        <pt x="279" y="93" on="0"/>
        <pt x="180" y="216" on="0"/>
        <pt x="127" y="372" on="0"/>
        <pt x="127" y="462" on="1"/>
        <pt x="127" y="569" on="0"/>
        <pt x="200" y="747" on="0"/>
        <pt x="329" y="875" on="0"/>
        <pt x="503" y="946" on="0"/>
        <pt x="604" y="946" on="1"/>
        <pt x="685" y="946" on="0"/>
        <pt x="798" y="889" on="0"/>
        <pt x="833" y="829" on="1"/>
        <pt x="833" y="883" on="1"/>
        <pt x="833" y="917" on="0"/>
        <pt x="891" y="946" on="0"/>
        <pt x="955" y="946" on="1"/>
        <pt x="987" y="946" on="0"/>
        <pt x="1029" y="939" on="0"/>
        <pt x="1053" y="924" on="0"/>
        <pt x="1063" y="900" on="0"/>
        <pt x="1063" y="883" on="1"/>
        <pt x="1063" y="562" on="1"/>
        <pt x="1063" y="528" on="0"/>
        <pt x="1003" y="499" on="0"/>
        <pt x="931" y="499" on="1"/>
        <pt x="895" y="499" on="0"/>
        <pt x="850" y="506" on="0"/>
        <pt x="823" y="521" on="0"/>
        <pt x="813" y="545" on="0"/>
        <pt x="813" y="562" on="1"/>
        <pt x="813" y="593" on="0"/>
        <pt x="791" y="649" on="0"/>
        <pt x="746" y="693" on="0"/>
        <pt x="679" y="719" on="0"/>
        <pt x="634" y="719" on="1"/>
        <pt x="580" y="719" on="0"/>
        <pt x="491" y="683" on="0"/>
        <pt x="429" y="615" on="0"/>
        <pt x="395" y="520" on="0"/>
        <pt x="395" y="462" on="1"/>
        <pt x="395" y="403" on="0"/>
        <pt x="429" y="309" on="0"/>
        <pt x="491" y="241" on="0"/>
        <pt x="580" y="205" on="0"/>
        <pt x="634" y="205" on="1"/>
        <pt x="714" y="205" on="0"/>
        <pt x="874" y="256" on="0"/>
      </contour>
    </TTGlyph>
    <TTGlyph name="ccircumflex" xMin="127" yMin="-22" xMax="1085" yMax="1406">
      <component glyphName="circumflex" x="10" y="0" flags="0x204"/>
      <component glyphName="c" x="0" y="0" flags="0x4"/>
    </TTGlyph>
    <TTGlyph name="cdotaccent" xMin="127" yMin="-22" xMax="1085" yMax="1426">
      <component glyphName="c" x="0" y="0" flags="0x204"/>
      <component glyphName="dotaccent" x="10" y="20" flags="0x4"/>
    </TTGlyph>
    <TTGlyph name="cedilla" xMin="350" yMin="-472" xMax="910" yMax="28">
      <contour>
        <pt x="684" y="28" on="1"/>
        <pt x="684" y="-93" on="1"/>
        <pt x="742" y="-91" on="0"/>
        <pt x="828" y="-117" on="0"/>
        <pt x="883" y="-167" on="0"/>
        <pt x="910" y="-238" on="0"/>
        <pt x="910" y="-281" on="1"/>
        <pt x="910" y="-372" on="0"/>
        <pt x="769" y="-472" on="0"/>
        <pt x="631" y="-472" on="1"/>
        <pt x="556" y="-472" on="0"/>
        <pt x="425" y="-450" on="0"/>
        <pt x="372" y="-430" on="1"/>
        <pt x="353" y="-422" on="0"/>
        <pt x="350" y="-380" on="0"/>
        <pt x="361" y="-348" on="1"/>
        <pt x="374" y="-313" on="0"/>
        <pt x="405" y="-282" on="0"/>
        <pt x="425" y="-288" on="1"/>
        <pt x="464" y="-303" on="0"/>
        <pt x="538" y="-322" on="0"/>
        <pt x="588" y="-322" on="1"/>
        <pt x="674" y="-322" on="0"/>
        <pt x="674" y="-269" on="1"/>
        <pt x="674" y="-248" on="0"/>
        <pt x="652" y="-225" on="0"/>
        <pt x="618" y="-214" on="0"/>
        <pt x="573" y="-216" on="0"/>
        <pt x="551" y="-221" on="1"/>
        <pt x="534" y="-225" on="0"/>
        <pt x="509" y="-206" on="0"/>
        <pt x="509" y="-180" on="1"/>
        <pt x="509" y="28" on="1"/>
      </contour>
    </TTGlyph>
</ttFont>
